<svg viewBox="0 0 12 16" fill="none" xmlns="http://www.w3.org/2000/svg" aria-hidden="true">
<path d="M9 7.75C9 7.5625 8.8125 7.375 8.625 7.375H3.375C3.15625 7.375 3 7.5625 3 7.75V8.625C3 8.84375 3.15625 9 3.375 9H8.625C8.8125 9 9 8.84375 9 8.625V7.75ZM8.625 10H3.375C3.15625 10 3 10.1875 3 10.375V11.25C3 11.4688 3.15625 11.625 3.375 11.625H8.625C8.8125 11.625 9 11.4688 9 11.25V10.375C9 10.1875 8.8125 10 8.625 10ZM12 4.125C12 3.75 11.8125 3.34375 11.5312 3.0625L8.9375 0.46875C8.65625 0.1875 8.25 0 7.875 0H1.5C0.65625 0 0 0.6875 0 1.5V14.5C0 15.3438 0.65625 16 1.5 16H10.5C11.3125 16 12 15.3438 12 14.5V4.125ZM8 1.625L10.375 4H8V1.625ZM10.5 14.5H1.5V1.5H6.5V4.75C6.5 5.1875 6.8125 5.5 7.25 5.5H10.5V14.5Z" fill="currentColor"/>
</svg>
