<svg viewBox="0 0 14 16" fill="none" xmlns="http://www.w3.org/2000/svg" aria-hidden="true">
<path d="M11 4C11 1.8125 9.1875 0 7 0C4.78125 0 3 1.8125 3 4H0V13.5C0 14.9062 1.09375 16 2.5 16H11.5C12.875 16 14 14.9062 14 13.5V4H11ZM7 1.5C8.375 1.5 9.5 2.625 9.5 4H4.5C4.5 2.625 5.59375 1.5 7 1.5ZM12.5 13.5C12.5 14.0625 12.0312 14.5 11.5 14.5H2.5C1.9375 14.5 1.5 14.0625 1.5 13.5V5.5H3V6.75C3 7.1875 3.3125 7.5 3.75 7.5C4.15625 7.5 4.5 7.1875 4.5 6.75V5.5H9.5V6.75C9.5 7.1875 9.8125 7.5 10.25 7.5C10.6562 7.5 11 7.1875 11 6.75V5.5H12.5V13.5Z" fill="currentColor"/>
</svg>
