<svg width="128" height="128" viewBox="0 0 128 128" fill="none" xmlns="http://www.w3.org/2000/svg">
<g filter="url(#filter0_d_16646_2115)">
<g clip-path="url(#clip0_16646_2115)">
<path d="M115.781 68.7843C115.781 68.3451 115.781 68.1255 115.781 67.9059C115.342 67.9059 115.123 67.6863 114.685 67.6863C114.247 67.4667 114.027 67.2471 113.808 67.0275C113.589 66.8078 113.37 66.5882 113.151 66.149C112.932 66.149 112.932 66.5882 112.493 66.5882C112.274 66.3686 112.055 66.149 112.055 65.9294C112.274 65.7098 112.712 65.7098 112.932 65.4902C112.932 65.2706 112.932 65.051 112.932 64.8314C112.932 63.5137 113.37 62.6353 114.466 61.9765C114.685 61.9765 114.685 61.7569 114.904 61.7569C114.904 61.5373 114.685 61.5373 114.904 61.3176C115.123 61.3176 115.123 61.098 115.342 61.098H115.562C115.781 61.098 115.781 61.098 116 61.098C116.219 60.6588 116.219 59.3412 116 58.902C115.781 58.902 115.781 58.902 115.562 58.902C113.589 58.4627 112.932 56.9255 112.932 55.6078C112.932 54.949 113.151 54.5098 113.37 53.851C113.37 53.851 113.37 53.6314 113.589 53.6314L113.808 53.4118C114.247 52.9725 114.685 52.7529 115.342 52.5333H115.562C115.562 52.0941 115.562 52.0941 116 51.8745C116 51.2157 116 50.5569 116 49.6784C114.027 49.4588 113.151 47.9216 112.932 46.8235C112.932 46.1647 113.151 45.2863 113.589 44.8471C114.247 43.9686 115.123 43.749 116 43.5294C116 42.651 116 41.7725 116 40.8941C116 40.8941 116 40.8941 116 40.6745C116 40.6745 116 40.6745 115.781 40.6745C114.466 40.4549 113.37 39.5765 113.151 38.2588C113.151 38.0392 113.151 38.0392 113.151 37.8196C112.932 37.6 112.932 37.1608 113.151 36.9412C113.151 36.9412 113.151 36.7216 113.37 36.502C113.808 35.4039 114.685 34.5255 115.781 34.3059C116 34.3059 116 34.3059 116.219 34.3059C116.219 33.6471 116.219 32.1098 116.219 31.6706C116 31.6706 116 31.6706 115.781 31.6706C114.027 31.451 113.151 29.6941 113.151 28.5961C113.151 27.0588 114.466 25.7412 115.781 25.5216C116 25.5216 116 25.5216 116.219 25.5216C116.219 25.0824 116.219 24.6431 116.219 24.2039C116.219 24.2039 116.219 23.9843 116.219 23.7647C116 23.7647 116 23.7647 115.781 23.7647C115.562 23.7647 115.562 23.7647 115.342 23.5451C115.123 23.3255 115.123 23.1059 115.342 22.8863C115.342 22.6667 115.562 22.6667 115.562 22.4471C115.342 22.4471 115.342 22.2275 115.123 22.2275C113.808 21.5686 112.932 20.251 113.151 18.9333C113.37 17.3961 114.685 16.298 115.781 16.298H116C116 15.8588 116 13.8824 116 13.6627C115.562 13.6627 115.342 13.4431 114.904 13.4431C114.466 13.2235 114.247 13.2235 114.027 13.0039C113.589 12.5647 113.589 13.0039 113.37 12.7843C113.151 12.7843 113.151 12.5647 112.932 12.3451C112.712 12.1255 112.712 12.1255 112.493 11.9059C112.055 12.1255 111.616 12.3451 111.178 12.7843L110.959 13.0039C110.74 13.0039 110.74 13.0039 110.521 13.0039C110.521 13.0039 110.301 12.7843 110.301 12.5647C110.082 12.5647 110.082 12.5647 109.863 12.5647C109.863 12.3451 109.863 12.3451 109.863 12.1255C109.863 11.6863 110.082 11.4667 110.082 11.0275C110.082 10.8078 110.301 10.5882 110.301 10.5882C110.74 10.5882 111.178 10.5882 111.397 10.8078L111.616 11.0275C111.836 11.2471 112.055 11.4667 112.274 11.4667C112.493 11.6863 112.712 11.6863 112.932 11.6863C112.932 11.4667 112.932 11.2471 112.932 11.2471C112.274 9.27059 113.37 7.29412 115.562 7.07451H115.781C115.781 6.6353 115.781 5.97647 115.781 5.53726C115.781 5.09804 115.781 4.65883 115.781 4C115.342 4 113.37 4 112.932 4C112.932 4.21961 112.932 4.43922 112.932 4.65883C112.932 4.87843 112.932 5.09804 112.712 5.31765C112.274 5.75687 112.055 6.19608 111.397 6.6353L111.178 6.85491C111.397 7.29412 111.616 7.73334 111.616 8.17255C111.616 8.39216 111.616 8.61177 111.178 8.83138C110.959 8.39216 110.521 8.39216 110.082 8.39216C109.863 8.39216 109.425 8.39216 109.425 7.95294C109.425 7.73334 109.644 7.73334 109.863 7.73334C110.082 7.73334 110.521 7.51373 110.74 7.51373C110.959 7.51373 110.959 7.29412 111.178 7.07451C110.959 7.07451 110.959 7.07451 110.74 7.07451C109.863 7.29412 108.986 7.29412 108.11 6.6353C107.89 6.41569 107.671 6.41569 107.452 6.41569C107.233 6.41569 107.014 6.41569 106.795 6.41569C106.575 6.19608 106.137 6.41569 105.918 6.6353C105.699 6.85491 105.479 6.85491 105.26 7.07451C105.041 7.07451 104.822 7.29412 104.603 7.07451C104.384 7.07451 104.384 6.85491 104.384 6.85491C104.384 6.85491 104.384 6.6353 104.603 6.6353C104.822 6.41569 105.041 6.19608 105.479 6.19608C105.699 6.19608 105.918 5.97647 106.137 5.75687C106.356 5.53726 106.575 5.31765 107.014 4.87843C106.795 4.65883 107.014 4.21961 106.795 4C106.137 4 104.603 4 104.164 4C103.945 4.43922 104.164 4.87843 103.945 5.09804C103.726 5.53726 103.507 5.75687 103.288 6.19608C103.068 6.41569 102.63 6.6353 102.192 6.85491C101.753 7.07451 101.315 7.07451 100.877 7.07451C100.219 7.07451 99.5616 6.85491 98.9041 6.41569C98.0274 5.75687 97.8082 4.87843 97.589 4C97.3699 4 96.9315 4 96.7123 4L96.4932 4.21961C96.0548 4.43922 96.0548 4.87843 96.0548 5.31765C96.0548 5.53726 96.0548 5.75687 96.0548 5.75687C96.0548 5.97647 95.8356 6.19608 95.6164 6.19608C95.1781 6.19608 95.1781 6.19608 94.9589 6.19608C94.7397 6.19608 94.7397 5.97647 94.7397 5.75687C94.7397 5.53726 94.7397 5.31765 94.9589 5.09804C95.1781 4.87843 95.3973 4.43922 95.3973 4.21961H94.9589C94.7397 5.97647 93.863 7.07451 92.1096 7.29412C92.1096 7.51373 92.1096 7.51373 92.1096 7.73334C92.1096 7.95294 92.1096 8.17255 91.8904 8.17255C91.6712 8.39216 91.4521 8.83138 91.0137 8.83138C90.7945 8.83138 90.5753 8.61177 90.3562 8.61177C90.137 8.39216 90.137 8.17255 90.137 7.95294C90.137 7.73334 90.137 7.51373 90.5753 7.29412C90.5753 7.29412 90.7945 7.29412 90.7945 7.07451C90.5753 7.07451 90.5753 6.85491 90.3562 6.85491C89.2603 6.41569 88.6027 5.53726 88.6027 4.43922V4.21961H85.9726C85.9726 4.43922 85.9726 4.65883 85.7534 4.87843C85.5342 6.41569 83.7808 7.73334 82.0274 7.29412C80.7123 7.07451 79.8356 5.97647 79.6164 4.65883C79.6164 4.43922 79.6164 4.43922 79.6164 4.21961C79.1781 4.21961 78.7397 4.21961 78.3014 4.21961V4.43922C78.0822 4.65883 78.0822 4.87843 77.6438 4.65883C77.4247 4.65883 77.2055 4.43922 77.2055 4.43922C77.2055 4.43922 77.2055 4.43922 76.9863 4.21961C76.9863 4.43922 76.9863 4.65883 76.7671 4.87843C76.3288 6.6353 74.5753 7.51373 73.0411 7.07451C71.726 6.6353 71.0685 5.75687 70.6301 4.43922C70.6301 4.21961 70.6301 4.21961 70.6301 4C69.7534 4 68 4 67.5616 4C67.5616 4.21961 67.5616 4.43922 67.3425 4.65883C67.1233 6.19608 65.8082 7.07451 64.274 7.07451C62.7397 7.07451 61.4247 5.97647 61.2055 4.65883C61.2055 4.43922 61.2055 4.21961 60.9863 4C60.5479 4 58.5753 4 58.137 4C58.137 4.87843 57.6986 5.53726 57.2603 6.19608C56.6027 6.85491 55.9452 7.07451 55.0685 7.07451C54.411 7.07451 53.7534 6.85491 53.0959 6.41569C52.6575 5.75687 52.4384 5.09804 52.2192 4C52 4 51.5616 4 51.3425 4C51.1233 4 50.6849 4 50.4658 4C50.2466 4 49.8082 4 49.589 4C49.589 4.43922 49.3699 5.09804 49.1507 5.53726C48.9315 5.97647 48.9315 6.41569 48.9315 6.85491C48.9315 7.07451 48.9315 7.07451 48.9315 7.29412C48.9315 7.29412 48.9315 7.51373 48.7123 7.51373C48.274 7.73334 47.8356 7.51373 47.8356 7.07451V6.85491H47.6164C47.3973 6.85491 47.3973 6.85491 47.1781 6.85491C44.9863 7.29412 43.6712 5.75687 43.4521 4.43922C43.4521 4.21961 43.4521 4.21961 43.4521 4C42.7945 4 41.0411 4 40.6027 4C40.6027 4.21961 40.6027 4.21961 40.6027 4.43922C40.3836 6.19608 38.8493 7.07451 37.5342 7.07451C36 7.07451 34.6849 5.97647 34.4658 4.43922C34.4658 4.21961 34.4658 4.21961 34.4658 4C34.0274 4 33.589 4 33.1507 4C32.7123 4 32.274 4 31.8356 4C31.8356 4.43922 31.6164 4.65883 31.6164 4.87843C31.6164 5.09804 31.3973 5.53726 31.1781 5.75687C31.3973 5.97647 31.8356 6.19608 31.8356 6.6353C31.6164 7.07451 31.3973 7.07451 31.1781 7.07451C30.9589 7.07451 30.7397 6.85491 30.9589 6.6353C30.9589 6.6353 30.9589 6.6353 30.9589 6.41569V6.19608H30.7397C30.5205 6.19608 30.5205 6.41569 30.3014 6.41569C28.3288 7.51373 25.9178 6.41569 25.6986 4.21961C25.6986 4 25.6986 4 25.6986 3.7804C24.8219 4 24.3836 4 24.1644 4C23.9452 4 23.5068 4 23.2877 4C23.0685 4 22.6301 4 22.411 4C22.411 4.21961 22.411 4.21961 22.411 4.43922C21.9726 5.97647 20.6575 7.07451 19.1233 7.07451C17.589 7.07451 16.274 5.97647 16.0548 4.43922C16.0548 4.21961 16.0548 4.21961 16.0548 4C15.6164 4 13.6438 4 13.2055 4C13.2055 4.43922 12.9863 5.09804 12.7671 5.53726C12.5479 5.97647 12.1096 6.41569 11.6712 6.6353C11.2329 7.07451 10.5753 7.07451 10.137 7.07451C9.69863 7.07451 9.47945 7.07451 9.26027 6.85491C8.82192 6.85491 8.60274 6.6353 8.16438 6.41569C7.94521 6.19608 7.72603 5.97647 7.50685 5.75687C7.28767 5.31765 7.06849 4.65883 7.06849 4C6.41096 4 5.9726 4 5.53425 4C5.09589 4 4.43836 4 4 4C4 4.43922 4 5.09804 4 5.53726C4 5.97647 4 6.41569 4 7.07451C4.21918 7.07451 4.21918 7.07451 4.43836 7.07451C5.9726 7.29412 7.06849 8.61177 7.06849 10.149C7.06849 11.6863 5.9726 13.0039 4.43836 13.2235C4.21918 13.2235 4 13.2235 4 13.4431C4 13.6627 4 14.102 4 14.3216C4 14.5412 4 14.9804 4 15.2C4 15.4196 4 15.8588 4 16.0784C4.21918 16.0784 4.43836 16.0784 4.65753 16.298C4.87671 16.298 5.09589 16.5176 5.31507 16.5176C5.53425 16.5176 5.75343 16.5176 5.9726 16.5176C6.19178 16.5176 6.41096 16.7373 6.19178 16.7373C6.19178 16.9569 6.19178 17.1765 6.41096 17.1765L6.63014 17.3961C7.72603 19.3726 6.63014 21.7882 4.65753 22.2275C4.43836 22.2275 4.43836 22.2275 4.21918 22.2275C4.21918 22.4471 4.21918 22.4471 4.21918 22.6667C4 23.3255 4 23.7647 4 24.2039C4 24.6431 4.21918 24.8627 4.43836 25.0824C5.31507 25.302 5.53425 25.302 6.41096 26.1804C6.63014 26.1804 6.63014 25.9608 6.84932 25.9608C6.84932 25.9608 7.06849 25.9608 7.06849 26.1804V26.4C6.84932 26.8392 7.06849 27.2784 7.06849 27.498C7.50685 29.4745 6.19178 31.0118 4.43836 31.2314C4.21918 31.2314 4.21918 31.2314 4 31.2314C4 32.1098 4 32.9882 4 33.8667C4.43836 33.8667 4.87671 34.0863 5.09589 34.0863C5.53425 34.3059 5.75343 34.5255 6.19178 34.7451C6.41096 34.7451 6.63014 34.7451 7.06849 34.7451C7.06849 34.7451 7.06849 34.7451 7.28767 34.7451C7.72603 34.7451 7.94521 34.3059 7.94521 33.8667V33.6471V33.4275C7.94521 33.2078 8.16438 33.2078 8.16438 33.4275C8.16438 33.4275 8.38356 33.6471 8.38356 33.8667C8.38356 34.0863 8.38356 34.3059 8.38356 34.3059C8.38356 34.5255 8.38356 34.5255 8.38356 34.7451C8.38356 35.1843 8.16438 35.4039 7.72603 35.6235C7.50685 35.8431 7.06849 35.8431 6.84932 36.0627C7.50685 38.0392 6.63014 40.0157 4 40.4549C4 40.8941 4 41.3333 4 41.7726V41.9922C3.78082 42.4314 4 42.651 4 43.0902C4.43836 43.3098 4.87671 43.3098 5.31507 43.5294C5.75343 43.749 5.9726 44.1882 6.41096 44.4078C6.41096 44.1882 6.63014 44.1882 6.63014 44.1882C6.63014 43.9686 6.63014 43.749 6.63014 43.5294C6.63014 43.3098 6.63014 43.3098 6.63014 43.0902C6.63014 42.8706 6.84932 42.8706 7.06849 42.8706C7.28767 42.8706 7.28767 43.0902 7.28767 43.0902C7.28767 43.0902 7.28767 43.3098 7.06849 43.3098C6.84932 43.749 6.84932 43.9686 7.06849 44.4078C7.06849 44.4078 7.06849 44.6275 7.28767 44.6275C7.28767 44.6275 7.28767 44.8471 7.50685 44.8471C7.72603 45.0667 7.72603 45.5059 7.28767 45.5059C7.06849 45.5059 7.06849 45.7255 7.06849 45.7255C7.06849 45.9451 7.06849 46.1647 7.06849 46.1647C7.06849 47.702 5.9726 49.0196 4.43836 49.2392H4.21918C4.21918 49.6784 4.21918 51.4353 4.21918 52.0941C4.43836 52.0941 4.87671 52.0941 5.09589 52.3137C6.41096 52.7529 7.28767 54.0706 7.28767 55.6078C7.06849 56.9255 5.9726 58.2431 4.65753 58.4627C4.43836 58.4627 4.43836 58.4627 4.21918 58.4627C4.21918 59.1216 4.21918 60.8784 4.21918 61.3176C4.43836 61.3176 4.65753 61.3176 4.65753 61.3176C6.19178 61.5373 7.06849 62.8549 7.06849 64.3922C7.06849 65.9294 6.19178 67.2471 4.65753 67.4667C4.43836 67.6863 4.21918 67.6863 4 67.6863C4 68.1255 4 69.8824 4 70.5412C4.87671 70.5412 5.53425 70.9804 6.19178 71.4196C6.84932 72.0784 7.06849 72.7373 7.06849 73.6157C7.06849 74.2745 6.84932 74.9333 6.41096 75.5921C5.75343 76.251 5.09589 76.6902 4 76.6902C4 76.9098 4 77.349 4 77.5686C4 77.7882 4 78.2274 4 78.4471C4 78.6667 4 79.1059 4 79.3255C4.21918 79.3255 4.43836 79.3255 4.65753 79.5451C6.19178 79.9843 7.06849 81.0823 7.06849 82.6196C7.06849 83.9372 5.9726 85.2549 4.65753 85.6941C4.43836 85.6941 4.21918 85.6941 4 85.9137C4 86.5725 4 88.3294 4 88.7686C4.21918 88.7686 4.21918 88.7686 4.43836 88.7686C5.75343 88.9882 6.63014 89.8667 7.06849 91.1843C7.28767 91.8431 7.06849 92.502 6.84932 93.1608C6.84932 93.3804 6.63014 93.6 6.84932 93.8196C6.84932 94.0392 6.84932 94.2588 6.63014 94.2588H6.41096C6.19178 94.2588 5.9726 94.2588 5.75343 94.4784C5.31507 94.698 5.09589 94.9176 4.65753 94.9176C4.43836 94.9176 4.21918 94.9176 4.21918 94.9176C4.21918 95.3569 4.21918 95.7961 4.21918 96.2353C4.21918 96.6745 4.21918 97.1137 4.21918 97.5529H4.43836C5.9726 97.7725 7.06849 99.0902 7.28767 100.408C7.28767 102.165 6.19178 103.482 4.65753 103.702C4.43836 103.702 4.43836 103.702 4.21918 103.922C4.21918 104.361 4.21918 104.8 4.21918 105.239C4.21918 105.678 4.21918 106.118 4.21918 106.557C4.43836 106.557 4.43836 106.557 4.43836 106.557C5.9726 106.776 7.06849 108.094 7.28767 109.631C7.28767 111.169 6.19178 112.486 4.65753 112.706C4.43836 112.706 4.43836 112.706 4.21918 112.706C4 113.804 4 115.561 4 116C4.43836 116 5.53425 116 6.41096 116H6.63014C6.41096 115.561 6.19178 115.341 5.9726 114.902C5.75343 114.463 5.53425 114.243 5.09589 114.024C5.09589 114.024 4.87671 114.024 4.87671 113.804C4.87671 113.804 4.65753 113.584 4.87671 113.365C5.09589 113.145 5.09589 113.145 5.31507 113.145C5.53425 113.145 5.53425 113.145 5.75343 113.365C5.9726 113.584 6.19178 113.804 6.19178 114.024C6.41096 114.463 6.63014 114.682 7.06849 114.902C7.06849 114.682 7.28767 114.463 7.28767 114.463C7.94521 113.584 8.82192 112.925 9.91781 112.925C11.4521 112.925 12.7671 114.024 12.9863 115.561C12.9863 115.78 12.9863 116 13.2055 116C13.6438 116 15.3973 116 15.8356 116C15.8356 115.78 15.8356 115.78 15.8356 115.561C16.0548 114.024 17.3699 112.925 18.9041 112.925C20.6575 112.925 21.9726 114.243 21.9726 115.561C21.9726 115.78 21.9726 115.78 22.1918 116C22.8493 116 24.3836 116 24.8219 116C24.8219 115.561 25.0411 115.122 25.2603 114.902C25.4795 114.463 25.6986 114.243 25.9178 113.804C25.6986 113.584 25.4795 113.145 25.6986 112.925V112.706C25.6986 112.486 25.6986 112.486 25.9178 112.267C26.137 112.486 26.137 112.486 26.5753 113.584C27.6712 112.925 28.7671 112.925 29.6438 113.584C30.7397 114.243 31.1781 115.122 31.3973 116.22H31.6164C32.274 116.22 33.1507 116.22 33.8082 116.22H34.0274C34.0274 116 34.0274 115.78 34.0274 115.78C34.2466 114.243 35.5616 113.145 37.0959 113.145C38.6301 113.145 39.9452 114.243 40.1644 115.78C40.1644 116 40.1644 116 40.1644 116.22H40.3836C41.2603 116.22 41.9178 116.22 42.7945 116.22H43.0137C43.0137 116 43.0137 115.78 43.2329 115.561C43.4521 114.243 44.7671 113.145 46.0822 113.145C47.6164 113.145 48.9315 114.243 49.3699 115.78C49.3699 116 49.3699 116 49.3699 116.22C49.589 116.22 49.8082 116.22 49.8082 116.22C50.4658 116.22 51.3425 116.22 52 116.22C52 116 52 116 52 115.78C52 115.561 52 115.341 52.2192 115.341C52.4384 114.463 53.0959 113.804 53.9726 113.584C54.1918 113.584 54.411 113.584 54.411 113.365C54.1918 113.145 54.1918 113.145 54.1918 112.925C53.9726 112.706 53.7534 112.486 53.5342 112.267C53.3151 112.047 53.3151 111.827 53.3151 111.608C53.5342 111.608 53.5342 111.608 53.7534 111.608C54.1918 111.608 54.1918 111.608 54.411 112.047C54.411 112.267 54.6301 112.486 54.6301 112.925C54.8493 113.365 55.0685 113.584 55.2877 113.584C56.8219 113.584 58.137 114.902 58.137 116.22V116.439C58.5753 116.439 59.0137 116.439 59.4521 116.439C59.8904 116.439 60.3288 116.439 60.7671 116.439C60.7671 115.561 61.2055 114.902 61.863 114.243C62.0822 114.024 62.0822 114.024 62.3014 113.804C62.5205 113.584 62.7397 113.584 62.9589 113.584C63.6164 113.365 64.4932 113.365 65.1507 113.804C66.0274 114.243 66.6849 114.902 66.9041 116C66.9041 116.22 66.9041 116.439 67.1233 116.659C67.5616 116.659 68 116.659 68.4384 116.659C68.8767 116.659 69.3151 116.659 69.7534 116.659C69.7534 116.439 69.7534 116.22 69.9726 116C70.411 114.682 71.5069 113.584 72.8219 113.584C74.3562 113.584 75.6712 114.682 75.8904 116C75.8904 116.22 75.8904 116.439 76.1096 116.659C76.548 116.659 76.9863 116.659 77.4247 116.659C77.863 116.659 78.3014 116.659 78.7397 116.659C78.7397 116.439 78.7397 116.22 78.9589 116C79.3973 114.682 80.7123 113.584 82.0274 113.584C83.5616 113.584 84.6575 114.902 84.8767 116C84.8767 116.22 84.8767 116.439 85.0959 116.659C85.5342 116.659 85.7534 116.659 85.9726 116.659C86.1918 116.659 86.6301 116.659 86.8493 116.659C87.0685 116.659 87.5069 116.659 87.726 116.659C87.726 116.439 87.726 116.439 87.726 116.22C87.9452 114.682 89.2603 113.584 90.7945 113.584C92.5479 113.584 93.6438 114.902 93.863 116.22C93.863 116.439 93.863 116.439 93.863 116.659C94.3014 116.659 94.7397 116.659 95.1781 116.659C95.6164 116.659 96.0548 116.659 96.4932 116.659C96.4932 116.439 96.4932 116.439 96.4932 116.22C96.7123 114.902 97.8082 113.804 98.9041 113.584C99.5616 113.365 100.219 113.584 100.877 113.584C101.096 113.584 101.096 113.584 101.315 113.804C101.315 114.024 101.534 114.243 101.753 114.463C102.192 114.902 102.411 115.561 102.63 116.22C102.63 116.439 102.63 116.439 102.63 116.659H102.849C103.507 116.659 104.384 116.659 105.041 116.659C105.041 116.659 105.041 116.659 105.26 116.659C105.26 116.439 105.26 116.22 105.26 116.22C105.479 115.78 105.26 115.561 105.041 115.341C105.041 115.341 104.822 115.341 104.822 115.122C104.822 115.122 104.603 114.902 104.822 114.682L105.041 114.463C105.26 114.243 105.479 114.024 105.699 113.584C105.699 113.365 105.699 113.365 105.699 113.145C105.479 113.145 105.479 112.925 105.26 112.925V112.706H105.479C105.699 112.706 105.918 112.706 106.137 112.925C106.356 113.365 106.795 113.584 107.233 113.804C107.452 113.804 107.452 114.024 107.671 113.804H107.89C109.425 113.365 111.397 114.463 111.616 116.439C111.616 116.659 111.616 116.659 111.616 116.878C111.836 116.878 111.836 116.878 111.836 116.878C112.712 116.878 113.589 116.878 114.466 116.878C114.466 116.878 114.466 116.878 114.685 116.878C114.685 116.659 114.685 116.22 114.685 116C114.685 115.78 114.685 115.341 114.685 115.122C114.685 114.902 114.685 114.463 114.685 114.024C113.808 114.024 113.151 113.584 112.493 113.145C111.836 112.486 111.616 111.827 111.616 110.949C111.616 110.729 111.616 110.51 111.616 110.071C111.616 109.851 111.836 109.631 111.836 109.412C112.055 109.192 112.055 108.973 112.274 108.753C112.493 108.533 112.712 108.314 112.932 108.314C113.151 108.094 113.37 108.094 113.589 107.875C113.808 107.875 114.027 107.875 114.466 107.875C114.466 107.435 114.466 105.678 114.466 105.239C114.247 105.239 113.808 105.02 113.589 105.02C111.616 104.361 110.959 102.165 111.836 100.627C111.836 100.408 112.055 100.408 112.055 100.188C112.055 100.188 112.055 99.9686 111.836 99.9686C111.616 99.749 111.836 99.749 111.836 99.5294C111.836 99.3098 112.055 99.3098 112.274 99.3098H112.493C112.712 99.5294 112.932 99.3098 113.151 99.3098C113.37 99.3098 113.37 99.0902 113.589 99.0902C113.808 99.0902 114.027 98.8706 114.247 98.8706V98.651C114.247 98.4314 114.027 98.4314 113.808 98.4314C113.589 98.4314 113.589 98.4314 113.37 98.2118V97.9921C113.37 97.9921 113.37 97.9921 113.589 97.7725C113.808 97.7725 113.808 97.7725 114.027 97.7725C114.247 97.7725 114.247 97.7725 114.466 97.9921C114.466 97.3333 114.466 96.8941 114.466 96.2353C113.808 96.2353 113.37 96.0157 112.932 95.7961C112.493 95.5765 112.055 95.1373 111.836 94.4784C111.616 94.0392 111.397 93.3804 111.397 92.9412C111.397 92.2823 111.616 91.6235 112.055 91.1843C112.712 90.5255 113.37 90.0863 114.466 90.0863C114.466 89.8667 114.466 89.4274 114.466 89.2078C114.466 88.9882 114.466 88.549 114.466 88.3294C114.466 88.1098 114.466 87.6706 114.466 87.451C114.247 87.451 114.027 87.451 113.808 87.2314C112.932 87.0118 112.055 86.3529 111.616 85.4745C111.397 85.2549 111.397 84.8157 111.397 84.3765C111.397 84.1569 111.178 83.9372 111.178 83.7176C111.178 83.7176 111.178 83.7176 111.178 83.498C111.616 83.2784 111.616 83.2784 111.616 83.0588C111.836 82.4 112.055 81.9608 112.712 81.5216L112.932 81.302C112.712 81.302 112.493 81.302 112.274 81.302C112.055 81.302 111.836 81.302 111.836 80.8627C112.055 80.8627 112.055 80.6431 112.274 80.6431C112.712 80.2039 113.151 80.2039 113.589 80.2039C113.808 80.2039 114.027 80.2039 114.247 79.9843C114.466 79.9843 114.466 79.7647 114.685 79.5451C114.685 79.3255 114.685 78.4471 114.685 78.0078C114.466 78.0078 114.247 78.0078 114.027 77.7882C112.493 77.349 111.616 76.251 111.616 74.7137C111.616 73.3961 112.712 72.0784 114.027 71.6392C114.247 71.6392 114.466 71.6392 114.685 71.4196V70.5412C114.247 70.5412 114.027 70.3216 113.808 69.8824C115.342 68.5647 115.342 68.5647 115.781 68.7843Z" fill="#1B3D6D"/>
</g>
</g>
<defs>
<filter id="filter0_d_16646_2115" x="0" y="0" width="128" height="128" filterUnits="userSpaceOnUse" color-interpolation-filters="sRGB">
<feFlood flood-opacity="0" result="BackgroundImageFix"/>
<feColorMatrix in="SourceAlpha" type="matrix" values="0 0 0 0 0 0 0 0 0 0 0 0 0 0 0 0 0 0 127 0" result="hardAlpha"/>
<feOffset dx="4" dy="4"/>
<feGaussianBlur stdDeviation="4"/>
<feComposite in2="hardAlpha" operator="out"/>
<feColorMatrix type="matrix" values="0 0 0 0 1 0 0 0 0 1 0 0 0 0 1 0 0 0 0.2 0"/>
<feBlend mode="normal" in2="BackgroundImageFix" result="effect1_dropShadow_16646_2115"/>
<feBlend mode="normal" in="SourceGraphic" in2="effect1_dropShadow_16646_2115" result="shape"/>
</filter>
<clipPath id="clip0_16646_2115">
<rect width="112" height="112" fill="white" transform="translate(4 4)"/>
</clipPath>
</defs>
</svg>
