<svg width="180" height="97" viewBox="0 0 180 97" fill="none" xmlns="http://www.w3.org/2000/svg">
<path d="M176.182 47.2332C176.182 48.319 176.182 49.4049 176.182 50.4907C176.182 50.3097 176 50.3097 176 50.3097C175.818 50.4907 175.818 50.8526 175.636 51.0336C175.636 51.0336 175.818 51.2146 175.818 51.3955L176 51.2146C176 52.1194 175.818 53.0243 175.818 53.9291C175.818 54.1101 175.818 54.2911 175.818 54.472C175.636 55.1959 175.636 55.9198 175.455 56.8246C175.455 57.0056 175.455 57.0056 175.455 57.1866C175.091 58.9963 174.727 60.806 174.182 62.6157C173.818 63.5205 173.636 64.4254 173.273 65.1493V65.3302C172.182 67.8638 170.909 70.3974 169.455 72.75L168.909 71.4832C168.545 71.4832 168 71.4832 167.636 71.4832C167.636 71.6642 167.455 71.8452 167.455 71.8452C168 72.569 167.455 73.112 166.545 73.4739C166.364 73.4739 166.182 73.8358 166 74.0168C166.182 74.0168 166.364 74.1978 166.545 74.1978C166.909 74.1978 167.273 74.0168 167.455 74.1978C168 74.3787 168.364 74.3787 168.545 74.0168C168 74.7407 167.455 75.4646 166.909 76.1884C166.727 76.3694 166.727 76.3694 166.545 76.5504C166.182 77.0933 165.636 77.6362 165.273 78.1791C165.091 78.3601 165.091 78.5411 164.909 78.5411C164.364 79.084 163.818 79.8079 163.273 80.3508L163.091 80.5317C161.818 81.7985 160.364 83.0653 159.091 84.1511L158.909 84.3321C158.182 84.875 157.455 85.4179 156.727 85.9608C155.091 87.0467 153.455 88.1325 151.818 89.0373C151.818 88.8564 151.818 88.8564 151.636 88.6754C151.091 88.1325 150.727 87.4086 150.182 87.2276C149.818 86.8657 149.273 86.8657 148.727 86.8657C164.182 79.4459 174.182 63.3396 172.909 45.7855C173.091 45.7855 173.273 45.7855 173.636 45.6045C173.636 45.6045 173.636 45.6045 173.818 45.4235C173.818 45.9664 174.182 46.5093 174.364 47.0523C174.545 47.5952 174.545 47.9571 174.545 48.5C175.091 48.1381 175.636 47.7761 176 47.4142C176.182 47.4142 176.182 47.2332 176.182 47.2332Z" fill="#D7D2D1"/>
<path d="M173.455 47.5951C173.636 47.4141 174 47.2332 174.364 47.0522C174.182 46.8712 174 46.8712 173.818 46.8712C173.636 46.8712 173.273 46.6903 173.273 47.2332C173.273 47.4142 173.455 47.5951 173.455 47.5951Z" fill="#D7D2D1"/>
<path d="M176 49.4048C175.818 49.4048 175.636 49.4048 175.455 49.4048C175.455 49.2239 175.455 49.2239 175.455 49.2239C175.273 49.0429 175.091 48.8619 174.909 48.681C174.909 48.8619 174.909 49.0429 174.909 49.4048C174.909 49.4048 174.909 49.5858 175.091 49.5858C174.909 49.5858 174.727 49.5858 174.727 49.5858C174.727 49.5858 174.546 50.1287 174.364 50.6716C174.909 50.4907 175.455 50.4907 175.818 50.1287C175.818 50.1287 175.818 49.7668 176 49.4048Z" fill="#D7D2D1"/>
<path d="M120.727 3.98135C121.636 3.61941 122.546 3.43844 123.636 3.43844C148.546 -0.361937 172 16.8302 175.818 41.6231C176 42.347 176 43.2519 176.182 43.9757C176.182 44.6996 176.364 45.6045 176.364 46.3284C176.182 45.7855 176.182 45.4235 176 44.8806C175.636 44.8806 175.273 44.8806 174.909 44.6996C174.909 44.5187 175.091 44.3377 175.091 44.1567C174.727 44.1567 174.546 43.9757 174.182 43.9757C174 44.3377 173.818 44.6996 173.818 45.0616L173.636 44.8806C173.455 44.8806 173.273 44.8806 173.091 44.8806C173.091 43.7948 172.909 42.8899 172.727 41.8041C171.636 34.3843 168.546 27.5075 164.182 21.8974C164.364 21.7164 164.364 21.5355 164.364 21.5355C164 21.7164 163.818 21.7164 163.455 21.7164C155.273 11.7631 142.727 5.79105 129.273 5.97202C129.455 5.61008 129.636 5.42911 129.636 5.42911C129.455 5.24814 129.273 5.24814 129.091 5.06717C129.091 5.24814 128.909 5.42911 128.909 5.42911C128.909 5.61008 129.091 5.79105 129.273 6.15299C127.636 6.15299 125.818 6.33396 124 6.6959C120.364 7.23881 116.909 8.14366 113.818 9.59142C113.818 9.04851 113.636 8.5056 113.455 7.96269V7.78172C113.455 7.60075 113.273 7.41978 113.273 7.23881C113.273 7.41978 113.091 7.60075 113.091 7.78172C113.273 8.5056 113.273 9.04851 113.455 9.77239C100.546 15.3825 91.091 27.1455 88.5455 40.8993C88.3637 40.8993 88.0001 41.0802 87.8183 41.2612C88.0001 41.4422 88.0001 41.6231 88.3637 41.8041C88.1819 42.8899 88.0001 44.1567 88.0001 45.4235C87.8183 45.0616 87.8183 44.8806 87.6365 44.6996C87.6365 45.0616 87.4546 45.6045 87.4546 45.9664C87.4546 46.1474 87.6364 46.3284 87.8183 46.6903C87.8183 46.5093 88.0001 46.5093 88.0001 46.3284C88.0001 46.5093 88.0001 46.6903 88.0001 46.6903C87.091 46.6903 86.0001 46.8713 85.2728 46.5093C85.2728 46.5093 84.9092 46.5093 84.9092 46.6903C85.091 43.4328 85.6365 40.3563 86.3637 37.2799C86.3637 37.2799 86.5455 37.4608 86.7274 37.6418C86.9092 37.4608 87.091 37.2799 87.2728 37.0989C87.091 37.0989 86.9092 36.7369 86.7274 36.9179L86.5455 37.0989C87.2728 34.2034 88.3637 31.4888 89.6365 28.9552C89.6365 28.9552 89.6365 28.9552 89.6365 28.7743C90.0001 27.8694 90.5455 27.1455 90.9092 26.2407C90.9092 26.2407 91.2728 26.4216 91.4546 26.6026C91.8183 26.2407 92.0001 25.8787 92.1819 25.5168C92.0001 25.3358 91.6365 25.1549 91.4546 25.1549C91.8183 24.25 92.5455 23.5261 93.091 22.6213L93.2728 22.4403C94.3637 20.8116 95.6365 19.3638 97.091 17.916C97.2728 17.7351 97.2728 17.7351 97.4546 17.5541C98.1819 16.8302 98.7274 16.1063 99.4546 15.5634C99.6365 15.5634 99.6365 15.7444 99.6365 16.1063C99.6365 16.2873 99.8183 16.4683 99.8183 16.4683C99.8183 15.7444 100 15.5634 100 15.5634C100.182 15.3825 100 14.6586 100.727 14.8396C100.727 14.6586 100.727 14.4776 100.727 14.2966C100.727 14.2966 100.727 14.1157 100.546 14.1157C102.182 12.8489 103.818 11.5821 105.455 10.4963C105.455 10.4963 105.636 10.4963 105.636 10.3153C107.273 9.04851 109.091 7.96269 110.909 7.23881C111.091 7.23881 111.091 7.05784 111.273 7.05784C112 6.6959 112.909 6.33396 113.636 5.97202C113.818 5.97202 114 5.79105 114 5.79105C114.909 5.42911 115.818 5.06717 116.727 4.8862C116.909 4.8862 117.091 4.8862 117.273 4.70523C118 4.52426 118.909 4.34329 119.636 4.16232C120.182 3.98135 120.364 3.98135 120.727 3.98135Z" fill="#D7D2D1"/>
<path d="M86.9092 42.347C86.7273 41.985 86.3637 41.6231 86.1819 41.0802C86.1819 41.4421 86.1819 41.985 86.3637 42.347C86.3637 42.7089 86.5455 42.8899 86.9092 43.2518C86.9092 42.7089 86.9092 42.347 86.9092 42.347Z" fill="#D7D2D1"/>
<path d="M88.7273 39.0895C88.5455 38.5466 88.5455 38.3657 88.3636 38.0037C88.3636 38.3657 88.3636 38.5466 88.3636 38.9086C88.3636 39.2705 88.5455 39.4515 88.5455 39.8134C88.5455 39.4515 88.7273 39.2705 88.7273 39.0895Z" fill="#D7D2D1"/>
<path d="M89.8183 35.1082C89.6365 34.9272 89.4546 34.7463 89.2728 34.7463C88.9092 34.7463 88.7274 34.7463 88.3637 34.9272V34.7463C87.8183 34.9272 87.4546 35.1082 86.9092 35.4702C87.2728 36.375 88.0001 35.6511 88.5455 35.6511C88.9092 35.6511 89.091 35.6511 89.4546 35.4702C89.6365 35.2892 89.8183 35.1082 89.8183 35.1082Z" fill="#D7D2D1"/>
<path d="M92.3637 27.1455C92.1818 26.9645 91.8182 26.7836 91.6364 26.6026C91.4546 26.4216 91.4546 26.2407 91.4546 26.2407C91.2727 27.1455 90.9091 28.2313 90.7273 29.1362L90.9091 29.6791C91.0909 29.6791 91.2727 29.6791 91.2727 29.6791C91.0909 28.4123 91.6364 28.4123 91.8182 27.6884C92 27.3265 92.1818 27.3265 92.3637 27.1455Z" fill="#D7D2D1"/>
<path d="M94 23.5261C93.6364 23.5261 93.4546 23.3452 93.4546 23.3452C93.2728 23.5261 93.0909 23.8881 92.7273 24.069C92.9091 24.069 93.0909 24.25 93.0909 24.25C93.4546 24.069 93.6364 23.8881 94 23.5261Z" fill="#D7D2D1"/>
<path d="M85.6364 57.5485C85.4546 56.8246 85.2728 56.1008 85.2728 55.1959C85.0909 54.472 85.0909 53.7481 84.9091 53.0243C84.9091 52.3004 84.7273 51.7575 84.7273 51.0336C84.7273 50.8526 84.7273 50.8526 84.7273 50.6717C84.7273 49.2239 84.7273 47.7761 84.7273 46.3284C84.9091 46.6903 85.6364 47.0522 85.2728 47.7761C85.6364 47.5952 85.8182 47.5952 86.1818 47.4142C86.7273 46.8713 87.2728 46.8713 88 47.2332C88 49.7668 88 52.3004 88.5455 54.834C88.5455 55.1959 88.7273 55.5578 88.7273 56.1008C88.5455 56.1008 88.3637 56.2817 88.1818 56.4627C88.3637 56.6437 88.5455 56.6437 88.7273 56.8246C92.3637 75.6455 108.364 89.2183 126.909 90.847C127.273 91.5709 127.636 92.2948 128 92.1138C128.182 92.1138 128.364 91.9328 128.364 91.7519C128.182 91.3899 128.182 91.209 128 91.028C130.364 91.209 132.727 91.028 135.091 90.847C135.091 91.028 135.273 91.209 135.273 91.5709C135.273 91.209 135.455 91.028 135.455 90.847C136 90.847 136.364 90.666 136.909 90.666C137.273 90.666 137.818 90.4851 138.182 90.4851C138.909 91.5709 139.818 91.9328 140.545 92.6567C140.545 92.6567 140.727 92.4758 140.909 92.4758C140.727 92.1138 140.545 91.7519 140.545 91.5709C140.182 91.209 139.636 90.6661 139.273 90.1231C142 89.5802 144.545 88.6754 147.091 87.7705C147.273 87.9515 147.273 88.1325 147.455 88.1325C148.545 88.6754 149.818 89.0373 150.909 89.5802C149.091 90.4851 147.091 91.209 145.273 91.9328C145.273 91.7519 145.273 91.7519 145.091 91.5709C145.091 91.7519 145.091 91.9328 145.091 92.1138C144.909 92.1138 144.545 92.2948 144.364 92.2948C144.182 92.2948 144.182 92.2948 144 92.4758C143.455 92.6567 142.909 92.8377 142.364 93.0187C142.182 93.0187 141.818 93.1996 141.636 93.1996C141.091 93.3806 140.727 93.3806 140.182 93.5616C140 93.5616 139.818 93.7425 139.455 93.7425C138.727 93.9235 138 93.9235 137.455 94.1045C137.455 93.9235 137.273 93.9235 137.273 93.7425C137.091 93.5616 137.091 93.3806 136.909 93.3806C136.909 93.5616 136.909 93.9235 136.909 93.9235V94.1045C126 95.5522 115.455 93.1996 106.727 87.9515C106.182 87.5896 105.455 87.2276 104.909 86.8657C104.182 86.5037 103.636 85.9608 103.091 85.5989C103.091 85.5989 103.091 85.5989 102.909 85.4179C102.364 85.056 101.818 84.5131 101.273 84.1511L101.091 83.9702C100.545 83.6082 100.182 83.0653 99.6364 82.7034L99.4546 82.5224C98.9091 82.1605 98.5455 81.6175 98 81.2556C97.8182 81.2556 97.8182 81.0746 97.8182 80.8937C97.4546 80.5317 96.9091 79.9888 96.5455 79.6269C96.3637 79.4459 96.3637 79.4459 96.1818 79.2649C95.8182 78.903 95.4546 78.3601 95.0909 77.9981C94.9091 77.8172 94.9091 77.6362 94.7273 77.6362C94.3637 77.2743 94 76.7314 93.6364 76.3694C93.4546 76.1884 93.4546 76.0075 93.2727 75.8265C92.9091 75.4646 92.7273 74.9217 92.3637 74.5597C92.1818 74.3787 92.1818 74.1978 92 74.0168C91.8182 73.6549 91.4546 73.2929 91.2728 72.75C91.0909 72.569 90.9091 72.2071 90.9091 72.0261C90.7273 71.6642 90.3637 71.3022 90.1818 70.7593C90 70.5784 89.8182 70.2164 89.8182 70.0355C89.6364 69.6735 89.4546 69.3116 89.2727 68.9496C89.0909 68.5877 89.0909 68.4067 88.9091 68.0448C88.7273 67.6828 88.5455 67.3209 88.3637 66.959C88.1818 66.597 88.1818 66.2351 88 66.0541C87.8182 65.6922 87.6364 65.3302 87.6364 64.9683C87.4546 64.6064 87.4546 64.2444 87.2728 63.8825C87.0909 63.5205 87.0909 63.1586 86.9091 62.7967C86.7273 62.4347 86.7273 61.8918 86.5455 61.5299C86.5455 61.1679 86.3637 60.806 86.1818 60.625C86 60.0821 86 59.7202 85.8182 59.1772C85.6364 58.2724 85.6364 57.9105 85.6364 57.5485Z" fill="#D7D2D1"/>
<path d="M86.3637 51.3955C86.3637 51.7575 86.5455 51.9384 86.9091 52.3004C86.9091 51.7575 87.0909 51.3955 87.0909 51.2145C86.9091 50.8526 86.5455 50.4907 86.3637 49.9478C86.1818 50.4907 86.1818 51.0336 86.3637 51.3955Z" fill="#D7D2D1"/>
<path d="M129.455 22.8023C129.455 22.9832 129.455 23.1642 129.273 23.5261C129.091 23.1642 128.909 22.9832 128.909 22.8023C128.909 22.6213 128.909 22.6213 128.909 22.4403C128.909 22.4403 128.909 22.4403 128.727 22.4403C128.727 22.6213 128.546 22.6213 128.546 22.6213C128.182 22.8023 127.636 22.9832 127.091 23.1642C127.273 22.9832 127.273 22.8023 127.273 22.4403C126.909 22.4403 126.546 22.4403 126.182 22.6213C126 22.6213 126 22.6213 125.818 22.6213C125.818 22.8023 125.818 22.9832 125.636 22.9832C125.273 23.1642 124.727 23.3452 124.364 23.7071C124.182 23.8881 124.182 24.25 124.182 24.612C124.909 24.431 125.818 24.25 126.546 24.0691C127.455 23.8881 128.364 23.8881 129.455 23.8881C129.636 23.7071 129.636 23.3452 129.818 22.9832C130.182 22.9832 130.546 22.9832 130.727 22.9832C130.727 22.8023 130.727 22.4403 130.727 22.2594C130.909 22.4403 130.909 22.6213 130.909 22.8023C130.909 22.8023 130.909 22.8023 130.909 22.9832C131.091 22.9832 131.273 22.9832 131.273 23.1642C131.455 23.3452 131.273 23.5261 131.273 23.8881C132.364 23.8881 133.455 24.0691 134.546 24.25C134.546 24.25 134.546 24.25 134.727 24.25C140.727 25.3358 146.182 28.7743 149.818 33.6605C150 33.6605 150.182 33.4795 150.364 33.4795C150.364 33.6605 150.182 34.0224 150.182 34.2034C150.909 35.2892 151.636 36.375 152.182 37.6418C152.546 37.4608 152.727 37.4608 152.909 37.4608C153.273 37.6418 153.818 37.8228 154.182 37.8228C149.818 28.0504 140 21.7164 129.091 22.2594C129.455 22.6213 129.455 22.6213 129.455 22.8023Z" fill="#D7D2D1"/>
<path d="M105.091 42.166C105.273 42.166 105.455 42.166 105.818 42.166C105.636 42.347 105.455 42.347 105.091 42.528C104.909 43.2519 104.727 44.1567 104.546 44.8806C104.727 44.8806 104.909 45.0616 105.091 45.0616C104.909 45.2425 104.727 45.2425 104.546 45.4235C104.364 47.4142 104.364 49.5858 104.546 51.7575C104.727 52.4813 104.909 53.2052 105.273 53.9291C105.455 54.291 106.182 54.472 106.546 54.653C106.182 55.3769 106 56.1007 105.636 56.4627C106 57.9104 106.546 59.1772 107.273 60.444C107.818 60.2631 108.546 60.0821 109.091 60.0821C107.818 57.7295 106.909 55.0149 106.364 52.3004C104.727 41.6231 110.364 31.4888 119.636 26.9645C119.818 26.2407 120.182 25.5168 120.364 24.6119C120 24.7929 119.455 24.9739 119.091 25.1548C119.091 25.3358 118.909 25.5168 118.909 25.6978L118.727 25.5168C118.364 25.6978 118 25.8787 117.636 26.0597V26.2407C117.636 26.2407 117.636 26.2407 117.636 26.0597C111.273 29.4981 106.727 35.2892 105.091 42.166Z" fill="#D7D2D1"/>
<path d="M121.091 25.1549C121.091 25.5168 121.273 25.6978 121.455 26.0597C122.364 25.6978 123.273 25.3358 124.364 25.1549C124 24.9739 123.636 24.7929 123.455 24.431C123.273 23.8881 123.636 23.5261 124 23.5261C124.182 23.5261 124.364 23.3452 124.546 23.3452C123.455 23.7071 122.182 24.069 121.091 24.431C120.909 24.431 120.909 24.7929 121.091 25.1549Z" fill="#D7D2D1"/>
<path d="M154.909 42.347C155.273 42.347 155.455 42.347 155.818 42.166C156 42.8899 156.182 43.6138 156.364 44.3377C157.636 52.3003 155.091 60.0821 150 65.6921C150 65.3302 150 64.9683 150 64.7873C149.818 64.6063 149.818 64.4253 149.636 64.4253L149.455 64.6063C149.455 65.1492 149.455 65.8731 149.455 66.416C145.818 70.2164 141.091 72.9309 135.636 74.0168C135.455 73.6548 135.091 73.2929 134.727 72.9309C134.727 72.9309 134.545 73.1119 134.545 73.2929C134.545 73.6548 134.545 73.8358 134.727 74.1977C134.545 74.1977 134.545 74.1977 134.364 74.1977C132 74.5597 129.636 74.5597 127.273 74.1977C127.273 74.0168 127.273 74.0168 127.273 73.8358C127.273 73.4739 127.091 72.9309 127.091 72.388C129.455 72.75 131.818 72.75 134.182 72.388C147.455 70.3974 156.545 57.9104 154.545 44.6996C154.545 44.5186 154.545 44.5186 154.545 44.3377C155.455 44.1567 155.273 43.7947 154.909 42.347Z" fill="#D7D2D1"/>
<path d="M114.909 69.4925C114.909 69.1306 114.727 68.7687 114.727 68.5877C114.909 69.1306 115.273 69.4925 115.455 70.0354C116 70.3974 116.546 70.7593 117.273 71.1213C117.273 70.3974 117.091 69.6735 117.091 68.9496C117.091 68.9496 117.091 68.9496 117.091 68.7687C113.818 66.778 111.273 63.8825 109.273 60.625C107.636 60.9869 107.636 61.3489 108.909 63.3396C109.091 63.5205 109.091 63.7015 109.273 63.8825C110.909 66.0541 112.909 68.0448 114.909 69.4925Z" fill="#D7D2D1"/>
<path d="M120.546 70.5784C120.364 70.7593 120.182 71.1213 120.182 71.3023C120.546 71.1213 120.727 70.9403 121.091 70.9403V71.1213C121.273 71.4832 121.455 72.2071 121.455 72.569C121.455 72.75 121.455 72.931 121.273 72.931C120.182 72.569 119.273 72.0261 118.364 71.6642C118.364 70.9403 118.182 70.2164 118.182 69.6735C118.182 69.6735 118.182 69.6735 118.182 69.4926C118.909 69.8545 119.818 70.2164 120.546 70.5784Z" fill="#D7D2D1"/>
<path d="M96.5455 38.9086C96.1819 38.9086 96.0001 38.9086 95.8182 39.0895C99.091 26.7836 108.909 16.8302 121.818 13.7537C121.818 13.9347 121.636 14.1157 121.636 14.1157C121.636 14.4776 121.636 14.8395 121.636 15.2015C109.818 18.278 100.909 27.3265 97.4546 38.3657C97.091 38.7276 96.7273 38.9086 96.5455 38.9086Z" fill="#D7D2D1"/>
<path d="M126.727 12.8489C128.364 12.6679 130 12.6679 131.636 12.6679L131.818 12.8489C132.182 13.2108 132.727 13.3918 133.273 13.2108C133.455 13.0298 133.636 13.0298 133.818 12.8489C133.818 12.8489 133.636 12.8489 133.636 12.6679C140.364 13.2108 146.545 15.5634 151.818 19.3638C151.273 19.5448 150.727 19.9067 150.182 20.0877C143.636 15.5634 135.273 13.2108 126.727 14.1157C126.727 14.1157 126.727 14.1157 126.727 13.9347C126.909 13.7537 126.909 13.2108 126.727 12.8489Z" fill="#D7D2D1"/>
<path d="M129.273 13.3918C129.455 13.5728 129.636 13.7537 129.818 13.9347C129.818 13.7537 129.818 13.5728 129.818 13.5728C129.818 13.3918 129.636 13.2108 129.455 13.0298C129.455 13.2108 129.455 13.2108 129.273 13.3918Z" fill="#D7D2D1"/>
<path d="M162.727 64.4254C162.727 64.4254 162.546 64.4254 162.546 64.6064C162.546 64.2444 162.364 63.8825 162.364 63.7015C162.364 63.5205 162.364 63.3396 162.546 62.9776C162.546 63.5205 162.727 63.8825 162.727 64.4254C165.818 57.9105 167.273 50.6716 166 43.0709C165.636 40.1754 164.727 37.4608 163.818 34.9272C163.455 35.2892 163.273 35.6511 162.909 36.194C162.909 36.194 162.909 36.194 162.727 36.194L162.546 36.375C162.909 37.4608 163.273 38.5466 163.636 39.6325C163.818 39.6325 163.818 39.6325 163.818 39.6325C164 39.8134 164 39.9944 164.182 40.3564C164.182 40.3564 164 40.5373 163.818 40.5373C164 41.6231 164.364 42.528 164.364 43.6138C164.364 44.1567 164.546 44.6996 164.546 45.2425C164.727 45.2425 165.091 45.2425 165.273 45.0616C165.091 45.4235 164.909 45.9664 164.727 46.3284C165.636 59.5392 158.909 71.8452 148 78.3601C144.909 80.1698 141.455 81.6175 137.818 82.3414C137.455 82.8843 137.273 83.0653 136.909 83.4272C136.909 83.2463 136.727 83.0653 136.727 82.8843C136.727 82.7034 136.727 82.7034 136.727 82.5224C136.364 82.5224 136 82.7034 135.455 82.7034C132.909 83.0653 130.546 83.2463 128 83.0653C128.182 83.4273 128.364 83.6082 128.727 83.9702C128.727 84.1511 128.909 84.3321 128.909 84.5131C131.091 84.5131 133.273 84.5131 135.455 84.1511C135.455 83.9702 135.273 83.9702 135.273 83.7892C135.273 83.6082 135.273 83.4272 135.455 83.4272C135.818 83.6082 136.364 83.6082 136.546 83.9702C148.364 81.6175 157.818 74.1978 162.727 64.4254Z" fill="#D7D2D1"/>
<path d="M96.9092 56.6436C96.7273 55.5578 96.3637 54.653 96.3637 53.5672C96.0001 51.2145 95.8182 48.8619 96.0001 46.5093C95.4546 46.5093 95.091 46.1474 94.5455 46.1474C94.7273 45.9664 95.091 45.7854 95.4546 45.4235C95.6364 45.6045 95.8182 45.6045 96.0001 45.7854C96.1819 44.5186 96.1819 43.2519 96.5455 41.9851C96.1819 41.8041 96.0001 41.6231 95.6364 41.4421C96.0001 41.2612 96.3637 40.8992 96.7273 40.7183C96.9092 40.3563 96.9092 39.9944 96.9092 39.8134C96.9092 39.8134 96.9092 39.8134 96.7273 39.8134C96.5455 39.8134 96.1819 39.6324 96.0001 39.6324C95.8182 39.8134 95.4546 39.9944 95.2728 40.1754C94.9092 41.6231 94.7273 43.2519 94.5455 44.6996C94.7273 44.6996 94.9092 44.6996 95.091 44.6996C95.091 44.6996 95.091 44.8806 95.2728 44.8806C95.2728 45.0616 95.2728 45.2425 95.091 45.2425C94.9092 45.4235 94.7273 45.7854 94.3637 45.7854C94.3637 46.3283 94.1819 47.0522 94.1819 47.5951C94.1819 47.5951 94.1819 47.5951 94.3637 47.5951C94.5455 47.5951 94.7273 47.7761 95.091 47.7761C95.091 47.9571 95.091 48.138 94.9092 48.138C94.7273 48.319 94.5455 48.319 94.1819 48.5C94.1819 50.1287 94.3637 51.9384 94.5455 53.5672C94.7273 54.291 94.7273 54.8339 94.9092 55.5578C95.8183 56.1007 96.3637 56.2817 96.9092 56.6436Z" fill="#D7D2D1"/>
<path d="M121.818 13.5728C121.818 13.7537 122 13.9347 122 13.9347C122 14.2966 122 14.6586 122.182 15.0205C123.273 14.8395 124.182 14.4776 125.273 14.4776H125.455C125.455 14.2966 125.273 14.1157 125.273 13.9347L125.636 13.3918C126 13.7537 126.182 13.5728 126.364 13.2108C126.364 13.0298 126.364 13.0298 126.364 12.8489C126 12.8489 125.455 13.0298 124.909 13.0298C124 13.2108 122.909 13.3918 121.818 13.5728Z" fill="#D7D2D1"/>
<path d="M150.909 20.8116C152.546 22.0784 154 23.3452 155.455 24.7929C155.636 24.612 156.364 24.7929 156.364 24.9739C156.364 25.6978 156.546 26.0597 157.273 25.8788C157.636 25.8788 157.818 25.6978 158.182 25.5168C156.364 23.3452 154.546 21.5355 152.364 19.9067C151.818 20.4496 151.455 20.6306 150.909 20.8116Z" fill="#D7D2D1"/>
<path d="M95.4546 56.6437C95.8182 56.8246 96.1819 56.8246 96.7273 57.0056C96.9091 57.0056 96.9091 57.0056 97.091 57.0056C100.727 71.3023 113.091 81.4366 127.455 82.7034L127.636 82.8843C127.636 83.2463 127.273 83.9702 127.455 84.1511C112 82.8844 98.9091 71.8452 95.4546 56.6437Z" fill="#D7D2D1"/>
<path d="M160 30.7649C160.182 30.7649 160.364 30.7649 160.364 30.7649C160.364 30.9459 160.182 30.9459 160.182 31.1269C160.909 32.5746 161.636 34.0224 162.364 35.4701C162.727 35.1082 163.091 34.5653 163.636 34.3843C162.364 31.3078 160.727 28.5933 158.546 26.0597C158.182 26.4216 157.818 26.6026 157.273 26.9645C158.364 28.2313 159.273 29.4981 160 30.7649Z" fill="#D7D2D1"/>
<path d="M61.2728 43.4328C66.5455 43.2519 69.6364 44.1567 72.7274 45.0616C75.8183 45.9664 78.9092 46.8713 84.0001 46.8713C84.0001 46.6903 84.0001 46.6903 84.1819 46.6903C84.3637 46.6903 84.7274 46.8713 84.9092 46.8713C85.6364 46.8713 86.1819 46.8713 86.9092 46.6903L86.7274 45.4235C84.3637 45.6045 82.3637 45.6045 80.7274 45.4235C80.5455 45.6045 80.3637 45.6045 80.1819 45.7854C80.0001 45.6045 79.8183 45.4235 79.8183 45.4235C78.0001 45.2425 76.3637 44.8806 74.9092 44.5187C74.1819 44.6996 73.6364 44.8806 72.9092 44.8806C72.1819 44.8806 71.4546 44.6996 70.9092 44.6996C71.2728 44.3377 71.8183 43.9757 72.3637 43.6138C69.4546 42.709 66.1819 41.9851 61.091 42.166C60.9092 42.7089 60.9092 43.0709 61.2728 43.4328Z" fill="#D7D2D1"/>
<path d="M58.9091 43.4328C53.6364 44.1567 50.7273 45.4235 47.8182 46.8712C44.9091 48.138 42.0001 49.5858 36.9091 50.3097L36.7273 50.1287C36.5455 50.3097 36.1819 50.3097 36.0001 50.4906C35.2728 50.4906 34.7273 50.6716 34.0001 50.6716L33.8182 49.4048C36.1819 49.2239 38.1819 48.8619 39.8182 48.5C40.0001 48.5 40.1819 48.6809 40.3637 48.6809C40.3637 48.5 40.5455 48.319 40.7273 48.138C42.5455 47.5951 44.0001 47.0522 45.4546 46.3283C46.1819 46.3283 46.7273 46.3283 47.4546 46.5093C48.1819 46.3283 48.9091 46.1474 49.4546 45.9664C48.9091 45.7854 48.3637 45.4235 48.0001 45.2425C50.7273 43.9757 53.8182 42.7089 58.9091 42.166C59.2728 42.7089 59.4546 43.0709 58.9091 43.4328Z" fill="#D7D2D1"/>
<path d="M108.727 38.7276C108.545 38.9086 108.727 38.9086 108.727 38.7276C109.091 39.0895 109.636 39.2705 109.636 39.4515V39.6325C110.364 39.4515 111.091 39.4515 111.818 39.4515C112 39.2705 112 39.0895 112.182 38.9086C112.182 38.7276 112.182 38.7276 112.182 38.5466H112.364C112.364 38.3657 112.545 38.1847 112.545 38.0037C112.364 38.0037 112.364 38.0037 112.182 38.0037C110.727 38.1847 109.636 38.1847 108.364 38.5466C108.364 38.5466 108.364 38.5466 108.364 38.7276C108.545 38.7276 108.545 38.7276 108.727 38.7276Z" fill="#D7D2D1"/>
<path d="M83.6364 46.1474C83.091 46.3283 82.3637 46.6903 81.8182 46.8713C82.9091 46.8713 84.0001 46.8713 85.2728 46.6903C92.3637 46.1474 95.8182 44.5186 99.091 42.8899C101.818 41.6231 104.364 40.3563 108.546 39.6325V39.4515C108.546 39.2705 108.546 38.9086 108.727 38.7276H108.546C108.546 38.7276 108.546 38.5466 108.364 38.5466C108.182 38.5466 108.182 38.5466 108 38.5466C105.818 38.9086 104 39.4515 102.546 39.9944C102.546 39.9944 102.546 39.9944 102.546 40.1754C102.182 40.3563 101.636 40.5373 101.273 40.7183C100.182 41.0802 99.2728 41.6231 98.1819 42.166C94.9091 43.7948 91.8182 45.2425 85.091 45.7854C84.3637 45.7854 83.6364 45.9664 82.9091 45.9664C83.2728 45.7854 83.6364 46.1474 83.6364 46.1474Z" fill="#D7D2D1"/>
<path d="M112.182 38.5467C112.182 38.7276 112 38.7276 112 38.9086C112 39.0896 112 39.2705 112 39.4515C118.727 38.9086 122 39.9944 125.455 40.8993C128.545 41.8041 131.636 42.709 137.091 42.709C138.182 42.528 139.091 42.1661 139.636 41.6232V41.2612C132.909 41.8041 129.636 40.7183 126.182 39.8134C122.909 38.9086 119.636 37.8228 113.818 38.1847C114 38.3657 114.182 38.5467 114.364 38.9086C113.818 38.5467 112.909 38.5467 112.182 38.5467Z" fill="#D7D2D1"/>
<path d="M116.909 62.7966C118 62.7966 119.091 62.7966 120 62.7966C120.182 62.9776 120.546 63.3395 120.727 63.5205C120.727 63.5205 120.727 63.5205 120.546 63.5205L120.364 63.7015C119.636 63.8825 118.909 63.8825 118.182 64.0634C116.909 64.0634 115.455 64.0634 113.818 64.2444C112.546 63.8825 111.091 63.7015 109.818 63.3395C111.091 63.1586 112.364 62.9776 113.818 62.7966C114.364 62.7966 114.727 62.7966 115.091 62.7966C114.909 62.9776 114.909 62.9776 114.727 63.1586C115.636 62.9776 116.182 62.9776 116.909 62.7966Z" fill="#D7D2D1"/>
<path d="M120.909 63.7015C122 63.8825 123.455 64.2444 124 63.8824C124.182 63.7015 124.546 63.7015 124.727 63.5205C126 63.8824 127.091 64.0634 128.182 64.4254C131.636 65.5112 135.091 66.416 141.636 65.8731L141.818 67.1399C134.727 67.6828 131.091 66.597 127.636 65.5112C125.455 64.7873 123.273 64.2444 120.182 63.8824C120.364 63.7015 120.364 63.5205 120.546 63.3395C120.546 63.7015 120.727 63.7015 120.909 63.7015Z" fill="#D7D2D1"/>
<path d="M100 68.4067C96.9091 69.8545 93.4546 71.3022 87.2728 71.6642C86.3637 71.6642 85.4546 71.8451 84.7273 71.8451C84.7273 71.6642 84.9091 71.4832 84.9091 71.3022C84.1818 71.4832 83.6364 71.6642 82.9091 71.8451C78.5455 71.6642 75.8182 70.9403 73.0909 70.0354C69.6364 68.9496 66.1818 68.0448 59.6364 68.5877C57.8182 68.7686 56.3637 68.9496 54.9091 69.1306C55.0909 68.7686 55.2727 68.5877 55.4546 68.0448C55.2727 68.0448 54.9091 67.8638 54.7273 67.8638C56.1818 67.5019 57.8182 67.3209 59.6364 67.1399C66.7273 66.597 70.3637 67.6828 73.8182 68.7686C75.4546 69.3116 77.2727 69.8545 79.2727 70.0354C79.4546 70.0354 79.6364 70.0354 79.6364 70.2164C81.6364 70.5783 84 70.5783 87.2728 70.3974C94 69.8545 97.0909 68.4067 100.364 66.778C102.545 65.6922 104.909 64.6063 108.182 63.8824C108 64.0634 107.818 64.0634 107.636 64.2444C108.182 64.4254 108.727 64.9683 109.273 64.7873C109.818 64.7873 110.182 64.7873 110.545 64.7873C106.364 65.5112 103.818 66.597 101.273 67.8638C101.273 67.8638 101.273 67.8638 101.091 67.8638H100.909C100.364 68.0448 100.182 68.2257 100 68.4067Z" fill="#D7D2D1"/>
<path d="M104.182 28.0504C106 27.5075 108.182 27.1455 111.091 26.9645C112.909 26.7836 114.546 26.7836 116 26.7836C116.182 26.6026 116.182 26.6026 116.364 26.4216C116.546 26.6026 116.909 26.7836 117.091 26.7836C120.182 26.9645 122.364 27.6884 124.727 28.4123C126 28.7742 127.273 29.1362 128.727 29.4981C129.091 29.1362 129.455 28.7742 130 28.4123C128.364 28.0504 126.909 27.6884 125.455 27.3265C121.818 26.2407 118.182 25.1548 111.273 25.6978C107.273 26.0597 104.546 26.6026 102.182 27.5075C103.273 27.5075 103.818 27.8694 104.182 28.0504Z" fill="#D7D2D1"/>
<path d="M133.636 29.6791C133.273 29.8601 132.909 30.041 132.546 30.041C133.636 30.041 134.727 30.222 136.182 30.222H136.364C137.091 30.222 138 30.222 138.727 30.041L138.546 28.7742C136 28.9552 134 28.9552 132.182 28.7742C132.546 28.9552 132.727 29.1362 133.636 29.6791Z" fill="#D7D2D1"/>
<path d="M36.3636 37.4608C39.2727 36.737 41.4546 35.6511 43.4546 34.7463C44.3636 34.3844 45.2727 33.8414 46.1818 33.4795C46.3636 33.2985 46.7273 33.1176 46.9091 32.9366C47.0909 32.9366 47.0909 33.1176 47.2727 33.1176C48.3636 32.7556 49.8182 32.2127 51.2727 31.8508C50.9091 31.6698 50.7273 31.6698 50.3636 31.4888C49.8182 31.3079 49.4546 31.1269 49.0909 30.9459C46.5455 31.6698 44.5455 32.5747 42.7273 33.4795C40.9091 34.3844 39.2727 35.1082 37.0909 35.8321C36.5455 36.375 36.3636 36.9179 36.3636 37.4608Z" fill="#D7D2D1"/>
<path d="M53.2728 31.4888C54.3637 31.3078 55.2728 31.1268 56.5455 31.1268H56.7273C56.7273 31.1268 56.7273 31.1268 56.9092 31.1268C58.5455 30.222 60.5455 30.222 62.3637 30.7649C62.9092 30.9459 63.4546 31.1268 64.0001 31.4888C65.091 31.6698 66.0001 31.8507 66.9092 32.0317C67.4546 31.8507 68.0001 31.6698 68.5455 31.3078C69.4546 31.8507 70.3637 32.5746 71.6364 33.2985C74.7273 34.2033 78.3637 34.9272 84.1819 34.3843C89.2728 34.0224 92.5455 32.9365 95.091 31.8507C96.5455 31.1268 95.4546 28.9552 99.2728 29.6791C99.8182 29.1362 100 28.5933 99.8182 28.2313C98.9092 28.5933 98.0001 28.9552 97.2728 29.4981C94.0001 31.1268 90.9092 32.5746 84.5455 33.1175C83.6364 33.6604 82.7273 34.0224 81.8182 34.5653C81.6364 34.7462 80.7273 34.3843 79.091 34.0224C79.4546 33.8414 79.8182 33.6604 80.1819 33.2985C79.6364 33.2985 78.9092 33.2985 78.3637 33.2985C78.5455 33.2985 78.5455 33.4795 78.7273 33.4795C78.0001 33.8414 76.7273 34.3843 76.5455 34.3843C75.6364 33.8414 74.9092 33.2985 74.0001 32.5746C72.7273 32.2127 71.6364 32.0317 70.5455 31.6698C66.9092 30.5839 63.2728 29.4981 56.3637 30.041C54.7273 30.222 53.4546 30.403 52.1819 30.5839C52.5455 30.7649 52.9092 31.1268 53.2728 31.4888Z" fill="#D7D2D1"/>
<path d="M34 36.737C32.7273 36.9179 31.2727 37.0989 29.6364 37.2799C29.6364 37.4608 29.6364 37.6418 29.6364 37.8228C29.0909 37.6418 28.3636 37.4608 27.8182 37.2799C22.3636 37.4608 19.2727 36.556 16 35.6511C15.0909 35.4702 14.3636 35.1082 13.4545 34.9273C13.0909 35.1082 12.7273 35.2892 12.5455 35.4702C12.3636 35.2892 11.8182 35.1082 12 35.1082C12.1818 34.9273 12.3636 34.7463 12.5455 34.5653C10.9091 34.3843 9.27273 34.2034 7.45455 34.0224C7.27273 34.2034 7.09091 34.5653 6.90909 34.7463C6.90909 34.9273 6.90909 34.9273 6.90909 35.1082C6.72727 35.1082 6.72727 35.1082 6.54545 35.1082C6.36364 35.1082 6.18182 35.2892 6 35.2892C10 35.2892 12.5455 36.194 15.2727 36.9179C18.9091 38.0037 22.5455 39.0896 29.4545 38.5467C30.9091 38.3657 32.3636 38.1847 33.6364 38.0037C33.6364 37.6418 33.8182 37.0989 34 36.737Z" fill="#D7D2D1"/>
<path d="M71.4546 57.0056C71.2728 57.1865 71.0909 57.1865 71.0909 57.3675C71.4546 57.3675 71.6364 57.5485 72 57.5485C75.6364 58.6343 79.2728 59.7201 86.1819 59.1772C86.3637 59.1772 86.5455 59.1772 86.5455 59.1772C87.8182 58.4533 88.7273 58.0914 89.4546 57.7295C89.4546 58.0914 89.8182 58.4533 89.6364 58.6343C89.6364 58.6343 89.6364 58.6343 89.6364 58.8153C94.3637 58.0914 97.091 56.8246 99.8182 55.3768C100.364 55.0149 101.091 54.8339 101.636 54.472C101.636 53.9291 101.636 53.5671 101.455 53.0242C100.546 53.3862 99.8182 53.7481 98.9091 54.1101C95.6364 55.7388 92.5455 57.1865 85.8182 57.7295C79.091 58.2724 75.8182 57.1865 72.3637 56.2817C71.4546 55.9198 70.5455 55.7388 69.4546 55.3768C70.5455 56.2817 71.6364 57.0056 71.4546 57.0056Z" fill="#D7D2D1"/>
<path d="M126.545 53.3862C129.455 54.291 132.364 55.0149 137.091 55.1959C137.091 55.0149 137.091 54.8339 137.273 54.8339C138.545 54.472 138.727 54.1101 138.545 53.9291C133.273 54.1101 130.364 53.2052 127.091 52.3004C125.818 51.9384 124.545 51.5765 122.909 51.2145C122.545 51.5765 122.364 51.9384 122 52.4813C123.818 52.4813 125.273 53.0242 126.545 53.3862Z" fill="#D7D2D1"/>
<path d="M104.364 53.5672C106.545 52.8433 109.273 52.1194 113.091 51.7575C116.909 51.3955 119.818 51.7575 122 52.1194C122.364 51.7575 122.545 51.2145 122.909 50.8526C121.636 50.6716 120.182 50.4907 118.545 50.3097C118.545 50.4907 118.545 50.4907 118.545 50.6716C118.364 50.6716 117.818 51.0336 117.273 51.2145C116 51.2145 114.909 51.2145 113.818 51.0336C113.273 51.0336 112.909 50.8526 112.364 50.6716C109.636 50.8526 107.455 51.3955 105.636 51.9384C105.273 52.4813 104.909 53.0242 104.545 53.3862C104.364 53.3862 104.364 53.5672 104.364 53.5672Z" fill="#D7D2D1"/>
<path d="M9.63647 60.2631C13.2728 60.4441 15.6365 61.1679 18.1819 61.8918C19.8183 62.4347 21.6365 62.7967 23.6365 63.1586C23.8183 63.1586 24.0001 62.9776 24.0001 62.9776C24.3637 63.1586 24.5456 63.1586 24.7274 63.3396C26.7274 63.5206 29.2728 63.7015 32.3637 63.5205C32.9092 63.5205 33.4547 63.3396 33.8183 63.3396C34.0001 63.3396 34.1819 63.1586 34.3637 63.1586C34.5456 63.1586 34.7274 63.1586 34.7274 63.1586C40.1819 62.4347 43.091 60.987 46.0001 59.7202C49.2728 58.0914 52.3638 56.6437 59.091 56.1008C63.091 55.7388 65.8183 56.1008 68.1819 56.4627L68.0001 55.015C67.2728 54.834 66.5456 54.834 65.6365 54.653C65.8183 54.834 65.8183 54.834 66.0001 55.015C65.4547 55.1959 64.7274 55.3769 63.6365 55.9198C62.5456 55.5579 61.2728 55.1959 60.1819 54.653C59.8183 54.653 59.4547 54.653 58.9092 54.653C56.0001 54.834 53.6365 55.3769 51.8183 55.9198C49.091 56.6437 47.2728 57.5485 45.2728 58.4534C43.091 59.5392 40.9092 60.4441 37.8183 61.1679C38.5456 61.3489 39.2728 61.5299 40.0001 61.7108C39.6365 61.8918 39.091 62.0728 38.7274 62.0728C38.1819 62.0728 37.4547 61.8918 36.9092 61.8918C37.091 61.5299 37.2728 61.3489 37.4547 61.3489C36.0001 61.7109 34.3637 61.8918 32.3637 62.0728C25.6365 62.6157 22.3637 61.5299 18.9092 60.625C16.7274 59.9011 14.3637 59.3582 11.2728 58.9963C10.7274 59.3582 10.1819 59.7202 9.63647 60.2631ZM50.7274 56.6437C50.9092 56.8247 51.091 57.1866 51.091 57.1866C50.7274 57.3676 50.1819 57.5485 49.8183 57.7295C49.6365 57.5485 49.6365 57.3676 49.4547 57.0056C49.8183 57.0056 50.3637 56.8247 50.7274 56.6437Z" fill="#D7D2D1"/>
<path d="M52.7273 68.2258C49.8182 68.9496 47.6364 69.8545 45.4546 70.9403C42.1819 72.5691 39.091 74.0168 32.3637 74.5597C30.3637 74.7407 28.7273 74.7407 27.091 74.5597C27.2728 74.7407 27.4546 74.7407 27.6364 75.1026C26.9091 75.2836 26.3637 75.4646 25.8182 75.6455C25.4546 75.6455 24.9091 75.4646 24.5455 75.4646C25.2728 75.1026 26.0001 74.9217 26.7273 74.5597C23.4546 74.3788 21.2728 73.6549 18.9091 72.931C16.9091 72.3881 14.7273 71.6642 12.0001 71.4832C10.0001 71.3023 7.63642 71.1213 4.72733 71.4832C4.36369 71.4832 4.00006 71.4832 3.81824 71.6642L4.00006 72.931C4.36369 72.931 4.72733 72.931 4.90915 72.75C11.4546 72.2071 14.9091 73.2929 18.3637 74.1978C21.4546 75.1026 24.7273 76.0075 30.0001 76.0075C30.1819 76.0075 30.3637 76.0075 30.3637 76.0075C30.5455 76.0075 30.7273 76.0075 30.9091 76.0075C31.4546 76.0075 31.8182 76.0075 32.3637 76.0075C35.4546 75.8265 37.8182 75.2836 39.8182 74.7407C40.0001 74.5597 40.3637 74.3788 40.5455 74.1978C40.7273 74.1978 40.9091 74.3788 41.091 74.3788C43.091 73.6549 44.7273 72.931 46.1819 72.2071C48.5455 71.1213 50.9091 70.0355 54.3637 69.3116C54.0001 68.9496 53.2728 68.5877 52.7273 68.2258ZM14.5455 72.931C14.0001 72.931 13.4546 72.75 13.2728 72.569C13.091 72.569 13.4546 72.2071 13.4546 72.0261C14.0001 72.0261 14.3637 72.2071 14.9091 72.2071C14.5455 72.5691 14.5455 72.75 14.5455 72.931Z" fill="#D7D2D1"/>
<path d="M28.9091 49.7668C23.2727 49.9478 20.3636 49.0429 17.0909 48.1381C14.1818 47.2332 11.0909 46.3284 6.18182 46.3284C6.18182 46.6903 6.18182 47.0522 6 47.5952C7.09091 47.5952 8.18182 47.5952 9.27273 47.7761C9.45455 47.5952 9.63636 47.4142 9.81818 47.2332C10.3636 47.2332 10.7273 47.4142 11.0909 47.4142C10.9091 47.5952 10.7273 47.7761 10.3636 47.9571C12.7273 48.319 14.5455 48.8619 16.3636 49.4049C19.6364 50.3097 22.9091 51.3955 28.5455 51.0336C29.0909 50.6717 29.2727 50.3097 28.9091 49.7668Z" fill="#D7D2D1"/>
</svg>
