<svg width="64" height="142" viewBox="0 0 64 142" fill="none" xmlns="http://www.w3.org/2000/svg">
<g opacity="0.5">
<path d="M-65.8904 54.2332C-66.4237 54.2332 -66.6904 54.4984 -67.2238 54.4984C-61.6234 34.3452 -45.6221 18.1696 -24.5538 12.8661C-24.5538 13.1313 -24.8205 13.3965 -24.8205 13.6617C-24.8205 14.192 -24.8205 14.9875 -24.8205 15.5179C-44.022 20.5562 -58.6898 35.4059 -64.2902 53.4377C-64.5569 53.968 -65.357 54.2332 -65.8904 54.2332ZM57.8526 68.0222C57.8526 69.6133 57.8526 71.4695 57.8526 73.0605C57.8526 72.7954 57.5859 72.7954 57.5859 72.7954C57.3192 73.0605 57.3192 73.5909 57.0525 73.8561C57.0525 73.8561 57.3192 74.1212 57.3192 74.3864L57.5859 74.1212C57.5859 75.4471 57.3192 76.773 57.3192 78.0988C57.3192 78.364 57.3192 78.6292 57.3192 78.8943C57.0525 79.955 57.0525 81.2809 56.7858 82.3416C56.7858 82.6068 56.7858 82.8719 56.7858 82.8719C56.2524 85.5237 55.7191 88.1754 54.6523 90.8272C54.1189 92.153 53.8523 93.4789 53.3189 94.5396V94.8048C51.7188 98.5172 49.8519 102.23 47.7184 105.942L46.9184 104.086C46.385 104.086 45.5849 104.086 45.0516 104.086C45.0516 104.351 44.7849 104.616 44.7849 104.616C45.5849 105.942 44.7849 106.472 43.4514 107.003C43.1848 107.003 42.9181 107.533 42.6514 107.798C42.9181 107.798 43.1848 108.063 43.4514 107.798C43.9848 107.798 44.5182 107.533 44.7849 107.798C45.5849 108.063 46.1183 108.063 46.385 107.533C45.5849 108.594 44.7849 109.654 43.9848 110.715C43.7181 110.98 43.7181 110.98 43.4514 111.246C42.9181 112.041 42.118 112.837 41.318 113.632C41.0513 113.897 41.0513 114.162 40.7846 114.428C39.9845 115.223 39.1844 116.284 38.3844 117.079L38.1177 117.345C36.2509 119.201 34.1174 121.057 31.9839 122.913L31.7172 123.178C30.6505 123.974 29.5837 124.769 28.517 125.565C26.1168 127.156 23.7166 128.747 21.3164 130.073C21.3164 129.808 21.3164 129.808 21.0497 129.542C20.2496 128.747 19.7163 127.686 18.9162 127.421C18.1161 127.156 17.3161 127.156 16.516 127.156C39.4511 116.284 54.1189 92.153 52.5188 66.166C52.7855 66.166 53.3189 66.166 53.5856 65.9008C53.5856 65.9008 53.5856 65.9008 53.8523 65.6357C53.8523 66.4312 54.3856 67.2267 54.6523 68.0222C54.919 68.8178 54.919 69.3481 54.919 70.1436C55.7191 69.6133 56.5191 69.0829 57.0525 68.5526C57.5859 68.2874 57.8526 68.0222 57.8526 68.0222ZM53.5856 68.8178C53.8523 68.5526 54.3856 68.2874 54.919 68.0222C54.3856 67.7571 54.3856 67.7571 54.1189 67.7571C53.8523 67.7571 53.3189 67.4919 53.3189 68.2874C53.3189 68.2874 53.5856 68.5526 53.5856 68.8178ZM57.3192 71.4695C57.0525 71.4695 56.7858 71.4695 56.5191 71.4695C56.5191 71.2043 56.5191 71.2043 56.5191 71.2043C56.2524 70.9391 55.9857 70.674 55.7191 70.4088C55.7191 70.674 55.7191 71.2043 55.7191 71.4695C55.7191 71.4695 55.7191 71.7347 55.9858 71.7347C55.7191 71.7347 55.4524 71.7347 55.4524 71.7347C55.4524 71.7347 55.1857 72.5302 54.919 73.5909C55.7191 73.3257 56.5191 73.3257 57.0525 72.7954C57.3192 72.5302 57.3192 71.7347 57.3192 71.4695ZM-24.8205 3.85025C-23.2204 3.58508 -21.8869 3.31991 -20.2868 3.05473C16.7827 -2.51391 51.4521 22.9427 57.0525 59.8019C57.3192 60.8625 57.3192 62.1884 57.5859 63.2491C57.5859 64.3098 57.8526 65.6357 57.8526 66.6964C57.5859 65.9008 57.5859 65.3705 57.3192 64.575C56.7858 64.575 56.2524 64.575 55.7191 64.3098C55.7191 64.0446 55.9858 63.7795 55.9858 63.5143C55.4524 63.5143 55.1857 63.2491 54.6523 63.2491C54.3856 64.0446 54.1189 64.575 54.1189 65.1053C53.8523 65.1053 53.8523 64.8402 53.8523 64.8402C53.5856 64.8402 53.3189 64.8402 53.0522 64.8402C53.0522 63.2491 52.7855 61.6581 52.5188 60.3322C50.9187 49.1949 46.385 39.1183 39.7178 30.8979C39.9845 30.6328 39.9845 30.3676 39.9845 30.3676C39.7178 30.1024 39.4511 30.1024 38.9178 30.1024C26.9168 15.2527 8.24873 6.23681 -11.7528 6.76716C-11.4861 5.97164 -11.4861 5.70647 -11.4861 5.70647C-11.7528 5.44129 -12.0195 5.44129 -12.2862 5.17612C-12.5529 5.70647 -12.5529 5.70647 -12.5529 5.97164C-12.2862 6.23681 -12.2862 6.50199 -12.0195 7.03233C-14.6864 7.03233 -17.0866 7.29751 -19.7534 7.82785C-25.0872 8.62337 -30.1542 10.2144 -34.9546 12.0706C-34.9546 11.2751 -35.2213 10.4796 -35.488 9.68407V9.4189C-35.488 9.15372 -35.7547 8.88855 -35.7547 8.62337C-35.7547 8.88855 -36.0214 9.15372 -36.0214 9.4189C-35.7547 10.4796 -35.7547 11.2751 -35.488 12.3358C-54.6895 20.5562 -68.5572 37.7925 -72.2908 58.2108C-72.5575 58.2108 -73.0909 58.7412 -73.3576 58.7412C-73.0909 59.0063 -73.0909 59.2715 -72.5575 59.5367C-72.8242 61.3929 -73.0909 62.9839 -73.0909 64.8402C-73.3576 64.3098 -73.3576 64.0446 -73.6243 63.7795C-73.6243 64.3098 -73.891 65.1053 -73.891 65.9008C-73.891 66.166 -73.6243 66.4312 -73.3576 66.9615C-73.3576 66.6964 -73.0909 66.6964 -73.0909 66.4312C-73.0909 66.6964 -73.0909 66.9615 -73.0909 66.9615C-74.4243 66.9615 -76.0245 67.2267 -77.3579 66.6964C-77.3579 66.6964 -77.8913 66.6964 -77.8913 66.9615C-77.6246 62.1884 -76.8245 57.4153 -75.7578 52.9073C-75.7578 52.9073 -75.4911 53.1725 -75.2244 53.4377C-74.9577 53.1725 -74.691 52.9073 -74.4243 52.6422C-74.691 52.6422 -74.9577 52.1118 -75.2244 52.377L-75.4911 52.6422C-74.4243 48.3994 -72.8242 44.4218 -70.9574 40.4442C-70.9574 40.4442 -70.9574 40.4442 -70.9574 40.179C-70.424 38.8532 -69.624 37.7925 -68.8239 36.4666C-68.8239 36.4666 -68.2905 36.7318 -68.0238 36.9969C-67.4905 36.4666 -67.2238 35.9362 -66.9571 35.4059C-67.2238 35.1407 -67.7572 34.8755 -68.0238 34.8755C-67.2238 33.5497 -66.4237 32.489 -65.6237 31.1631L-65.357 30.8979C-63.7569 28.5114 -61.89 26.39 -59.7565 24.0034C-59.4899 23.7383 -59.4899 23.7383 -59.2232 23.4731C-58.1564 22.4124 -57.3564 21.3517 -56.2896 20.5562C-56.0229 20.5562 -56.0229 20.8214 -56.0229 21.3517C-56.0229 21.6169 -55.7562 21.882 -55.7562 21.882C-55.4895 21.3517 -55.4895 21.0865 -55.2229 21.0865C-54.9562 20.8214 -55.2229 19.7607 -54.1561 20.0258C-54.1561 19.7607 -54.1561 19.4955 -54.1561 19.2303C-54.1561 18.9651 -54.1561 18.9651 -54.4228 18.9651C-52.2893 16.5786 -49.8891 14.9875 -47.2222 13.1313C-47.2222 13.1313 -46.9555 13.1313 -46.9555 12.8661C-44.5554 11.2751 -41.8885 9.94924 -38.9549 8.62337C-38.6882 8.62337 -38.6882 8.3582 -38.4216 8.3582C-37.3548 7.82785 -36.0214 7.29751 -34.9546 6.76716C-34.6879 6.76716 -34.4212 6.50199 -34.4212 6.50199C-33.0878 5.97164 -31.7544 5.44129 -30.1542 5.17612C-29.8876 5.17612 -29.6209 5.17612 -29.3542 4.91095C-28.2874 4.64577 -26.954 4.3806 -25.8872 3.85025C-25.3539 4.11543 -25.0872 3.85025 -24.8205 3.85025ZM-74.9577 60.5974C-75.2244 60.067 -75.7578 59.2715 -76.0245 58.7412C-76.0245 59.2715 -76.0245 60.067 -75.7578 60.5974C-75.7578 61.1277 -75.4911 61.3929 -74.9577 62.1884C-74.9577 61.3929 -74.691 60.8626 -74.9577 60.5974ZM-72.0242 55.8243C-72.2908 55.0287 -72.2908 54.7636 -72.5575 54.2332C-72.5575 54.7636 -72.8242 55.0287 -72.5575 55.5591C-72.5575 56.0894 -72.2908 56.3546 -72.2908 56.8849C-72.2908 56.6198 -72.2908 56.0894 -72.0242 55.8243ZM-70.424 49.9904C-70.6907 49.7253 -70.9574 49.4601 -71.2241 49.4601C-71.7575 49.4601 -72.0242 49.4601 -72.5575 49.7253V49.4601C-73.3576 49.7253 -73.891 49.9904 -74.691 50.5208C-74.1577 51.8467 -73.0909 50.786 -72.2908 50.786C-71.7575 50.786 -71.4908 50.786 -70.9574 50.5208C-70.6907 50.5208 -70.6907 50.2556 -70.424 49.9904ZM-66.6904 38.3228C-66.9571 38.0576 -67.4905 37.7925 -67.7572 37.5273C-68.0238 37.2621 -68.0238 36.9969 -68.0238 36.9969C-68.2905 38.3228 -68.8239 39.9138 -69.0906 41.2397L-68.8239 42.0352C-68.5572 42.0352 -68.2905 42.0352 -68.2905 42.0352C-68.5572 39.9138 -67.4905 40.179 -67.2238 39.1183C-67.2238 38.588 -66.9571 38.588 -66.6904 38.3228ZM-64.2902 32.7542C-64.8236 32.7542 -65.0903 32.489 -65.0903 32.489C-65.357 32.7542 -65.6237 33.2845 -66.157 33.5497C-65.8903 33.5497 -65.6237 33.8149 -65.6237 33.8149C-65.0903 33.8149 -64.8236 33.2845 -64.2902 32.7542ZM-16.2865 11.5403C-13.6196 11.2751 -10.9528 11.2751 -8.28589 11.2751L-8.0192 11.5403C-7.48582 12.0706 -6.68576 12.601 -5.61901 12.0706C-5.35233 11.8055 -5.08564 11.8055 -4.81895 11.5403C-4.81895 11.5403 -5.08564 11.5403 -5.08564 11.2751C5.84854 12.0706 16.2493 16.0482 24.7833 22.4124C23.9833 22.9427 23.1832 23.2079 22.1165 23.7383C11.1823 16.3134 -2.15208 12.601 -16.2865 13.9268C-16.2865 13.9268 -16.2865 13.9268 -16.2865 13.6617C-16.0198 13.1313 -16.0198 12.3358 -16.2865 11.5403ZM-12.0195 12.601C-11.7528 12.8661 -11.4861 13.3965 -11.2194 13.6617C-11.2194 13.3965 -11.2194 13.1313 -11.2194 12.8661C-11.2194 12.601 -11.4861 12.3358 -11.7528 12.0706C-11.7528 12.0706 -11.7528 12.3358 -12.0195 12.601ZM42.6514 95.8655C42.3847 95.8655 42.3847 95.8654 42.118 96.1306C42.118 95.6003 41.8513 95.0699 41.8513 94.5396C41.8513 94.2744 41.8513 94.0092 42.118 93.4789C42.3847 94.5396 42.6514 95.0699 42.6514 95.8655C47.9851 85.2585 50.1186 73.3257 48.2518 61.1277C47.4518 56.3546 46.385 51.8467 44.5182 47.869C43.9848 48.3994 43.7181 49.1949 43.1848 49.7253C43.1848 49.7253 43.1848 49.7253 42.9181 49.7253L42.6514 49.9904C43.1848 51.5815 43.9848 53.4377 44.2515 55.2939C44.5182 55.2939 44.5182 55.2939 44.5182 55.2939C44.7849 55.5591 44.7849 55.8243 45.0516 56.3546C45.0516 56.3546 44.7849 56.6198 44.5182 56.6198C44.5182 56.6198 44.5182 56.6198 44.2515 56.6198C44.7849 58.2108 45.0516 60.067 45.3183 61.6581C45.3183 62.4536 45.5849 63.2491 45.5849 64.3098C46.1183 64.3098 46.385 64.3098 46.6517 64.0446C46.385 64.575 46.1183 65.3705 45.5849 65.9008C47.1851 87.6451 35.9842 107.798 18.1161 118.405C13.0491 121.322 7.44866 123.709 1.58154 125.035C1.04816 125.83 0.781479 126.36 0.248108 126.891C0.248108 126.626 -0.0185776 126.095 -0.0185776 125.83C-0.0185776 125.565 -0.0185776 125.565 -0.0185776 125.3C-0.551956 125.3 -1.35202 125.565 -2.15208 125.565C-6.15239 126.095 -10.1527 126.36 -14.153 126.095C-13.8863 126.626 -13.353 127.156 -13.0863 127.686C-13.0863 127.951 -12.8196 128.217 -12.8196 128.747C-9.35264 128.747 -5.61902 128.747 -2.15208 128.217C-2.15208 127.951 -2.41877 127.951 -2.41877 127.686C-2.41877 127.421 -2.15208 127.156 -2.15208 127.156C-1.61871 127.421 -0.818642 127.421 -0.285263 127.951C19.1829 124.239 34.6508 112.041 42.6514 95.8655ZM-65.0903 83.4023C-65.357 81.8113 -65.8903 79.955 -66.157 78.364C-66.6904 74.3864 -66.9571 70.674 -66.6904 66.9615C-67.4905 66.9615 -68.2905 66.4312 -68.8239 66.166C-68.5572 65.9008 -68.0238 65.6357 -67.4905 65.1053C-67.2238 65.3705 -66.6904 65.3705 -66.4237 65.6357C-66.157 63.5143 -65.8904 61.6581 -65.6237 59.5367C-66.157 59.2715 -66.4237 59.0063 -66.9571 58.7412C-66.4237 58.476 -65.8904 57.9456 -65.357 57.6805C-65.0903 57.1501 -65.0903 56.6198 -64.8236 56.0894H-65.0903C-65.6237 56.0894 -65.8903 55.8243 -66.4237 55.8243C-66.9571 56.0894 -67.2238 56.3546 -67.7572 56.6198C-68.2905 59.0063 -68.8239 61.6581 -69.0906 64.0446C-68.8239 64.0446 -68.5572 64.0446 -68.0238 64.0446L-67.7572 64.3098C-67.7572 64.575 -67.7572 64.8402 -68.0238 65.1053C-68.2905 65.3705 -68.8239 65.9008 -69.0906 66.166C-69.0906 67.2267 -69.3573 68.0222 -69.3573 69.0829C-69.3573 69.0829 -69.3573 69.0829 -69.0906 69.0829C-68.5572 69.0829 -68.2905 69.3481 -67.7572 69.3481C-67.7572 69.6133 -67.7572 69.8784 -68.0238 69.8784C-68.2905 70.1436 -68.8239 70.1436 -69.0906 70.4088C-69.0906 73.0605 -68.8239 75.9774 -68.5572 78.6292C-68.2905 79.6899 -68.2905 80.7506 -68.0238 81.8113C-66.9571 82.3416 -66.157 82.8719 -65.0903 83.4023ZM-13.8863 126.095C-14.153 126.095 -14.4197 126.095 -14.9531 126.095V126.36C-14.6864 125.83 -13.6196 128.747 -13.8863 126.095ZM-24.2871 12.8661C-24.2871 13.1313 -24.0204 13.3965 -24.0204 13.3965C-24.0204 13.9268 -23.7538 14.7224 -23.7538 15.2527C-22.1536 14.7224 -20.2868 14.4572 -18.6867 14.192C-18.42 14.192 -18.42 14.192 -18.1533 14.192C-18.1533 13.9268 -18.42 13.6617 -18.42 13.3965L-17.8866 12.601C-17.3533 13.1313 -17.0866 13.1313 -16.8199 12.3358C-16.8199 12.0706 -16.8199 11.8055 -16.8199 11.8055C-17.6199 11.8055 -18.42 12.0706 -18.9534 12.0706C-20.8202 12.0706 -22.4203 12.601 -24.2871 12.8661ZM23.4499 24.799C26.1168 26.6552 28.517 29.0417 30.9171 31.4283C31.1838 31.1631 32.5173 31.4283 32.5173 31.6935C32.5173 33.0193 32.784 33.2845 34.1174 33.0193C34.6508 33.0193 35.1841 32.7542 35.4508 32.489C32.5173 29.0417 29.317 25.8597 25.8501 23.2079C25.05 24.0034 24.25 24.2686 23.4499 24.799ZM-76.8245 83.4023C-77.0912 82.3416 -77.3579 81.0157 -77.3579 79.955C-77.6246 78.8943 -77.6246 77.8337 -77.8913 76.5078C-77.8913 75.4471 -78.158 74.6516 -78.158 73.5909C-78.158 73.3257 -78.158 73.3257 -78.158 73.0605C-78.158 70.9391 -78.158 68.8178 -78.158 66.4312C-77.8913 66.9615 -76.8245 67.4919 -77.3579 68.5526C-76.8245 68.2874 -76.2912 68.2874 -76.0245 67.7571C-75.2244 66.9615 -74.4243 66.9615 -73.3576 67.4919C-73.3576 71.2043 -73.3576 74.9167 -72.5575 78.6292C-72.5575 79.1595 -72.2908 79.6899 -72.2908 80.4854C-72.5575 80.4854 -72.8242 80.7506 -73.0909 81.0157C-72.8242 81.2809 -72.5575 81.2809 -72.2908 81.5461C-66.6904 109.389 -43.2219 129.542 -15.7531 131.929C-15.2198 132.99 -14.6864 134.05 -14.153 133.785C-13.8863 133.785 -13.6196 133.52 -13.3529 133.255C-13.6196 132.725 -13.6196 132.459 -13.8863 132.194C-10.4194 132.459 -6.95245 132.194 -3.48552 131.929C-3.48552 132.194 -3.21883 132.459 -3.21883 132.99C-3.21883 132.459 -2.95214 132.194 -2.95214 131.929C-2.15208 131.929 -1.61871 131.664 -0.818642 131.664C-0.285271 131.664 0.514793 131.399 1.04817 131.399C2.11492 133.255 3.44836 133.52 4.51511 134.846C4.51511 134.846 4.78178 134.581 5.04848 134.581C4.78178 134.05 4.51511 133.52 4.51511 133.255C3.98174 132.725 3.18167 131.929 2.64829 131.134C6.64861 130.338 10.6489 129.012 14.1158 127.421C14.3825 127.686 14.3825 127.951 14.6492 127.951C16.2493 128.747 18.1161 129.277 19.7163 130.073C17.0494 131.399 14.1158 132.459 11.1823 133.52C11.1823 133.255 11.1823 133.255 10.9156 132.99C10.9156 133.255 10.9156 133.52 10.9156 133.785C10.6489 133.785 10.1155 134.05 9.84885 134.05C9.58216 134.05 9.58216 134.05 9.31548 134.316C8.51541 134.581 7.71535 134.846 6.91529 135.111C6.6486 135.111 6.11523 135.376 5.84854 135.376C5.04848 135.641 4.5151 135.641 3.71503 135.907C3.44835 135.907 3.18167 136.172 2.64829 136.172C1.58154 136.437 0.514793 136.437 -0.551956 136.702C-0.551956 136.437 -0.818642 136.437 -0.818642 136.172C-1.08533 135.907 -1.08533 135.641 -1.35201 135.641C-1.35201 135.907 -1.35201 136.437 -1.35201 136.437V136.702C-17.3533 139.089 -33.0878 135.376 -46.1555 127.686C-46.9555 127.156 -48.0223 126.626 -48.8224 125.83C-49.8891 125.3 -50.6892 124.504 -51.4892 123.974C-51.4892 123.974 -51.4892 123.974 -51.7559 123.709C-52.556 123.178 -53.356 122.383 -54.1561 121.852L-54.4228 121.587C-55.2229 121.057 -56.0229 120.261 -56.5563 119.731L-56.823 119.466C-57.623 118.936 -58.1564 118.14 -58.9565 117.61C-59.2232 117.61 -59.2232 117.345 -59.2232 117.079C-59.7565 116.549 -60.5566 115.753 -61.09 115.223C-60.5566 115.488 -60.5566 115.223 -60.8233 114.958C-61.3567 114.428 -61.89 113.632 -62.4234 113.102C-62.6901 112.837 -62.6901 112.571 -62.9568 112.571C-63.4902 112.041 -64.0235 111.246 -64.5569 110.715C-64.8236 110.45 -64.8236 110.185 -65.0903 109.92C-65.6237 109.124 -65.8903 108.594 -66.4237 107.798C-66.6904 107.533 -66.6904 107.268 -66.9571 107.003C-67.4905 106.472 -67.7572 105.677 -68.0238 105.147C-68.5572 104.881 -68.5572 104.351 -68.8239 104.086C-69.0906 103.555 -69.624 103.025 -69.8907 102.23C-70.1573 101.964 -70.424 101.434 -70.424 101.169C-70.6907 100.639 -70.9574 100.108 -71.2241 99.3127C-71.4908 98.7824 -71.4908 98.5172 -71.7575 97.9868C-72.0242 97.4565 -72.2908 96.9262 -72.5575 96.3958C-72.8242 95.8655 -72.8242 95.3351 -73.0909 95.0699C-73.6243 94.2744 -73.891 93.7441 -73.891 93.2137C-74.1577 92.6834 -74.1577 92.153 -74.4243 91.6227C-74.691 91.0923 -74.691 90.562 -74.9577 90.0316C-75.2244 89.5013 -75.2244 88.7058 -75.4911 88.1754C-75.7578 87.6451 -75.7578 87.1147 -76.0245 86.8495C-76.2912 86.054 -76.2912 85.5237 -76.5578 84.7282C-76.5578 84.1978 -76.8245 83.9326 -76.8245 83.4023ZM-75.7578 74.1212C-75.7578 74.6516 -75.4911 74.9167 -74.9577 75.7123C-74.9577 74.9167 -74.691 74.3864 -74.691 74.1212C-74.9577 73.5909 -75.4911 72.7954 -75.7578 72.265C-75.7578 73.0605 -75.7578 73.5909 -75.7578 74.1212ZM-67.4905 83.4023C-66.6904 83.6675 -66.157 83.6675 -65.357 83.9326C-65.0903 83.9326 -64.8236 83.9326 -64.8236 83.9326C-58.9565 107.268 -38.6882 123.974 -14.9531 126.095L-14.6864 126.36C-14.9531 127.156 -15.2198 128.217 -15.2198 128.482C-40.2884 126.095 -61.6234 108.329 -67.4905 83.4023ZM-45.8888 113.632C-46.4222 113.632 -46.6889 113.367 -47.2222 113.367C-47.4889 113.367 -47.7556 113.632 -48.0223 113.897C-47.7556 114.162 -47.2222 114.693 -46.9555 114.958C-46.9555 114.958 -46.4222 114.693 -46.1555 114.428C-46.1555 114.162 -46.1555 113.897 -45.8888 113.632ZM-15.4864 103.821C-15.4864 103.555 -15.2198 103.29 -14.6864 102.23C-16.8199 101.964 -18.6867 101.434 -20.5535 100.904C-20.2868 101.434 -19.7534 101.964 -19.4868 102.76C-19.2201 103.025 -19.2201 103.555 -18.9534 103.821C-17.6199 104.086 -16.5532 104.351 -15.2198 104.616C-15.4864 104.351 -15.4864 104.086 -15.4864 103.821ZM-11.4861 35.4059C-11.4861 35.6711 -11.4861 35.9362 -11.4861 36.4666C-11.7528 35.9362 -12.0195 35.6711 -12.0195 35.4059C-12.0195 35.1407 -12.0195 35.1407 -12.0195 34.8755C-12.0195 34.8755 -12.0195 34.8755 -12.2862 34.8755C-12.2862 35.1407 -12.5529 35.1407 -12.5529 35.1407C-13.0863 35.4059 -13.6196 35.6711 -14.6864 35.9362C-14.4197 35.6711 -14.4197 35.4059 -14.4197 35.1407C-14.9531 35.1407 -15.4864 35.1407 -16.0198 35.4059C-16.2865 35.4059 -16.2865 35.4059 -16.5532 35.4059C-16.5532 35.6711 -16.5532 35.9362 -16.8199 35.9362C-17.3533 36.2014 -18.1533 36.4666 -18.42 36.9969C-18.6867 37.2621 -18.6867 37.7925 -18.6867 38.3228C-17.6199 38.0576 -16.5532 37.7925 -15.4864 37.7925C-14.153 37.5273 -12.8196 37.5273 -11.7528 37.5273C-11.4861 37.2621 -11.4861 36.7318 -11.2194 36.4666C-10.6861 36.4666 -10.4194 36.4666 -9.88601 36.4666C-9.88601 36.2014 -9.88601 35.9362 -9.88601 35.6711C-9.88601 35.9362 -9.61932 36.2014 -9.61932 36.4666C-9.61932 36.4666 -9.61932 36.4666 -9.61932 36.7318C-9.35264 36.7318 -9.35264 36.7318 -9.08595 36.9969C-8.81927 36.9969 -9.08595 37.5273 -9.08595 38.0576C-7.48582 38.0576 -6.15239 38.3228 -4.81895 38.588C-4.81895 38.588 -4.81895 38.588 -4.55226 38.588C3.71504 40.179 10.9156 44.687 15.716 51.3163C15.9827 51.3163 16.2493 51.0511 16.516 51.0511C16.516 51.3163 16.2493 51.5815 16.2493 52.1118C17.3161 53.4377 18.1161 55.0287 18.9162 56.6198C19.1829 56.3546 19.7163 56.3546 19.983 56.3546C20.5163 56.3546 21.3164 56.885 21.5831 56.6198C15.716 43.6263 2.38161 35.1407 -12.0195 35.6711C-11.4861 35.1407 -11.4861 35.1407 -11.4861 35.4059ZM-44.2887 61.3929C-44.022 61.3929 -43.7553 61.3929 -43.4886 61.3929C-43.7553 61.6581 -44.022 61.6581 -44.2887 61.9232C-44.5554 62.9839 -44.822 64.0446 -45.0887 65.1053C-44.822 65.1053 -44.8221 65.3705 -44.5554 65.3705C-44.8221 65.6357 -45.0887 65.6357 -45.3554 65.6357C-45.6221 68.2874 -45.6221 71.2043 -45.3554 74.1212C-45.0887 75.1819 -44.822 75.9774 -44.2887 77.0381C-44.022 77.5685 -43.2219 77.5685 -42.4219 78.0988C-42.9552 78.8943 -43.2219 80.2202 -43.7553 80.4854C-43.2219 82.3416 -42.4219 84.1978 -41.6218 85.7889C-40.8217 85.5237 -40.0217 85.2585 -39.2216 85.2585C-40.8217 82.0764 -42.1552 78.6292 -42.6886 74.6516C-44.8221 60.3322 -37.3548 46.8084 -24.8205 40.4442C-24.5538 39.3835 -24.0204 38.588 -24.0204 37.2621C-24.5538 37.5273 -25.0872 37.7925 -25.8872 38.0576C-25.8872 38.3228 -26.1539 38.588 -26.1539 38.588L-26.4206 38.3228C-26.954 38.588 -27.4874 38.8532 -28.0207 39.1183V39.3835C-28.0207 39.3835 -28.0207 39.3835 -28.0207 39.1183C-36.0214 44.4218 -42.1552 52.377 -44.2887 61.3929ZM-22.687 38.3228C-22.687 38.8532 -22.4203 39.1183 -22.4203 39.6487C-21.0869 39.1183 -20.0201 38.588 -18.6867 38.3228C-19.2201 38.0576 -19.7534 37.7925 -20.0201 37.5273C-20.2868 36.7318 -19.7534 36.4666 -19.4868 36.2014C-19.2201 36.2014 -18.9534 35.9362 -18.9534 35.9362C-20.5535 36.2014 -22.1536 36.7318 -23.4871 37.2621C-22.9537 37.7925 -22.9537 38.0576 -22.687 38.3228ZM22.9165 61.6581C23.1832 61.6581 23.7166 61.6581 24.25 61.3929C24.5166 62.4536 24.7833 63.5143 24.7833 64.3098C26.3835 74.9167 22.9165 85.2585 16.2493 92.9486C16.2493 92.4182 16.2493 92.153 16.2493 91.6227C15.9827 91.3575 15.9827 91.0923 15.716 91.0923L15.4493 91.3575C15.4493 92.153 15.4493 92.9485 15.4493 93.7441C10.6489 98.7824 4.24842 102.495 -2.95214 103.821C-3.21883 103.29 -3.7522 102.76 -4.01889 102.495C-4.01889 102.495 -4.28558 102.76 -4.28558 103.025C-4.28558 103.29 -4.28558 103.821 -4.01889 104.351C-4.28558 104.351 -4.28558 104.351 -4.55226 104.351C-7.75251 104.881 -10.9528 104.881 -13.8863 104.351C-13.8863 104.086 -13.8863 104.086 -13.8863 103.821C-13.8863 103.29 -14.153 102.495 -14.153 101.964C-10.9528 102.495 -7.75251 102.495 -4.55226 101.964C13.3158 99.3127 25.5834 82.6068 22.9165 64.8402C22.9165 64.575 22.9165 64.575 22.9165 64.3098C23.4499 64.0446 23.4499 63.5143 22.9165 61.6581ZM-8.55257 103.555C-9.08595 103.555 -9.61932 103.821 -9.88601 103.821C-9.88601 104.086 -9.88601 104.351 -9.88601 104.351C-9.35264 104.351 -8.81926 104.351 -8.55257 104.351C-8.28589 104.086 -8.28589 103.821 -8.55257 103.555ZM-30.9543 98.252C-30.9543 97.7217 -31.221 97.4565 -31.221 96.9262C-30.9543 97.4565 -30.4209 98.252 -30.1542 98.7824C-29.3542 99.3127 -28.5541 99.8431 -27.7541 100.373C-27.7541 99.3127 -28.0207 98.5172 -28.0207 97.4565C-28.0207 97.4565 -28.0207 97.4565 -28.0207 97.1913C-32.2877 94.5396 -36.0214 90.8272 -38.6882 86.3192C-41.0884 86.8496 -40.8217 87.3799 -39.2216 89.7665C-38.9549 90.0316 -38.9549 90.2968 -38.6882 90.562C-36.2881 93.4789 -33.8879 96.1306 -30.9543 98.252ZM-23.4871 99.5779C-23.7538 99.8431 -23.7537 100.108 -24.0204 100.639C-23.7537 100.373 -23.2204 100.373 -22.9537 100.108V100.373C-22.687 100.904 -22.4203 101.699 -22.4203 102.23C-22.4203 102.495 -22.4203 102.76 -22.687 102.76C-24.0204 102.23 -25.3539 101.699 -26.6873 100.904C-26.6873 99.8431 -26.954 99.0475 -26.954 98.252C-26.954 98.252 -26.954 98.252 -26.954 97.9868C-25.6206 98.7824 -24.5538 99.0475 -23.4871 99.5779ZM-24.2871 101.169C-24.2871 100.904 -24.5538 100.373 -24.5538 100.108C-24.8205 100.108 -24.8205 100.373 -25.3539 100.904C-24.8205 101.169 -24.5538 101.699 -24.5538 101.699C-24.5538 101.699 -24.2871 101.434 -24.2871 101.169ZM38.3844 40.9745C38.6511 40.9745 38.9178 40.9745 39.1845 40.9745C39.1845 41.2397 38.9178 41.5049 38.9178 41.5049C40.2512 43.8914 41.3179 46.0128 42.3847 48.6646C43.1848 48.1342 43.4514 47.0735 44.2515 47.0735C42.118 42.0352 39.4511 37.5273 35.9842 33.2845C35.4508 33.8149 34.6508 34.3452 33.8507 34.6104C35.4508 36.7318 37.0509 38.8532 38.3844 40.9745Z" fill="#D7D2D1"/>
</g>
</svg>
