<svg width="117" height="126" viewBox="0 0 117 126" fill="none" xmlns="http://www.w3.org/2000/svg">
<g clip-path="url(#clip0_15481_6703)">
<path d="M39.0155 94.1223C39.6236 94.4245 40.2316 94.7266 40.9917 95.0288C41.1437 95.1799 41.4478 95.1799 41.5998 95.3309C41.9038 95.0288 42.0558 94.5755 42.2079 94.1223C41.9038 93.9712 41.5998 93.8201 41.1437 93.6691C40.6877 93.3669 40.2316 93.2158 39.6236 92.9137C39.4716 92.9137 39.1675 92.9137 39.1675 93.0647C39.1675 93.3669 39.0155 93.6691 39.0155 94.1223Z" fill="white" fill-opacity="0.6"/>
<path d="M13.6287 96.8417C13.4767 96.8417 13.4767 96.6907 13.3247 96.6907C13.0207 96.6907 12.7166 96.6907 12.4126 96.6907C12.4126 96.5396 12.5646 96.3885 12.5646 96.3885C12.8687 96.5396 13.0207 96.5396 13.3247 96.6907C13.4767 96.8417 13.4767 96.8417 13.6287 96.8417C14.9969 96.3885 16.365 96.0863 17.5812 95.6331C17.5812 95.6331 17.5812 95.482 17.7332 95.482C17.7332 95.3309 17.5812 95.3309 17.5812 95.1799C16.061 95.6331 14.3888 95.7842 12.1086 95.7842C10.8925 95.7842 9.98035 95.7842 9.06825 95.6331C9.06825 95.6331 9.06825 95.6331 8.91623 95.6331C8.30817 95.7842 7.7001 95.7842 7.09204 95.6331C6.02792 95.3309 5.11582 95.0288 4.0517 94.5755C3.59565 94.4245 3.29162 93.9712 2.83557 93.6691C2.68356 93.6691 2.53154 93.518 2.53154 93.518C0.0992737 92.3094 -2.33299 91.1007 -7.34954 91.1007C-12.3661 91.1007 -14.7983 92.3094 -17.2306 93.518C-19.6629 94.7266 -22.0951 95.7842 -26.8077 95.7842V97.1439C-26.6556 96.9928 -26.1996 96.6907 -26.0476 96.6907C-25.2875 96.6907 -24.3754 96.8417 -23.6153 96.8417C-20.727 96.3885 -18.9028 95.482 -17.0786 94.7266C-15.1024 93.8202 -13.1262 92.9137 -10.0858 92.6115C-10.0858 92.3094 -9.93382 92.0072 -9.7818 91.554C-9.62978 92.0072 -9.47777 92.3094 -9.32575 92.6115C-8.71768 92.6115 -8.10962 92.6115 -7.50155 92.6115C-7.19752 92.6115 -6.89349 92.6115 -6.43744 92.6115C-6.28542 92.4604 -6.1334 92.3094 -5.98139 92.1583C-5.82937 92.3094 -5.82937 92.4604 -5.67735 92.6115C-2.02896 92.9137 -0.052742 93.8201 2.07549 94.8777C4.50776 96.0863 6.94002 97.295 11.9566 97.295C12.5646 97.295 13.1727 97.295 13.7808 97.295C13.7808 97.1439 13.7808 96.9928 13.6287 96.8417Z" fill="white" fill-opacity="0.6"/>
<path d="M43.424 95.6331C43.272 95.7842 43.12 95.7842 42.9679 95.9353C43.576 96.2374 44.3361 96.5396 45.0962 96.6907C45.2482 96.6907 45.2482 96.5396 45.4002 96.5396C45.5522 96.6907 45.5522 96.6906 45.5522 96.8417C47.0724 97.1439 48.7446 97.446 50.8728 97.446V96.0863C47.6805 96.0863 45.5522 95.6331 43.88 94.8777C43.728 95.1799 43.576 95.482 43.424 95.6331Z" fill="white" fill-opacity="0.6"/>
<path d="M45.7042 86.2662C46.3123 86.4173 47.0724 86.5684 47.8325 86.7194C47.3764 86.2662 46.9204 85.813 46.4643 85.3597C46.4643 85.3597 46.4643 85.2086 46.6163 85.0576C46.3123 85.0576 46.0083 84.9065 45.7042 84.9065V85.5108C45.8563 85.813 45.7042 86.1151 45.7042 86.2662Z" fill="white" fill-opacity="0.6"/>
<path d="M35.2151 81.4317C34.9111 81.7338 34.7591 82.036 34.455 82.3381C36.8873 82.6403 38.7115 83.3957 40.2316 84.1511H40.3837C40.5357 84.3022 40.6877 84.3022 40.8397 84.4532H40.9917C42.2079 85.0575 43.272 85.5108 44.7921 85.964C45.2482 85.2086 42.6639 85.5108 44.4881 84.6043C44.6401 84.6043 44.6401 84.6043 44.7921 84.4532C43.576 84 42.5119 83.5468 41.4478 83.0935C39.6236 82.187 37.9514 81.4316 35.2151 80.9784C35.0631 81.2806 35.2151 81.4317 35.2151 81.4317Z" fill="white" fill-opacity="0.6"/>
<path d="M48.8966 86.8705C49.5047 86.8705 50.2647 87.0216 51.0248 87.0216V85.6619C49.8087 85.6619 48.7446 85.5108 47.6805 85.5108C47.9845 85.8129 48.4405 86.2662 48.8966 86.8705Z" fill="white" fill-opacity="0.6"/>
<path d="M24.1179 83.3957C24.726 83.5468 25.03 84 25.6381 84.3022V82.9424C26.7022 82.6403 27.9183 82.4892 29.2865 82.3381C29.2865 82.187 29.4385 82.036 29.4385 81.7338C29.5905 81.8849 29.7425 82.036 29.7425 82.3381C30.1986 82.3381 30.8066 82.3381 31.4147 82.3381C32.0228 82.3381 32.6308 82.3381 33.0869 82.3381C33.6949 81.8849 34.151 81.5827 34.759 81.1295C33.847 80.9784 32.6308 80.9784 31.4147 80.9784C29.7425 80.9784 28.3744 81.1295 27.1582 81.2806C27.3102 81.4317 27.4623 81.5827 27.4623 81.7338C27.0062 82.187 26.5502 82.4892 26.5502 82.3381C26.2461 82.036 26.0941 81.7338 25.7901 81.4317C25.6381 81.4317 25.6381 81.4317 25.486 81.4317V81.1295C25.334 80.9784 25.182 80.8273 25.03 80.6763C25.182 80.5252 25.334 80.5252 25.486 80.3741V72.518C27.0062 72.0647 28.8304 71.7626 31.2627 71.7626C36.1272 71.7626 38.4074 72.8201 40.8397 74.0288C41.9038 74.482 42.8159 74.9353 44.0321 75.3885C44.1841 74.9353 44.3361 74.6331 44.3361 74.1799C44.6401 74.3309 44.9442 74.482 45.2482 74.6331C45.4002 74.6331 45.5522 74.482 45.7042 74.482C43.88 74.0288 42.5119 73.4245 41.1437 72.6691C40.3837 72.2158 39.4716 71.9137 38.5595 71.4604C38.4074 71.6115 38.1034 71.9137 37.9514 72.0647C37.7994 72.2158 37.3433 71.9137 37.3433 71.9137C37.3433 71.6115 37.4954 71.4604 37.4954 71.1583C35.8232 70.705 33.999 70.2518 31.4147 70.2518C30.5026 70.2518 29.7425 70.2518 28.9824 70.4029C28.9824 70.554 28.8304 70.8561 28.8304 71.0072C28.6784 70.8561 28.5264 70.705 28.2223 70.4029C27.1582 70.554 26.3981 70.705 25.486 71.0072V61.9424C26.5502 61.6403 27.7663 61.3381 29.1344 61.3381C28.9824 61.187 28.6784 61.036 28.5264 60.8849C28.8304 60.5827 29.1344 60.2806 29.4385 59.9784C28.6784 59.9784 27.9183 60.1295 27.1582 60.2806C27.1582 60.4317 27.0062 60.4317 27.0062 60.5827L26.8542 60.4317C26.3981 60.5827 25.9421 60.5827 25.486 60.7338V49.8561C25.334 49.705 25.182 49.554 25.03 49.554C25.182 49.4029 25.334 49.1007 25.486 48.7986V47.5899C25.334 47.5899 25.334 47.5899 25.182 47.5899C25.334 47.4388 25.334 47.1367 25.486 46.9856V46.2302H27.1582C27.3102 46.0791 27.6143 46.0791 27.7663 45.9281C27.7663 45.9281 27.9183 46.0791 27.9183 46.2302C27.6143 46.2302 27.4623 46.2302 27.1582 46.2302H35.5191L35.3671 46.0791C35.6712 45.9281 36.1272 45.6259 36.4312 45.777C36.7353 45.9281 36.8873 46.0791 37.1913 46.2302H42.6639C42.6639 45.9281 42.6639 45.6259 42.6639 45.4748C42.8159 45.4748 42.9679 45.6259 42.9679 45.6259C42.9679 45.777 42.8159 46.0791 42.8159 46.2302H59.3857C59.3857 46.0791 59.3857 45.777 59.3857 45.6259C59.5378 45.777 59.6898 46.0791 59.9938 46.2302H79.1479V63.4532C79.6039 63.6043 80.06 63.9065 80.516 64.2086V59.5252C80.364 59.5252 80.212 59.5252 80.212 59.5252C80.212 59.223 80.364 59.0719 80.364 58.6187L80.516 58.7698V49.705C80.516 49.554 80.364 49.554 80.364 49.4029H80.516V44.5683H74.8914C75.0434 44.8705 75.0434 45.0216 75.1954 45.3237C75.0434 45.4748 74.8914 45.6259 74.5874 45.6259C74.5874 45.3237 74.4354 45.0216 74.4354 44.8705C74.4354 44.7194 74.5874 44.7194 74.5874 44.5683H53.6091C53.4571 44.8705 53.1531 45.0216 52.849 45.4748C52.697 45.1727 52.545 44.8705 52.393 44.5683H49.0486C48.8966 44.7194 48.8966 44.7194 48.7446 44.8705C48.7446 44.8705 48.5926 44.7194 48.4405 44.5683H24.1179V60.8849C23.2058 61.187 22.2937 61.6403 21.3816 62.0935C21.0776 62.2446 20.6215 62.3957 20.3175 62.6978C20.4695 63.1511 20.4695 63.6043 20.6215 64.0576C21.0776 63.9065 21.3816 63.7554 21.8376 63.4532C22.4457 63.1511 22.9018 63 23.5098 62.6978C23.6618 62.3957 23.9659 62.2446 24.1179 61.9424C24.2699 62.0935 24.2699 62.2446 24.4219 62.6978L24.2699 62.8489V66.4748C24.2699 66.6259 24.4219 66.777 24.4219 66.9281C24.4219 67.0791 24.2699 67.2302 24.2699 67.3813V71.4604C23.3578 71.7626 22.4457 72.2158 21.5336 72.6691C20.9255 72.9712 20.4695 73.1223 19.8614 73.4245C20.1655 73.5755 20.4695 73.5755 20.7735 73.7266C20.4695 74.0288 20.1655 74.3309 19.8614 74.482C19.7094 74.1799 19.5574 73.8777 19.4054 73.5755C18.3413 74.0288 17.2771 74.3309 15.909 74.6331C15.909 74.6331 16.061 74.6331 16.061 74.7842C15.909 74.9353 15.909 75.2374 15.757 75.2374C15.4529 75.2374 15.3009 75.0863 14.9969 74.9352C14.0848 75.0863 13.0207 75.0863 11.9566 75.0863C7.09204 75.0863 4.81179 74.0288 2.37952 72.8201C2.07549 72.6691 1.77146 72.518 1.61944 72.3669C1.46742 72.6691 1.31541 72.9712 1.01138 73.1223C0.707342 72.6691 0.403309 72.0647 0.0992756 71.7626C-1.72492 71.0072 -4.00517 70.4029 -7.50155 70.4029C-12.5181 70.4029 -14.9504 71.6115 -17.3826 72.8201C-18.9028 73.5755 -20.2709 74.1799 -22.2472 74.6331C-22.2472 74.7842 -22.2472 74.9353 -22.0951 75.0863C-22.3992 75.3885 -22.7032 75.8417 -23.1593 76.1439C-21.6391 75.8417 -20.423 75.5396 -19.3588 75.0863C-19.5109 74.9353 -19.6629 74.7842 -19.6629 74.6331C-19.3588 74.3309 -19.0548 74.0288 -18.5988 73.7266C-18.4467 74.0288 -18.2947 74.3309 -18.1427 74.482C-17.8387 74.3309 -17.5346 74.1799 -17.2306 74.0288C-14.7983 72.8201 -12.3661 71.7626 -7.65357 71.7626C-2.94106 71.7626 -0.508789 72.8201 1.92348 74.0288C4.35574 75.2374 6.94002 76.446 11.8046 76.446C11.9566 76.446 12.1086 76.446 12.4126 76.446C12.5646 76.295 12.7167 76.1439 12.8687 76.1439C13.0207 76.1439 13.3247 76.295 13.6288 76.295C17.4292 75.9928 19.7094 74.9353 21.8376 74.0288C22.5977 73.5755 23.3578 73.2734 24.2699 72.9712V82.036C23.3578 82.3381 22.4457 82.7914 21.5336 83.2446C20.3175 83.8489 19.1013 84.3022 17.7332 84.7554C17.8852 85.0576 18.1892 85.3597 18.1892 85.813V85.964C18.7973 85.813 19.2534 85.5108 19.8614 85.3597C20.3175 85.0576 20.6215 84.6043 21.0776 84.3022C21.2296 84.1511 21.5336 84.3022 21.8376 84.3022C22.2937 84 22.7497 83.8489 23.3578 83.5468L23.2058 83.3957C23.5098 83.5468 23.9659 83.3957 24.1179 83.3957ZM24.878 55.1439C25.03 55.1439 25.334 55.295 25.486 55.295C25.334 55.446 25.182 55.5971 25.03 55.5971C24.878 55.5971 24.726 55.446 24.5739 55.295C24.726 55.295 24.878 55.1439 24.878 55.1439ZM24.726 58.6187C24.878 58.7698 24.878 59.0719 24.878 59.223C24.726 59.223 24.5739 59.3741 24.4219 59.3741C24.4219 59.223 24.4219 58.9209 24.4219 58.7698C24.5739 58.7698 24.726 58.7698 24.726 58.6187ZM24.5739 64.813C24.726 64.813 24.726 64.6619 24.878 64.6619C25.03 64.6619 25.334 64.813 25.486 64.813C25.334 64.964 25.182 65.1151 25.03 65.1151C24.878 65.1151 24.726 64.964 24.5739 64.813ZM-12.9741 71.9137C-13.1262 71.9137 -13.2782 71.7626 -13.4302 71.6115C-13.2782 71.6115 -13.2782 71.4604 -13.1262 71.4604C-12.9741 71.4604 -12.6701 71.6115 -12.5181 71.6115C-12.6701 71.6115 -12.8221 71.9137 -12.9741 71.9137Z" fill="white" fill-opacity="0.6"/>
<path d="M16.9731 84.9065C15.605 85.2086 14.0848 85.5108 11.9566 85.5108C11.1965 85.964 10.4364 86.4173 9.67632 86.7194C9.22027 86.8705 8.6122 86.4173 8.00414 86.1151C7.7001 85.964 7.39607 85.6619 7.09204 85.5108C7.7001 85.5108 8.15615 85.5108 8.76422 85.3597C8.76422 85.3597 8.76422 85.3597 8.91624 85.3597C7.70011 85.2086 6.63599 84.9065 5.72389 84.6043H5.57187C5.41986 84.6043 5.11582 84.4532 4.96381 84.4532C4.96381 84.4532 4.96381 84.4532 5.11582 84.3022C4.20372 84 3.29162 83.5468 2.37952 83.0935C0.555326 82.187 -1.26887 81.2806 -4.15719 80.9784C-4.00517 81.4316 -3.54912 82.036 -3.85315 82.4892C-2.63702 82.6403 -1.72492 82.9424 -0.812821 83.2446L-0.660807 83.0935C-0.660807 83.2446 -0.50879 83.2446 -0.50879 83.3957C0.40331 83.6978 1.16339 84.1511 2.07549 84.4532C2.07549 84.4532 2.07549 84.4532 2.22751 84.4532C2.37953 84.3022 2.37952 84.3022 2.53154 84.1511C2.53154 84.3022 2.68356 84.4532 2.68356 84.6043C4.96381 85.6619 7.39607 86.7194 12.1086 86.7194C13.9328 86.7194 15.3009 86.5683 16.6691 86.2662C16.6691 86.1151 16.5171 85.8129 16.6691 85.5108C16.365 85.5108 16.6691 85.2086 16.9731 84.9065Z" fill="white" fill-opacity="0.6"/>
<path d="M45.8563 75.8417C47.2244 76.1439 48.8966 76.295 50.8728 76.295V74.9352C49.8087 74.9352 49.0486 74.9352 48.1365 74.7842C47.3764 74.9352 46.7684 75.0863 46.0083 75.3885C46.0083 75.5396 46.0083 75.6906 45.8563 75.8417Z" fill="white" fill-opacity="0.6"/>
<path d="M46.7684 65.5683C47.9845 65.7194 49.3526 65.8705 50.8728 65.8705V64.5108C49.6567 64.5108 48.5926 64.3597 47.6805 64.3597C47.5284 64.6619 47.2244 65.1151 46.7684 65.5683Z" fill="white" fill-opacity="0.6"/>
<path d="M30.6546 61.187C30.8066 61.187 31.1107 61.187 31.2627 61.187C31.8707 61.187 32.3268 61.187 32.7828 61.187H32.9349H33.0869C35.8232 61.3381 37.6474 61.9424 39.3195 62.6978C39.7756 62.5468 40.0796 62.5468 40.5357 62.3957C40.8397 62.3957 41.1437 62.3957 41.7518 62.3957C41.5998 62.2446 41.2958 62.2446 41.1437 62.0935C39.7756 61.4892 38.5595 60.8849 36.8873 60.4317C36.5832 60.5827 36.4312 60.7338 36.1272 60.8849C36.1272 60.7338 35.8232 60.2806 35.9752 60.2806C35.9752 60.2806 35.9752 60.2806 36.1272 60.2806C34.7591 59.9784 33.2389 59.8273 31.4147 59.8273C31.2627 59.8273 31.1107 59.8273 30.8066 59.8273C30.8066 60.1295 30.8066 60.4317 30.9586 60.7338C30.9586 60.8849 30.8066 61.036 30.6546 61.187Z" fill="white" fill-opacity="0.6"/>
<path d="M17.8852 63.6043C17.8852 64.2086 17.7332 64.6619 16.6691 64.2086C16.8211 64.5108 17.1251 64.6619 17.1251 64.964V65.1151C18.3413 64.8129 19.5574 64.3597 20.4695 63.9065C20.1655 63.6043 19.7094 63.3022 19.4054 63C18.9493 63.3022 18.4933 63.4532 17.8852 63.6043Z" fill="white" fill-opacity="0.6"/>
<path d="M16.6691 64.3597C16.6691 64.2086 16.6691 64.0576 16.6691 63.9065C15.3009 64.2086 13.7808 64.3597 11.8046 64.3597C6.94002 64.3597 4.65977 63.3022 2.22751 62.0935C1.01138 61.4892 -0.204756 60.8849 -1.87694 60.4317C-2.18097 60.7338 -2.48501 61.1871 -2.94106 61.4892C-0.96484 61.9424 0.40331 62.5468 1.92348 63.3022C4.35574 64.5108 6.788 65.5683 11.5005 65.7194C11.6525 65.4173 11.8046 65.1151 11.9566 64.813C12.2606 65.2662 12.5646 65.7194 12.5646 65.7194C13.9328 65.7194 14.9969 65.5683 16.061 65.4173C16.061 65.2662 16.061 65.2662 16.061 65.1151C16.365 64.964 16.5171 64.6619 16.6691 64.3597Z" fill="white" fill-opacity="0.6"/>
<path d="M80.668 80.3741V78.1079C80.06 79.0144 79.7559 79.9209 80.668 80.3741Z" fill="white" fill-opacity="0.6"/>
<path d="M42.9679 120.41C43.12 120.561 43.12 120.561 43.272 120.712C43.424 120.863 43.272 121.317 43.272 121.014C43.272 121.317 43.12 121.619 43.12 121.77H44.9442C45.0962 121.317 45.4002 120.863 45.5522 120.41H42.9679Z" fill="white" fill-opacity="0.6"/>
<path d="M30.6546 121.77H30.9586C30.9586 121.619 30.8066 121.468 30.8066 121.317C30.8066 121.619 30.8066 121.619 30.6546 121.77Z" fill="white" fill-opacity="0.6"/>
<path d="M45.8563 120.41C46.0083 120.41 46.1603 120.561 46.1603 120.561C46.0083 121.014 46.0083 121.317 45.8563 121.77H55.4333C56.1934 121.317 56.8014 120.863 57.5615 120.41H45.8563Z" fill="white" fill-opacity="0.6"/>
<path d="M80.06 65.5683C80.364 66.0216 80.516 66.3237 80.8201 66.6259V64.3597C80.516 64.8129 80.212 65.1151 80.06 65.5683Z" fill="white" fill-opacity="0.6"/>
<path d="M79.4519 67.2302C79.2999 66.9281 79.756 66.1727 80.06 65.7194C79.908 65.7194 79.6039 65.7194 79.4519 65.7194V72.0647C79.6039 71.9137 79.756 71.7626 79.908 71.7626C80.06 72.0647 80.364 72.3669 80.212 72.518C80.06 72.8201 79.756 73.1223 79.4519 73.2734V75.9928C79.756 75.9928 80.212 75.8417 80.516 75.9928C80.668 75.9928 80.8201 75.9928 80.8201 75.9928V68.741C80.212 68.2878 79.756 67.6835 79.4519 67.2302Z" fill="white" fill-opacity="0.6"/>
<path d="M79.2999 88.9856V94.2734C79.2999 94.4245 79.4519 94.4245 79.4519 94.5755C79.756 95.0288 79.908 95.7842 80.364 96.2374C80.516 96.3885 80.6681 96.5396 80.6681 96.5396V88.5324C80.364 88.5324 80.06 88.8345 79.6039 89.1367C79.6039 89.1367 79.4519 88.9856 79.2999 88.9856Z" fill="white" fill-opacity="0.6"/>
<path d="M24.878 88.8345C25.182 88.6835 25.334 88.6835 25.638 88.5324V84.4532C25.182 84.9065 24.878 85.2086 24.726 85.2086C24.5739 85.0576 24.4219 84.7554 24.1179 84.6043V88.5324C24.2699 88.5324 24.4219 88.3813 24.5739 88.3813C24.726 88.5324 24.878 88.6835 24.878 88.8345Z" fill="white" fill-opacity="0.6"/>
<path d="M28.5264 121.165C29.4385 121.014 30.3506 120.41 31.1107 120.561C31.8707 120.712 32.0228 121.165 31.8707 121.619H33.3909C33.3909 121.468 33.3909 121.468 33.3909 121.317C33.5429 121.468 33.6949 121.468 33.6949 121.619H36.2792C36.2792 121.619 36.2792 121.468 36.4312 121.468L36.5833 121.619H41.4478C41.2958 121.468 41.2958 121.165 41.1437 121.014C40.9917 120.712 40.8397 120.41 40.6877 120.259H25.6381V107.266C25.334 107.115 25.182 106.662 25.182 106.209C25.03 105.604 25.182 105.151 25.6381 104.849V93.518C27.1582 93.0647 28.9824 92.7626 31.4147 92.7626C32.1748 92.7626 32.7828 92.7626 33.3909 92.9137C33.5429 92.6115 33.6949 92.1583 33.999 91.8561C34.303 92.0072 34.455 92.1583 34.455 92.1583C34.303 92.4604 34.151 92.7626 33.847 92.9137C34.7591 93.0647 35.6712 93.2158 36.4312 93.3669C36.8873 93.0647 37.1913 92.6115 37.6474 92.3093C35.9752 91.8561 33.999 91.4029 31.2627 91.4029C28.8304 91.4029 27.0062 91.705 25.486 92.1583V89.5899C25.03 89.5899 24.4219 89.5899 24.1179 89.741V92.6115C23.9659 92.6115 23.6618 92.7626 23.5098 92.9137C23.3578 93.2158 23.3578 93.3669 23.3578 93.518C23.2058 93.3669 23.0538 93.3669 22.9018 93.2158C22.4457 93.3669 21.8376 93.6691 21.3816 93.9712C21.3816 93.9712 21.2296 93.9712 21.2296 94.1223C21.2296 94.1223 21.0776 94.2734 21.0776 94.1223C20.4695 94.4245 19.8614 94.7266 19.2534 94.8777C19.4054 95.6331 18.4933 95.6331 17.5812 95.7842C17.5812 95.7842 17.5812 95.7842 17.7332 95.9352H17.5812C17.2771 96.3885 16.9731 96.8417 16.6691 97.1439C18.7973 96.6906 20.3175 95.9352 21.8376 95.1798C22.5977 94.7266 23.3578 94.4245 24.2699 94.1223V97.446C24.4219 97.7482 24.4219 98.2014 24.2699 98.6547C24.2699 98.6547 24.2699 98.6547 24.4219 98.5036C24.5739 98.5036 24.5739 98.6547 24.726 98.6547C25.03 98.6547 25.334 98.6547 25.6381 98.6547C25.6381 98.8058 25.486 98.9568 25.486 98.9568C25.182 98.8057 25.03 98.8058 24.726 98.6547C24.5739 98.6547 24.4219 98.6547 24.4219 98.6547V110.288C24.5739 110.288 24.726 110.137 24.878 110.137C24.878 110.137 25.334 110.741 25.182 110.741C24.878 111.043 24.726 111.194 24.4219 111.496V119.353C24.4219 119.353 24.4219 119.353 24.5739 119.353C24.726 119.353 25.03 119.504 25.486 119.806C25.182 120.108 25.03 120.41 24.726 120.41C24.726 120.41 24.5739 120.41 24.4219 120.41V121.921H29.5905C29.1344 121.619 28.8304 121.468 28.5264 121.165ZM36.4312 120.712C36.5833 120.712 36.8873 120.863 37.0393 120.863C36.8873 121.014 36.7353 121.165 36.5833 121.165C36.4312 121.165 36.2792 121.014 36.2792 120.863C36.2792 120.712 36.4312 120.712 36.4312 120.712ZM28.9824 92.3093C29.1344 92.3093 29.1344 92.1583 29.2865 92.1583C29.4385 92.1583 29.4385 92.0072 29.5905 92.0072C29.7425 91.8561 29.8945 91.705 30.0465 91.5539C30.0465 91.5539 30.1986 91.705 30.3506 91.705C30.0465 91.8561 29.8945 91.8561 29.5905 92.0072C29.5905 92.1583 29.4385 92.1583 29.4385 92.3093C29.1344 92.3093 28.9824 92.3093 28.9824 92.3093C28.6784 92.4604 28.5264 92.6115 28.2223 92.6115C28.2223 92.6115 28.0703 92.4604 28.0703 92.3093C28.3744 92.4604 28.6784 92.4604 28.9824 92.3093Z" fill="white" fill-opacity="0.6"/>
<path d="M79.2999 110.439C79.4519 110.59 79.6039 110.59 79.7559 110.741C79.6039 110.892 79.4519 110.892 79.2999 111.043V113.763C79.6039 113.46 79.756 113.158 80.06 113.007C80.212 113.309 80.516 113.46 80.6681 113.763V98.8058C80.364 98.9568 79.756 99.1079 79.2999 99.259V110.439Z" fill="white" fill-opacity="0.6"/>
<path d="M79.2999 84.4532V87.777C79.756 87.777 80.212 87.6259 80.6681 87.6259V83.3957C80.364 84 79.908 84.4532 79.4519 85.0576C79.4519 84.9065 79.4519 84.6043 79.2999 84.4532Z" fill="white" fill-opacity="0.6"/>
<path d="M79.2999 120.41H69.1148C68.9628 120.712 68.8108 121.014 68.8108 121.165C68.2027 120.863 67.7466 120.712 67.1386 120.41H58.3216C58.7777 120.712 59.2337 121.317 59.8418 121.619L59.6898 121.77H61.818C61.514 121.468 61.2099 121.317 60.9059 121.014C61.666 121.014 62.4261 120.863 63.1861 120.863C63.1861 121.165 63.1861 121.468 63.1861 121.77H80.6681V114.065C80.212 114.367 79.7559 114.669 79.2999 114.971V120.41Z" fill="white" fill-opacity="0.6"/>
<path d="M46.4643 29.6115C46.1603 29.6115 46.0083 29.7626 45.7042 29.7626C48.8966 18.4317 58.0176 9.06475 70.0269 6.04316C70.0269 6.19424 69.8749 6.34532 69.8749 6.4964C69.8749 6.79856 69.8749 7.2518 69.8749 7.55395C58.9297 10.4245 50.5688 18.8849 47.3764 29.1583C47.0724 29.4604 46.7684 29.6115 46.4643 29.6115ZM117 37.4676C117 38.3741 117 39.4317 117 40.3381C117 40.187 116.848 40.187 116.848 40.187C116.696 40.3381 116.696 40.6403 116.544 40.7914C116.544 40.7914 116.696 40.9424 116.696 41.0935L116.848 40.9424C116.848 41.6978 116.696 42.4532 116.696 43.2086C116.696 43.3597 116.696 43.5108 116.696 43.6619C116.544 44.2662 116.544 45.0216 116.392 45.6259C116.392 45.777 116.392 45.9281 116.392 45.9281C116.088 47.4389 115.784 48.9496 115.176 50.4604C114.872 51.2158 114.72 51.9712 114.416 52.5755V52.7266C113.504 54.8417 112.44 56.9568 111.223 59.0719L110.767 58.0144C110.463 58.0144 110.007 58.0144 109.703 58.0144C109.703 58.1655 109.551 58.3165 109.551 58.3165C110.007 59.0719 109.551 59.3741 108.791 59.6763C108.639 59.6763 108.487 59.9784 108.335 60.1295C108.487 60.1295 108.639 60.2806 108.791 60.1295C109.095 60.1295 109.399 59.9784 109.551 60.1295C110.007 60.2806 110.311 60.2806 110.463 59.9784C110.007 60.5827 109.551 61.187 109.095 61.7914C108.943 61.9424 108.943 61.9424 108.791 62.0935C108.487 62.5468 108.031 63 107.575 63.4532C107.423 63.6043 107.423 63.7554 107.271 63.9065C106.815 64.3597 106.359 64.964 105.903 65.4173L105.751 65.5683C104.687 66.6259 103.471 67.6834 102.254 68.741L102.102 68.8921C101.494 69.3453 100.886 69.7986 100.278 70.2518C98.91 71.1583 97.5419 72.0648 96.1737 72.8201C96.1737 72.6691 96.1737 72.6691 96.0217 72.518C95.5657 72.0647 95.2616 71.4604 94.8056 71.3093C94.6536 71.0072 94.1975 71.0072 93.7415 70.8561C106.815 64.6619 115.176 50.9137 114.264 36.1079C114.416 36.1079 114.72 36.1079 114.872 35.9568C114.872 35.9568 114.872 35.9568 115.024 35.8058C115.024 36.259 115.328 36.7122 115.48 37.1655C115.632 37.6187 115.632 37.9209 115.632 38.3741C116.088 38.0719 116.544 37.7698 117 37.4676C116.848 37.6187 116.848 37.4676 117 37.4676ZM114.568 37.9209C114.72 37.7698 115.024 37.6187 115.328 37.4676C115.024 37.3165 115.024 37.3165 114.872 37.3165C114.72 37.3165 114.416 37.1655 114.416 37.6187C114.416 37.6187 114.568 37.7698 114.568 37.9209ZM116.696 39.4317C116.544 39.4317 116.392 39.4317 116.24 39.4317C116.24 39.2806 116.24 39.2806 116.24 39.2806C116.088 39.1295 115.936 38.9784 115.784 38.8273C115.784 38.9784 115.784 39.2806 115.784 39.4317C115.784 39.4317 115.784 39.5827 115.936 39.5827C115.784 39.5827 115.632 39.5827 115.632 39.5827C115.632 39.5827 115.48 40.036 115.328 40.6403C115.936 40.4892 116.24 40.4892 116.544 40.187C116.696 40.036 116.696 39.5827 116.696 39.4317ZM69.8749 0.906472C70.635 0.755393 71.5471 0.604314 72.3071 0.453235C93.4374 -2.71943 113.2 11.7842 116.392 32.7842C116.544 33.3885 116.544 34.1439 116.696 34.7482C116.696 35.3525 116.848 36.1079 116.848 36.7122C116.696 36.259 116.696 35.9568 116.544 35.5036C116.24 35.5036 115.936 35.5036 115.632 35.3525C115.632 35.2014 115.784 35.0504 115.784 34.8993C115.48 34.8993 115.328 34.7482 115.024 34.7482C114.872 35.0504 114.72 35.3525 114.72 35.6547L114.568 35.5036C114.416 35.5036 114.264 35.5036 114.112 35.5036C114.112 34.5971 113.96 33.6906 113.808 32.9352C112.896 26.5899 110.311 20.8489 106.511 16.1655C106.663 16.0144 106.663 15.8633 106.663 15.8633C106.511 15.7122 106.359 15.7122 106.055 15.7122C99.2141 7.2518 88.5729 2.11511 77.1717 2.41726C77.3237 1.96403 77.3237 1.81295 77.3237 1.81295C77.1717 1.66187 77.0197 1.66187 76.8676 1.51079C76.8676 1.66187 76.7156 1.81295 76.7156 1.81295C76.8676 1.96403 76.8676 2.11511 77.0197 2.41726C75.4995 2.41726 74.1313 2.56834 72.6112 2.8705C69.5708 3.32374 66.6825 4.23021 63.9462 5.28777C63.9462 4.83453 63.7942 4.38129 63.6422 3.92806V3.77698C63.6422 3.6259 63.4902 3.47482 63.4902 3.32374C63.4902 3.47482 63.3382 3.6259 63.3382 3.77698C63.4902 4.38129 63.4902 4.83453 63.6422 5.43885C52.697 10.1223 44.7921 20.0935 42.5119 31.7266C42.3599 31.7266 42.0558 32.0288 41.9038 32.0288C42.0558 32.1799 42.0558 32.3309 42.3599 32.482C42.2079 33.5396 42.0559 34.446 42.0559 35.5036C41.9038 35.2014 41.9038 35.0504 41.7518 34.8993C41.7518 35.2014 41.5998 35.6547 41.5998 36.1079C41.5998 36.259 41.7518 36.4101 41.9038 36.7122C41.9038 36.5611 42.0559 36.5611 42.0559 36.4101C42.0559 36.5611 42.0559 36.7122 42.0559 36.7122C41.2958 36.7122 40.3837 36.8633 39.6236 36.5612C39.6236 36.5612 39.3195 36.5611 39.3195 36.7122C39.4716 33.9928 39.9276 31.2734 40.5357 28.705C40.5357 28.705 40.6877 28.8561 40.8397 29.0072C40.9917 28.8561 41.1438 28.705 41.2958 28.554C41.1438 28.554 40.9917 28.2518 40.8397 28.4029L40.6877 28.554C41.2958 26.1367 42.2079 23.8705 43.424 21.6043C43.424 21.6043 43.424 21.6043 43.424 21.4532C43.728 20.6978 44.1841 20.0935 44.6401 19.3381C44.6401 19.3381 44.9442 19.4892 45.0962 19.6403C45.4002 19.3381 45.5522 19.036 45.7042 18.7338C45.5522 18.5827 45.2482 18.4317 45.0962 18.4317C45.5522 17.6763 46.0083 17.0719 46.4643 16.3165L46.6163 16.1655C47.5284 14.8058 48.5926 13.5971 49.8087 12.2374C49.9607 12.0863 49.9607 12.0863 50.1127 11.9352C50.7208 11.3309 51.1768 10.7266 51.7849 10.2734C51.9369 10.2734 51.9369 10.4245 51.9369 10.7266C51.9369 10.8777 52.0889 11.0288 52.0889 11.0288C52.241 10.8777 52.241 10.8777 52.393 10.7266C52.545 10.5755 52.393 9.97122 53.001 10.1223C53.001 9.97122 53.001 9.82014 53.001 9.66906C53.001 9.51798 53.001 9.51798 52.849 9.51798C54.2172 8.46043 55.5853 7.40287 56.9535 6.34532C56.9535 6.34532 57.1055 6.34532 57.1055 6.19424C58.4736 5.28777 59.9938 4.38129 61.514 3.77698C61.666 3.77698 61.666 3.6259 61.818 3.6259C62.4261 3.32374 63.1861 3.02158 63.7942 2.71942C63.9462 2.71942 64.0983 2.56834 64.0983 2.56834C64.8583 2.26618 65.6184 1.96403 66.5305 1.81295C66.6825 1.81295 66.8345 1.81295 66.9866 1.66187C67.5946 1.51079 68.3547 1.35971 68.9628 1.05755C69.4188 1.05755 69.7229 0.906472 69.8749 0.906472ZM41.2958 33.2374C41.1438 32.9353 40.8397 32.482 40.6877 32.1799C40.6877 32.482 40.6877 32.9353 40.8397 33.2374C40.8397 33.5396 40.9917 33.6906 41.2958 34.1439C41.2958 33.6906 41.4478 33.3885 41.2958 33.2374ZM42.8159 30.518C42.6639 30.0647 42.6639 29.9137 42.5119 29.6115C42.5119 29.9137 42.3599 30.0647 42.5119 30.3669C42.5119 30.6691 42.6639 30.8201 42.6639 31.1223C42.8159 30.9712 42.8159 30.8201 42.8159 30.518ZM43.88 27.1942C43.728 27.0432 43.576 26.8921 43.424 26.8921C43.12 26.8921 42.9679 26.8921 42.6639 27.0432V26.8921C42.2079 27.0432 41.9038 27.1942 41.4478 27.4964C41.7518 28.2518 42.3599 27.6475 42.8159 27.6475C43.12 27.6475 43.272 27.6475 43.576 27.4964C43.728 27.4964 43.728 27.3453 43.88 27.1942ZM45.8563 20.5468C45.7042 20.3957 45.4002 20.2446 45.2482 20.0935C45.0962 19.9424 45.0962 19.7914 45.0962 19.7914C44.9442 20.5468 44.6401 21.4532 44.4881 22.2086L44.6401 22.6619C44.7921 22.6619 44.9442 22.6619 44.9442 22.6619C44.7921 21.6043 45.2482 21.6043 45.4002 21C45.7042 20.6978 45.8563 20.6978 45.8563 20.5468ZM47.3764 17.3741C47.0724 17.3741 46.9204 17.223 46.9204 17.223C46.7684 17.3741 46.6163 17.6763 46.3123 17.8273C46.4643 17.8273 46.6163 17.9784 46.6163 17.9784C46.9204 17.9784 47.0724 17.8273 47.3764 17.3741ZM74.7394 5.28777C76.2596 5.13669 77.7797 5.13669 79.2999 5.13669L79.4519 5.28777C79.756 5.58993 80.212 5.89208 80.8201 5.58993C80.9721 5.43885 81.1241 5.43885 81.2761 5.28777C81.2761 5.28777 81.1241 5.28777 81.1241 5.13669C87.3568 5.58993 93.2854 7.85611 98.15 11.482C97.6939 11.7842 97.2379 11.9353 96.6298 12.2374C90.3971 8.00719 82.7963 5.89208 74.7394 6.64748C74.7394 6.64748 74.7394 6.64748 74.7394 6.4964C74.8914 6.19424 74.8914 5.741 74.7394 5.28777ZM77.1717 5.89208C77.3237 6.04316 77.4757 6.34532 77.6277 6.4964C77.6277 6.34532 77.6277 6.19424 77.6277 6.04316C77.6277 5.89208 77.4757 5.741 77.3237 5.58993C77.3237 5.58993 77.3237 5.741 77.1717 5.89208ZM108.335 53.3309C108.183 53.3309 108.183 53.3309 108.031 53.482C108.031 53.1799 107.879 52.8777 107.879 52.5755C107.879 52.4245 107.879 52.2734 108.031 51.9712C108.183 52.5755 108.335 52.8777 108.335 53.3309C111.375 47.2878 112.592 40.4892 111.527 33.5396C111.071 30.8201 110.463 28.2518 109.399 25.9856C109.095 26.2878 108.943 26.741 108.639 27.0432C108.639 27.0432 108.639 27.0432 108.487 27.0432L108.335 27.1942C108.639 28.1007 109.095 29.1583 109.247 30.2158C109.399 30.2158 109.399 30.2158 109.399 30.2158C109.551 30.3669 109.551 30.518 109.703 30.8201C109.703 30.8201 109.551 30.9712 109.399 30.9712C109.399 30.9712 109.399 30.9712 109.247 30.9712C109.551 31.8777 109.703 32.9352 109.855 33.8417C109.855 34.295 110.007 34.7482 110.007 35.3525C110.311 35.3525 110.463 35.3525 110.615 35.2014C110.463 35.5036 110.311 35.9568 110.007 36.259C110.919 48.6475 104.535 60.1295 94.3495 66.1727C91.4612 67.8345 88.2689 69.1942 84.9245 69.9496C84.6205 70.4029 84.4685 70.705 84.1644 71.0072C84.1644 70.8561 84.0124 70.554 84.0124 70.4029C84.0124 70.2518 84.0124 70.2518 84.0124 70.1007C83.7084 70.1007 83.2523 70.2518 82.7963 70.2518C80.516 70.554 78.2358 70.705 75.9555 70.554C76.1076 70.8561 76.4116 71.1583 76.5636 71.4604C76.5636 71.6115 76.7156 71.7626 76.7156 72.0648C78.6918 72.0648 80.8201 72.0647 82.7963 71.7626C82.7963 71.6115 82.6443 71.6115 82.6443 71.4604C82.6443 71.3093 82.7963 71.1583 82.7963 71.1583C83.1003 71.3093 83.5564 71.3094 83.8604 71.6115C94.9576 69.4964 103.775 62.5468 108.335 53.3309ZM46.9204 46.2302C46.6163 45.3237 46.4643 44.2662 46.3123 43.3597C46.0083 41.0935 45.8563 38.9784 46.0083 36.8633C45.5522 36.8633 45.0962 36.5611 44.7921 36.4101C44.9442 36.259 45.2482 36.1079 45.5522 35.8058C45.7042 35.9568 46.0083 35.9568 46.1603 36.1079C46.3123 34.8993 46.4643 33.8417 46.6163 32.6331C46.3123 32.482 46.1603 32.3309 45.8563 32.1799C46.1603 32.0288 46.4643 31.7266 46.7684 31.5755C46.9204 31.2734 46.9204 30.9712 47.0724 30.6691H46.9204C46.6163 30.6691 46.4643 30.518 46.1603 30.518C45.8563 30.6691 45.7042 30.8201 45.4002 30.9712C45.0962 32.3309 44.7921 33.8417 44.6401 35.2014C44.7921 35.2014 44.9442 35.2014 45.2482 35.2014L45.4002 35.3525C45.4002 35.5036 45.4002 35.6547 45.2482 35.8058C45.0962 35.9568 44.7921 36.259 44.6401 36.4101C44.6401 37.0144 44.4881 37.4676 44.4881 38.0719C44.4881 38.0719 44.4881 38.0719 44.6401 38.0719C44.7921 38.0719 45.0962 38.223 45.2482 38.223C45.2482 38.3741 45.2482 38.5252 45.0962 38.5252C44.9442 38.6763 44.6401 38.6763 44.4881 38.8273C44.4881 40.3381 44.6401 42 44.7921 43.5108C44.9442 44.1151 44.9442 44.7194 45.0962 45.3237C45.8563 45.6259 46.3123 45.9281 46.9204 46.2302ZM76.1076 70.554C75.9555 70.554 75.8035 70.554 75.4995 70.554V70.705C75.6515 70.4029 76.2596 72.2158 76.1076 70.554ZM70.1789 6.04316C70.1789 6.19424 70.3309 6.34532 70.3309 6.34532C70.3309 6.64748 70.4829 7.10072 70.4829 7.40287C71.395 7.10072 72.4592 6.94964 73.3713 6.79856C73.5233 6.79856 73.5233 6.79856 73.6753 6.79856C73.6753 6.64748 73.5233 6.4964 73.5233 6.34532L73.8273 5.89208C74.1313 6.19424 74.2834 6.19424 74.4354 5.741C74.4354 5.58993 74.4354 5.43885 74.4354 5.43885C73.9793 5.43885 73.5233 5.58993 73.2192 5.58993C72.1551 5.58993 71.091 5.89208 70.1789 6.04316ZM97.3899 12.8417C98.91 13.8993 100.278 15.259 101.646 16.6187C101.798 16.4676 102.558 16.6187 102.558 16.7698C102.558 17.5252 102.71 17.6763 103.471 17.5252C103.775 17.5252 104.079 17.3741 104.231 17.223C102.558 15.259 100.734 13.5971 98.606 12.0863C98.302 12.3885 97.8459 12.5396 97.3899 12.8417ZM40.2317 46.2302C40.0796 45.6259 39.9276 44.8705 39.9276 44.2662C39.7756 43.6619 39.7756 43.0576 39.6236 42.3022C39.6236 41.6978 39.4716 41.2446 39.4716 40.6403C39.4716 40.4892 39.4716 40.4892 39.4716 40.3381C39.4716 39.1295 39.4716 37.9209 39.4716 36.5612C39.6236 36.8633 40.2317 37.1655 39.9276 37.7698C40.2317 37.6187 40.5357 37.6187 40.6877 37.3165C41.1438 36.8633 41.5998 36.8633 42.2079 37.1655C42.2079 39.2806 42.2079 41.3957 42.6639 43.5108C42.6639 43.813 42.8159 44.1151 42.8159 44.5683C42.6639 44.5683 42.5119 44.7194 42.3599 44.8705C42.5119 45.0216 42.6639 45.0216 42.8159 45.1727C46.0083 61.036 59.3857 72.6691 75.0434 73.8777C75.3475 74.482 75.6515 75.0863 75.9555 74.9352C76.1076 74.9352 76.2596 74.7842 76.4116 74.6331C76.2596 74.3309 76.2596 74.1799 76.1076 74.0288C78.0838 74.1799 80.06 74.0288 82.0362 73.8777C82.0362 74.0288 82.1882 74.1799 82.1882 74.482C82.1882 74.1799 82.3402 74.0288 82.3402 73.8777C82.7963 73.8777 83.1003 73.7266 83.5564 73.7266C83.8604 73.7266 84.3165 73.5755 84.6205 73.5755C85.2285 74.6331 85.9886 74.7842 86.5967 75.5396C86.5967 75.5396 86.7487 75.3885 86.9007 75.3885C86.7487 75.0863 86.5967 74.7842 86.5967 74.6331C86.2927 74.3309 85.8366 73.8777 85.5326 73.4245C87.8128 72.9712 90.0931 72.2158 92.0693 71.3093C92.2213 71.4604 92.2213 71.6115 92.3733 71.6115C93.2854 72.0648 94.3495 72.3669 95.2616 72.8201C93.7415 73.5755 92.0693 74.1799 90.3971 74.7842C90.3971 74.6331 90.3971 74.6331 90.2451 74.482C90.2451 74.6331 90.2451 74.7842 90.2451 74.9352C90.0931 74.9352 89.789 75.0863 89.637 75.0863C89.485 75.0863 89.485 75.0863 89.333 75.2374C88.8769 75.3885 88.4209 75.5396 87.9648 75.6906C87.8128 75.6906 87.5088 75.8417 87.3568 75.8417C86.9007 75.9928 86.5967 75.9928 86.1407 76.1439C85.9886 76.1439 85.8366 76.295 85.5326 76.295C84.9245 76.446 84.3165 76.446 83.8604 76.5971C83.8604 76.446 83.7084 76.446 83.7084 76.295C83.5564 76.1439 83.5564 75.9928 83.4043 75.9928C83.4043 76.1439 83.4043 76.446 83.4043 76.446V76.5971C74.2834 77.9568 65.3144 75.8417 57.8656 71.4604C57.4095 71.1583 56.8015 70.8561 56.3454 70.4029C55.7373 70.1007 55.2813 69.6475 54.8252 69.3453C54.8252 69.3453 54.8252 69.3453 54.6732 69.1942C54.2172 68.8921 53.7611 68.4388 53.3051 68.1367L53.1531 67.9856C52.697 67.6834 52.241 67.2302 51.9369 66.9281L51.7849 66.777C51.3289 66.4748 51.0248 66.0216 50.5688 65.7194C50.4168 65.7194 50.4168 65.5683 50.4168 65.4173C50.1127 65.1151 49.6567 64.6619 49.3526 64.3597C49.2006 64.2086 49.2006 64.2086 49.0486 64.0576C48.7446 63.7554 48.4405 63.3022 48.1365 63C47.9845 62.8489 47.9845 62.6978 47.8325 62.6978C47.5284 62.3957 47.2244 61.9424 46.9204 61.6403C46.7684 61.4892 46.7684 61.3381 46.6163 61.187C46.3123 60.8849 46.1603 60.4317 45.8563 60.1295C45.7042 59.9784 45.7042 59.8273 45.5522 59.6763C45.4002 59.3741 45.0962 58.9209 44.9442 58.6187C44.7921 58.4676 44.6401 58.1655 44.6401 58.0144C44.4881 57.7122 44.1841 57.4101 44.0321 56.9568C43.88 56.8058 43.728 56.5036 43.728 56.3525C43.576 56.0504 43.424 55.7482 43.272 55.295C43.12 54.9928 43.12 54.8417 42.9679 54.5396C42.8159 54.2374 42.6639 53.9352 42.5119 53.6331C42.3599 53.3309 42.3599 53.0288 42.2079 52.8777C42.0558 52.5755 41.9038 52.2734 41.9038 51.9712C41.7518 51.6691 41.7518 51.3669 41.5998 51.0647C41.4478 50.7626 41.4478 50.4604 41.2958 50.1583C41.1438 49.8561 41.1438 49.4029 40.9917 49.1007C40.8397 48.7986 40.8397 48.4964 40.6877 48.3453C40.5357 47.8921 40.5357 47.5899 40.3837 47.1367C40.3837 46.6835 40.2317 46.5324 40.2317 46.2302ZM40.8397 40.9424C40.8397 41.2446 40.9917 41.3957 41.2958 41.8489C41.2958 41.3957 41.4478 41.0935 41.4478 40.9424C41.2958 40.6403 40.9917 40.187 40.8397 39.8849C40.8397 40.3381 40.8397 40.6403 40.8397 40.9424ZM45.5522 46.2302C46.0083 46.3813 46.3123 46.3813 46.7684 46.5324C46.9204 46.5324 47.0724 46.5324 47.0724 46.5324C50.4168 59.8273 61.97 69.3453 75.4995 70.554L75.6515 70.705C75.4995 71.1583 75.3475 71.7626 75.3475 71.9137C61.0579 70.554 48.8966 60.4317 45.5522 46.2302ZM57.8656 63.4532C57.5615 63.4532 57.4095 63.3022 57.1055 63.3022C56.9535 63.3022 56.8015 63.4532 56.6494 63.6043C56.8015 63.7554 57.1055 64.0575 57.2575 64.2086C57.2575 64.2086 57.5615 64.0575 57.7136 63.9065C57.7136 63.7554 57.7136 63.6043 57.8656 63.4532ZM74.2834 63.4532C74.2834 63.3022 74.4354 63 74.7394 62.2446C73.2192 62.0935 71.8511 61.6403 70.4829 61.187C70.787 61.6403 71.091 62.0935 71.243 62.5468C71.395 62.8489 71.5471 63.1511 71.5471 63.4532C72.4592 63.7554 73.3713 63.9065 74.2834 64.0576C74.4354 63.7554 74.2834 63.6043 74.2834 63.4532ZM77.3237 13.1439C77.3237 13.295 77.3237 13.446 77.1717 13.8993C77.0197 13.446 76.8676 13.295 76.8676 13.1439C76.8676 12.9928 76.8676 12.9928 77.0197 12.8417H76.8676C76.8676 12.9928 76.7156 12.9928 76.7156 13.1439C76.4116 13.446 75.9555 13.446 75.1954 13.5971C75.3475 13.446 75.3475 13.1439 75.4995 12.9928C75.1955 12.9928 74.7394 12.9928 74.4354 13.1439C74.2834 13.1439 74.2834 13.1439 74.1313 13.1439C74.1313 13.295 74.1313 13.446 73.8273 13.5971C73.3713 13.8993 72.9152 14.0504 72.6112 14.3525C72.4592 14.5036 72.4592 14.9568 72.4592 15.259C73.2192 15.1079 73.9793 14.9568 74.8914 14.8058C75.8035 14.6547 76.7156 14.6547 77.6277 14.5036C77.7797 14.2014 77.7797 14.0504 77.9318 13.5971C78.2358 13.5971 78.5398 13.5971 78.8438 13.5971C78.8438 13.295 78.8438 13.1439 78.8438 12.9928C78.9959 13.1439 78.9959 13.295 79.1479 13.5971V13.7482C79.2999 13.7482 79.4519 13.7482 79.6039 13.8993C79.756 14.0504 79.6039 14.3525 79.6039 14.6547C80.668 14.6547 81.7322 14.8058 82.7963 14.9568C82.7963 14.9568 82.7963 14.9568 82.9483 14.9568C88.8769 16.1655 94.3495 19.4892 97.8459 24.1727C97.9979 24.1727 98.15 24.0216 98.454 24.0216C98.302 24.1727 98.302 24.4748 98.302 24.777C99.0621 25.8345 99.6701 26.8921 100.278 28.1007C100.582 27.9496 100.886 27.7986 101.038 27.9496C101.494 28.1007 101.95 28.2518 102.254 28.2518C97.6939 18.7338 87.8128 12.3885 77.1717 12.8417C77.1717 12.9928 77.3237 13.1439 77.3237 13.1439ZM53.1531 32.3309C53.3051 32.3309 53.6091 32.3309 53.7611 32.3309C53.6091 32.482 53.3051 32.6331 53.1531 32.7842C52.849 33.5396 52.697 34.295 52.697 35.0504C52.849 35.0504 53.001 35.2014 53.1531 35.3525C53.001 35.5036 52.697 35.5036 52.697 35.6547C52.393 37.6187 52.393 39.7338 52.697 41.8489C52.849 42.6043 53.1531 43.3597 53.4571 43.964C53.6091 44.2662 54.2172 44.4173 54.8252 44.7194C54.5212 45.3237 54.3692 46.2302 53.9131 46.3813C54.2172 47.741 54.8252 49.1007 55.4333 50.3093C56.0414 50.1583 56.6494 50.0072 57.2575 49.8561C56.0414 47.4388 55.1293 44.8705 54.6732 42.1511C53.001 31.5755 58.6257 21.6043 67.7467 17.0719C68.0507 16.3165 68.2027 15.5611 68.3547 14.8058C67.8987 14.9568 67.4426 15.1079 67.1386 15.4101C67.1386 15.5611 66.9866 15.7122 66.9866 15.8633C66.9866 15.7122 66.8345 15.7122 66.8345 15.5611C66.3785 15.7122 66.0745 16.0144 65.7704 16.1655V16.3165C65.7704 16.3165 65.7704 16.1655 65.6184 16.1655C59.2337 19.7914 54.8252 25.6835 53.1531 32.3309ZM68.9628 15.4101C68.9628 15.7122 69.1148 16.0144 69.2668 16.3165C70.1789 16.0144 71.091 15.5611 72.0031 15.4101C71.6991 15.259 71.243 15.1079 71.091 14.8058C70.787 14.2014 71.243 14.0504 71.5471 13.8993C71.6991 13.8993 71.8511 13.7482 72.0031 13.5971C70.787 13.8993 69.7229 14.2014 68.6587 14.6547C68.8108 14.9568 68.8108 15.259 68.9628 15.4101ZM102.406 32.6331C102.71 32.6331 103.014 32.482 103.319 32.482C103.471 33.2374 103.623 33.9928 103.775 34.7482C104.991 42.6043 102.406 50.1583 97.5419 55.7482C97.5419 55.446 97.5419 55.1439 97.5419 54.8417C97.3899 54.6906 97.3899 54.3885 97.2379 54.3885C97.0858 54.3885 96.9338 54.5396 96.9338 54.5396C96.9338 55.1439 96.9338 55.7482 96.9338 56.3525C93.4374 60.1295 88.7249 62.6978 83.4043 63.7554C83.2523 63.4532 82.7963 63 82.4923 62.6978C82.4923 62.6978 82.1882 62.8489 82.3402 63C82.3402 63.3022 82.4923 63.6043 82.4923 63.9065C82.3402 63.9065 82.3402 63.9065 82.1882 63.9065C79.908 64.2086 77.4757 64.2086 75.1954 64.0576C75.1954 63.9065 75.1954 63.7554 75.1954 63.6043C75.1954 63.1511 75.0434 62.6978 74.8914 62.2446C77.1717 62.5468 79.4519 62.5468 81.8842 62.2446C94.9576 60.2806 104.079 48.0432 102.102 35.0504C102.102 34.8993 102.102 34.7482 102.102 34.7482C102.862 34.295 102.862 33.9928 102.406 32.6331ZM79.4519 63.1511C79.1479 63.1511 78.6918 63.3022 78.3878 63.3022C78.3878 63.4532 78.3878 63.7554 78.3878 63.7554C78.6918 63.7554 79.1479 63.7554 79.4519 63.7554C79.6039 63.6043 79.4519 63.4532 79.4519 63.1511ZM62.8821 59.223C62.8821 58.9209 62.7301 58.6187 62.7301 58.3165C63.0341 58.7698 63.1861 59.223 63.4902 59.6763C64.0982 60.1295 64.7063 60.4317 65.3144 60.7338C65.3144 59.9784 65.1624 59.3741 65.1624 58.6187C65.1624 58.6187 65.1624 58.6187 65.1624 58.4676C61.97 56.5036 59.3857 53.7842 57.4095 50.4604C55.7373 50.7626 55.7373 51.2158 56.9535 53.0288C57.1055 53.1799 57.2575 53.482 57.4095 53.6331C58.9297 55.8993 60.9059 57.7122 62.8821 59.223ZM68.5067 60.4317C68.3547 60.7338 68.2027 60.8849 68.0507 61.187C68.3547 61.036 68.6587 60.8849 68.9628 60.7338C68.9628 60.7338 68.9628 60.8849 69.1148 60.8849C69.2668 61.187 69.5708 61.9424 69.5708 62.2446C69.5708 62.3957 69.5708 62.5468 69.4188 62.6978C68.3547 62.3957 67.4426 61.9424 66.5305 61.3381C66.5305 60.5827 66.3785 59.9784 66.3785 59.3741C66.3785 59.3741 66.3785 59.3741 66.3785 59.223C66.8345 59.6763 67.5946 59.9784 68.5067 60.4317ZM67.7467 61.4892C67.7467 61.3381 67.5946 60.8849 67.4426 60.7338C67.2906 60.7338 67.2906 60.8849 66.8345 61.3381C67.1386 61.6403 67.4426 61.7914 67.4426 61.7914C67.5946 61.7914 67.7467 61.6403 67.7467 61.4892ZM105.903 22.0576C106.055 22.0576 106.207 22.0576 106.359 22.0576C106.359 22.2086 106.207 22.3597 106.207 22.3597C106.967 23.7194 107.575 24.9281 108.183 26.4388C108.639 26.1367 108.791 25.5324 109.247 25.5324C108.031 22.6619 106.511 20.0935 104.535 17.6763C104.231 17.9784 103.775 18.2806 103.319 18.4317C104.231 19.6403 105.143 20.8489 105.903 22.0576Z" fill="white" fill-opacity="0.6"/>
<path d="M75.1955 28.1007H75.9555H84.0124C86.9007 28.1007 89.789 28.1007 92.6774 28.1007C92.8294 28.1007 92.9814 28.1007 93.1334 28.1007C93.1334 28.1007 93.2854 28.1007 93.2854 28.2518C90.8532 30.2158 88.5729 32.0288 86.1407 33.9928C86.2927 33.9928 86.2927 33.9928 86.2927 34.1439C86.5967 34.295 86.5967 34.446 86.5967 34.7482C86.5967 34.8993 86.2927 35.0504 86.1407 34.8993C85.9886 34.7482 85.8366 34.5971 85.6846 34.446C85.5326 34.446 85.5326 34.446 85.5326 34.5971C84.9245 35.2014 84.1644 35.6547 83.5564 36.259L83.4043 36.4101C83.7084 36.4101 83.7084 36.5611 83.7084 36.8633C83.7084 37.1655 83.7084 37.3165 83.8604 37.6187C84.0124 37.6187 84.0124 37.4676 84.1644 37.4676C85.6846 36.259 89.029 33.5396 89.333 33.2374C89.181 33.0863 89.181 32.9352 89.029 32.9352C89.181 32.6331 89.181 32.6331 89.333 32.6331C89.637 32.6331 89.637 32.7842 89.7891 32.9352C90.0931 32.7842 90.2451 32.482 90.5491 32.3309C91.7653 31.4245 92.9814 30.3669 94.1975 29.4604C94.3495 29.3093 94.3495 29.3093 94.6536 29.3093C94.6536 29.4604 94.6536 29.7626 94.6536 29.9137C94.6536 35.0504 94.6536 40.187 94.6536 45.3237C94.6536 45.928 94.6536 46.5324 94.6536 47.1367C94.6536 47.741 94.8056 48.3453 94.6536 48.9496C94.6536 49.2518 94.8056 49.4029 95.1096 49.5539C95.2616 49.5539 95.4137 49.705 95.4137 49.705C95.5657 49.8561 95.5657 50.0072 95.4137 50.0072C95.1096 50.1583 94.8056 50.4604 94.3495 50.4604C94.1975 50.3093 94.0455 50.1583 93.8935 50.0072C93.8935 49.8561 94.0455 49.5539 94.0455 49.4029H93.4374H84.9245C82.9483 49.4029 80.8201 49.4029 78.8439 49.4029C78.6918 49.4029 78.5398 49.4029 78.3878 49.4029C78.2358 49.4029 78.2358 49.4029 78.0838 49.4029C77.9318 49.4029 77.7797 49.4029 77.6277 49.4029C75.9555 49.4029 74.4354 49.4029 72.7632 49.4029C72.6112 49.4029 72.6112 49.4029 72.4592 49.4029C72.7632 50.0072 72.7632 50.0072 72.3071 50.3093C71.8511 50.0072 71.395 50.0072 70.939 50.0072C70.939 50.0072 70.939 50.0072 70.787 50.0072C70.635 50.0072 70.3309 50.0072 70.3309 49.705C70.3309 49.5539 70.1789 49.4029 69.8749 49.4029C69.7229 49.4029 69.4188 49.4029 69.2668 49.4029C67.7466 49.4029 66.3785 49.4029 64.8583 49.4029C63.9462 49.4029 62.8821 49.4029 61.97 49.4029C61.818 49.4029 61.666 49.4029 61.666 49.2518C61.514 48.9496 61.666 48.6475 61.514 48.3453C61.362 48.3453 61.0579 48.4964 60.9059 48.4964C60.7539 48.4964 60.4499 48.4964 60.2978 48.4964V48.6475C60.2978 49.1007 60.2978 49.5539 60.2978 50.0072C60.2978 50.4604 60.6019 50.7626 61.0579 50.7626C61.514 50.7626 61.97 50.7626 62.4261 50.7626C62.4261 50.7626 62.5781 50.7626 62.7301 50.6115C62.5781 50.4604 62.5781 50.4604 62.5781 50.3093L62.4261 50.1583C62.4261 50.0072 62.4261 49.8561 62.5781 49.8561C62.7301 49.8561 62.8821 49.8561 62.8821 50.0072C63.0341 50.1583 63.0341 50.3093 63.0341 50.4604C63.1861 50.7626 63.3382 50.9137 63.6422 50.7626C63.7942 50.7626 63.9462 50.7626 64.0983 50.7626C65.9224 50.7626 67.7466 50.7626 69.5708 50.7626C74.2834 50.7626 78.9959 50.7626 83.7084 50.7626C83.8604 50.7626 84.0124 50.7626 84.1644 50.7626C84.3164 50.7626 84.3165 50.7626 84.4685 50.7626C84.4685 50.6115 84.4685 50.4604 84.6205 50.4604C84.7725 50.1583 84.9245 50.0072 85.0765 49.8561C85.3806 49.705 85.6846 49.8561 85.6846 50.1583C85.6846 50.3093 85.6846 50.4604 85.6846 50.4604C85.6846 50.6115 85.6846 50.6115 85.6846 50.7626C85.8366 50.9137 85.9886 50.9137 86.1407 50.9137C89.181 50.9137 92.0693 50.9137 95.1096 50.9137C95.2616 50.9137 95.4137 50.9137 95.5657 50.9137C95.8697 50.9137 96.0217 50.6115 96.1737 50.4604C96.1737 50.3093 96.1737 50.1583 96.1737 50.0072C96.1737 47.741 96.1737 45.4748 96.1737 43.2086C96.1737 43.0575 96.1737 42.9065 96.1737 42.7554C96.0217 42.7554 96.0217 42.7554 95.8697 42.6043C95.5657 42.4532 95.4137 42.3021 95.4137 42.1511C95.4137 42 95.5657 41.6978 95.7177 41.6978C95.8697 41.6978 95.8697 41.6978 96.0217 41.6978C96.0217 41.5468 96.0217 41.5468 96.0217 41.5468C96.0217 40.3381 96.0217 39.2806 96.0217 38.0719C96.0217 37.9209 96.0217 37.7698 95.8697 37.6187C95.8697 37.4676 95.7177 37.4676 95.7177 37.3165V37.1655C95.8697 37.1655 95.8697 37.0144 96.0217 37.0144C96.0217 36.8633 96.0217 36.7122 96.0217 36.5611C96.0217 36.1079 96.0217 35.6547 96.0217 35.2014C96.0217 33.9928 96.0217 32.6331 96.0217 31.4245C96.0217 31.2734 96.0217 31.1223 95.8697 30.8201C95.7177 30.8201 95.5657 30.8201 95.4137 30.8201C95.4137 30.6691 95.1096 30.6691 95.2616 30.3669C95.2616 30.2158 95.4137 30.0647 95.5657 29.9137C95.7177 29.7626 95.8697 29.7626 96.1737 29.6115C96.1737 29.1583 96.1737 28.705 96.1737 28.1007C96.1737 27.9496 96.1737 27.7986 96.1737 27.7986C96.1737 27.3453 95.8697 27.1942 95.5657 27.1942C95.4137 27.1942 95.4137 27.1942 95.2616 27.1942C93.5895 27.1942 91.9173 27.1942 90.0931 27.1942C89.9411 27.1942 89.7891 27.1942 89.7891 27.1942V27.3453C89.7891 27.4964 89.789 27.4964 89.637 27.6475C89.485 27.6475 89.485 27.6475 89.333 27.4964C89.333 27.4964 89.333 27.3453 89.181 27.1942C89.029 27.1942 88.8769 27.1942 88.8769 27.1942C86.1406 27.1942 79.2999 27.1942 78.8439 27.1942C78.6918 27.3453 78.6918 27.6475 78.3878 27.6475C78.2358 27.4964 78.2358 27.3453 78.0838 27.1942C77.7797 27.1942 75.8035 27.0432 75.3475 27.1942C75.3475 27.1942 75.3475 27.1942 75.1955 27.1942C75.3475 27.3453 75.3475 27.4964 75.4995 27.4964C75.6515 27.7986 75.6515 27.9496 75.3475 28.1007C75.1955 27.9496 75.0434 27.9496 75.1955 28.1007Z" fill="white" fill-opacity="0.6"/>
<path d="M61.2099 26.741C61.2099 26.8921 61.2099 26.8921 61.2099 26.8921C61.3619 27.0432 61.2099 27.3453 61.0579 27.4964C60.9059 27.7986 60.6019 28.1007 60.4498 28.4029C60.2978 28.554 60.2978 28.705 60.2978 28.8561C60.2978 29.1583 60.2978 29.4604 60.2978 29.7626C60.2978 30.6691 60.2978 31.5755 60.2978 32.482C60.2978 32.6331 60.2978 32.7842 60.4498 32.7842C60.6019 32.7842 60.9059 32.6331 61.0579 32.6331C61.0579 32.7842 61.2099 32.7842 61.2099 32.9353C61.3619 33.0863 61.3619 33.0863 61.514 33.0863C61.514 33.3885 61.3619 33.5396 61.2099 33.6907C61.0579 33.9928 60.6019 34.1439 60.2978 34.1439C60.2978 34.295 60.2978 34.446 60.2978 34.5971C60.2978 35.6547 60.2978 36.5612 60.2978 37.6187C60.2978 37.9209 60.2978 38.223 60.6019 38.223C60.7539 38.223 60.7539 38.3741 60.7539 38.3741C60.9059 38.5252 60.9059 38.6763 60.9059 38.8273C60.6019 38.9784 60.6019 38.9784 60.2978 38.9784C60.1458 38.9784 60.1458 38.9784 59.9938 38.9784C59.9938 39.4317 59.9938 43.2086 59.9938 43.6619C60.2978 43.6619 60.4498 43.813 60.6019 43.964C60.6019 43.964 60.7539 44.1151 60.9059 44.1151C61.0579 44.2662 61.0579 44.4173 60.9059 44.5683C60.7539 44.7194 60.6019 44.8705 60.2978 44.8705H60.1458C60.1458 45.1727 60.1458 46.5324 60.1458 46.8345C60.1458 46.8345 60.1458 46.8345 60.2978 46.9856C60.4498 46.8345 60.7539 46.5324 60.7539 46.3813C60.9059 46.0791 61.0579 45.9281 61.3619 45.9281C61.3619 45.4748 61.3619 36.7122 61.3619 36.259C61.2099 36.1079 61.2099 36.1079 61.0579 35.9568C61.2099 35.9568 61.2099 35.8058 61.2099 35.5036C61.2099 35.3525 61.2099 35.2014 61.3619 34.8993C61.514 34.7482 61.666 34.5971 61.818 34.446C61.818 33.8417 61.818 33.2374 61.818 32.7842C61.818 32.482 61.818 32.1799 61.514 32.0288C61.3619 32.0288 61.2099 31.7266 61.2099 31.5755C61.2099 31.1223 61.2099 30.6691 60.9059 30.2158C60.9059 30.0648 60.9059 30.0648 60.9059 29.9137H60.7539C60.6019 29.7626 60.4498 29.7626 60.4498 29.4604C60.6019 29.1583 60.7539 28.705 61.0579 28.554C61.2099 28.4029 61.514 28.4029 61.514 28.705C61.666 29.0072 61.818 29.0072 62.122 29.3094C64.8583 31.4245 67.4426 33.5396 70.1789 35.6547C71.243 36.5612 72.3071 37.3166 73.3713 38.223C73.6753 38.3741 73.9793 38.6763 74.2833 38.8273C74.5874 38.9784 74.7394 38.9784 75.0434 38.8273C75.1954 38.6763 75.4995 38.5252 75.6515 38.3741C75.4995 38.223 75.4995 38.223 75.4995 38.223C74.2834 37.3166 73.2192 36.4101 72.0031 35.5036C72.0031 35.5036 71.8511 35.3525 71.6991 35.3525C71.6991 35.3525 71.6991 35.3525 71.5471 35.5036C71.395 35.8058 71.243 35.8058 71.091 35.6547C70.939 35.5036 70.787 35.5036 70.6349 35.3525C70.3309 35.0504 70.1789 34.8993 70.3309 34.446C70.3309 34.446 70.3309 34.446 70.3309 34.295C70.0269 33.9928 69.7229 33.6907 69.2668 33.5396C69.2668 33.6907 69.1148 33.8417 69.1148 33.8417C69.1148 33.9928 69.1148 33.9928 69.1148 34.1439C68.9628 34.1439 68.8108 33.9928 68.5067 33.9928C68.5067 33.9928 68.5067 33.9928 68.3547 33.9928C68.0507 33.8417 68.0507 33.5396 68.2027 33.2374C68.2027 33.2374 68.3547 33.0863 68.5067 33.0863C68.3547 32.9353 68.2027 32.7842 68.0507 32.7842C67.5946 32.3309 67.1386 32.0288 66.5305 31.5755C65.3144 30.6691 64.0982 29.7626 63.0341 28.705C62.8821 28.705 62.8821 28.554 62.7301 28.4029C62.8821 28.4029 63.0341 28.4029 63.0341 28.2518C63.1861 28.1007 63.3382 28.1007 63.4902 28.2518C63.6422 28.4029 63.9462 28.4029 64.0982 28.4029C64.7063 28.4029 65.3144 28.4029 65.9224 28.4029C66.2265 28.4029 66.6825 28.4029 66.9866 28.1007H67.1386C67.2906 28.4029 67.5946 28.4029 67.8987 28.4029C69.5708 28.4029 71.243 28.4029 72.9152 28.4029C73.0672 28.4029 73.3713 28.4029 73.5233 28.4029C73.8273 28.4029 73.8273 28.4029 73.9793 27.9496C73.5233 27.7986 73.5233 27.3453 73.3713 27.0432C71.5471 27.0432 69.8749 27.0432 68.0507 27.0432C67.8987 27.0432 67.8987 27.0432 67.7466 27.0432C67.5946 27.3453 67.5946 27.6475 67.2906 27.7986C67.1386 27.6475 66.9866 27.6475 66.8345 27.4964C66.8345 27.3453 66.8345 27.1942 66.8345 27.0432H66.6825C65.3144 26.741 63.3382 26.741 61.2099 26.741Z" fill="white" fill-opacity="0.6"/>
<path d="M83.1003 36.4101C81.7322 37.4676 80.516 38.5252 79.1479 39.5827C78.9959 39.7338 78.9959 39.7338 78.8439 39.8849C78.9959 40.187 79.2999 40.4892 79.4519 40.6403C79.6039 40.7914 79.756 40.7914 80.06 40.6403L80.212 40.4892C80.9721 39.8849 81.7322 39.2806 82.4923 38.5252C82.6443 38.5252 82.6443 38.3741 82.6443 38.3741C82.6443 38.0719 82.3402 37.9209 82.1882 37.9209C82.1882 37.7698 82.1882 37.6187 82.3402 37.6187C82.4923 37.4676 82.6443 37.3165 82.7963 37.1655C82.9483 36.8633 83.1003 36.7122 83.1003 36.4101Z" fill="white" fill-opacity="0.6"/>
<path d="M76.1076 38.5252C76.1076 38.9784 75.6515 39.1295 75.1954 39.4317C75.3475 39.5827 75.3475 39.5827 75.4995 39.7338C76.2596 40.3381 77.1717 40.9424 77.9317 41.6978C78.0838 41.6978 78.0838 41.8489 78.2358 41.8489C78.3878 42 78.6918 42 78.8438 41.8489C79.1479 41.6978 79.4519 41.3957 79.6039 41.2446C79.2999 41.0935 78.9959 40.9424 78.8438 40.7914C78.5398 40.6403 78.2358 40.6403 77.9317 40.4892C77.9317 40.3381 77.9317 40.187 78.0838 40.036C77.1717 39.2806 76.4116 38.6763 76.1076 38.5252Z" fill="white" fill-opacity="0.6"/>
</g>
<defs>
<clipPath id="clip0_15481_6703">
<rect width="147" height="126" fill="white" transform="translate(-30)"/>
</clipPath>
</defs>
</svg>
