<svg width="220" height="85" viewBox="0 0 220 85" fill="none" xmlns="http://www.w3.org/2000/svg">
<path d="M93.7794 31.8064C101.685 31.5322 106.32 32.9032 110.954 34.2742C115.589 35.6452 120.223 37.0161 127.856 37.0161C127.856 36.7419 127.856 36.7419 128.129 36.7419C128.402 36.7419 128.947 37.0161 129.219 37.0161C130.31 37.0161 131.128 37.0161 132.218 36.7419L131.945 34.8226C128.402 35.0968 125.403 35.0968 122.949 34.8226C122.677 35.0968 122.404 35.0968 122.131 35.371C121.859 35.0968 121.586 34.8226 121.586 34.8226C118.86 34.5484 116.406 34 114.226 33.4516C113.135 33.7258 112.317 34 111.227 34C110.136 34 109.046 33.7258 108.228 33.7258C108.773 33.1774 109.591 32.629 110.409 32.0806C106.047 30.7097 101.14 29.6129 93.5068 29.8871C93.2342 30.4355 93.2342 31.2581 93.7794 31.8064Z" fill="#D7D2D1"/>
<path d="M90.2354 31.8064C82.3296 32.9032 77.9678 34.8226 73.606 37.0161C69.2441 38.9355 64.8823 41.129 57.2491 42.2258L56.9765 41.9516C56.7038 42.2258 56.1586 42.2258 55.886 42.5C54.7955 42.5 53.9777 42.7742 52.8872 42.7742L52.6146 40.8548C56.1586 40.5806 59.1574 40.0322 61.6109 39.4839C61.8835 39.4839 62.1561 39.7581 62.4288 39.7581C62.4288 39.4839 62.7014 39.2097 62.974 38.9355C65.7001 38.1129 67.881 37.2903 70.062 36.1935C71.1524 36.1935 71.9703 36.1935 73.0607 36.4677C74.1512 36.1935 75.2416 35.9193 76.0595 35.6452C75.2416 35.371 74.4238 34.8226 73.8786 34.5484C77.9678 32.629 82.6022 30.7097 90.2354 29.8871C90.7807 30.4355 90.7807 31.2581 90.2354 31.8064Z" fill="#D7D2D1"/>
<path d="M164.659 24.6774C165.204 25.2258 166.022 25.5 166.022 25.7742V26.0484C167.113 25.7742 168.203 25.7742 169.294 25.7742C169.566 25.5 169.566 25.2258 169.839 24.9516C169.839 24.6774 169.839 24.6774 169.839 24.4032H170.112C170.112 24.129 170.384 23.8548 170.384 23.5806C170.112 23.5806 170.112 23.5806 169.839 23.5806C167.658 23.8548 166.022 23.8548 164.114 24.4032C164.114 24.4032 164.114 24.4032 164.114 24.6774C164.387 24.6774 164.659 24.6774 164.659 24.6774Z" fill="#D7D2D1"/>
<path d="M127.311 35.9193C126.493 36.1935 125.403 36.7419 124.585 37.0161C126.221 37.0161 127.856 37.0161 129.765 36.7419C140.396 35.9193 145.576 33.4516 150.483 30.9838C154.572 29.0645 158.389 27.1451 164.659 26.0484V25.7742C164.659 25.5 164.659 24.9516 164.932 24.6774H164.659C164.659 24.6774 164.659 24.4032 164.387 24.4032C164.114 24.4032 164.114 24.4032 163.841 24.4032C160.57 24.9516 157.844 25.7742 155.663 26.5967C155.663 26.5967 155.663 26.5967 155.663 26.8709C155.118 27.1451 154.3 27.4193 153.755 27.6935C152.119 28.2419 150.756 29.0645 149.12 29.8871C144.213 32.3548 139.579 34.5484 129.492 35.3709C128.401 35.3709 127.311 35.6451 126.221 35.6451C126.766 35.3709 127.311 35.9193 127.311 35.9193Z" fill="#D7D2D1"/>
<path d="M170.111 24.4032C170.111 24.6774 169.839 24.6774 169.839 24.9516C169.839 25.2258 169.839 25.5 169.839 25.7742C179.926 24.9516 184.833 26.5968 190.012 27.9677C194.647 29.3387 199.281 30.7097 207.46 30.7097C209.095 30.4355 210.458 29.8871 211.276 29.0645V28.5161C201.19 29.3387 196.282 27.6935 191.103 26.3226C186.196 24.9516 181.289 23.3064 172.565 23.8548C172.838 24.129 173.11 24.4032 173.383 24.9516C172.292 24.4032 171.202 24.4032 170.111 24.4032Z" fill="#D7D2D1"/>
<path d="M177.199 61.1451C178.835 61.1451 180.471 61.1451 181.834 61.1451C182.107 61.4193 182.652 61.9677 182.924 62.2419C182.924 62.2419 182.924 62.2419 182.652 62.2419L182.379 62.5161C181.289 62.7903 180.198 62.7903 179.108 63.0645C177.199 63.0645 175.019 63.0645 172.565 63.3387C170.657 62.7903 168.476 62.5161 166.568 61.9677C168.476 61.6935 170.384 61.4193 172.565 61.1451C173.383 61.1451 173.928 61.1451 174.473 61.1451C174.201 61.4193 174.201 61.4193 173.928 61.6935C175.019 61.4193 176.109 61.1451 177.199 61.1451Z" fill="#D7D2D1"/>
<path d="M182.924 62.5161C184.56 62.7903 186.741 63.3387 187.559 62.7903C187.832 62.5161 188.377 62.5161 188.649 62.2419C190.558 62.7903 192.193 63.0645 193.829 63.6129C199.009 65.258 204.188 66.629 214.003 65.8064L214.275 67.7258C203.643 68.5484 198.191 66.9032 193.011 65.258C189.74 64.1613 186.468 63.3387 181.834 62.7903C182.107 62.5161 182.107 62.2419 182.379 61.9677C182.652 62.5161 182.924 62.5161 182.924 62.5161Z" fill="#D7D2D1"/>
<path d="M151.846 69.371C147.212 71.5645 142.032 73.7581 132.763 74.3064C131.4 74.3064 130.037 74.5806 128.947 74.5806C128.947 74.3064 129.219 74.0322 129.219 73.758C128.129 74.0322 127.311 74.3064 126.221 74.5806C119.678 74.3064 115.589 73.2097 111.499 71.8387C106.32 70.1935 101.14 68.8226 91.3259 69.6451C88.5998 69.9193 86.4189 70.1935 84.2379 70.4677C84.5106 69.9193 84.7832 69.6451 85.0558 68.8226C84.7832 68.8226 84.2379 68.5484 83.9653 68.5484C86.1462 68 88.5998 67.7258 91.3259 67.4516C101.958 66.629 107.41 68.2742 112.59 69.9193C115.043 70.7419 117.77 71.5645 120.768 71.8387C121.041 71.8387 121.314 71.8387 121.314 72.1129C124.312 72.6613 127.856 72.6613 132.763 72.3871C142.85 71.5645 147.485 69.371 152.392 66.9032C155.663 65.258 159.207 63.6129 164.114 62.5161C163.841 62.7903 163.569 62.7903 163.296 63.0645C164.114 63.3387 164.932 64.1613 165.75 63.8871C166.568 63.8871 167.113 63.8871 167.658 63.8871C161.388 64.9839 157.571 66.629 153.755 68.5484C153.755 68.5484 153.755 68.5484 153.482 68.5484H153.209C152.392 69.0968 152.119 69.371 151.846 69.371Z" fill="#D7D2D1"/>
<path d="M158.116 8.49999C160.843 7.6774 164.114 7.12902 168.476 6.85482C171.202 6.58063 173.655 6.58063 175.836 6.58063C176.109 6.30644 176.109 6.30644 176.382 6.03224C176.654 6.30644 177.199 6.58063 177.472 6.58063C182.107 6.85483 185.378 7.9516 188.922 9.04837C190.83 9.59676 192.738 10.1451 194.919 10.6935C195.465 10.1451 196.01 9.59676 196.828 9.04837C194.374 8.49999 192.193 7.9516 190.012 7.40321C184.56 5.75805 179.108 4.11289 168.748 4.93547C162.751 5.48386 158.662 6.30644 155.118 7.67741C156.481 7.67741 157.571 7.9516 158.116 8.49999Z" fill="#D7D2D1"/>
<path d="M202.28 10.9677C201.735 10.9677 201.19 11.2419 200.644 11.5161C202.28 11.5161 203.916 11.7903 206.097 11.7903H206.369C207.46 11.7903 208.823 11.7903 209.913 11.5161V9.32257C206.097 9.59676 203.098 9.59676 200.372 9.32257C200.372 9.87096 200.917 10.1452 202.28 10.9677Z" fill="#D7D2D1"/>
<path d="M56.1586 22.7581C60.5204 21.6613 63.7918 20.0161 66.7905 18.6452C68.1536 18.0968 69.5167 17.2742 70.8798 16.7258C71.1524 16.4516 71.6976 16.1774 71.9702 15.9032C72.2428 15.9032 72.2428 16.1774 72.5154 16.1774C74.1511 15.629 76.332 14.8064 78.513 14.2581C77.9677 13.9839 77.6951 13.9839 77.1499 13.7097C76.332 13.4355 75.7868 13.1613 75.2416 12.8871C71.425 13.9839 68.4262 15.3548 65.7001 16.7258C62.9739 18.0968 60.5204 19.1935 57.249 20.2903C56.7038 21.1129 56.1586 21.9355 56.1586 22.7581Z" fill="#D7D2D1"/>
<path d="M81.5118 13.7097C83.1475 13.4355 84.5106 13.1613 86.4189 13.1613H86.6915C86.6915 13.1613 86.6915 13.1613 86.9641 13.1613C89.4176 11.7903 92.4164 11.7903 95.1425 12.6129C95.9604 12.8871 96.7782 13.1613 97.596 13.7097C99.2317 13.9839 100.595 14.2581 101.958 14.5323C102.776 13.9839 103.594 13.7097 104.411 13.1613C105.774 13.9839 107.138 15.0806 109.046 16.1774C113.68 17.5484 119.133 18.6452 127.856 17.8226C135.489 17.2742 140.397 15.629 144.213 13.9839C146.394 12.8871 144.758 9.59677 150.483 10.6935C151.301 9.87097 151.574 9.04839 151.301 8.5C149.938 9.04839 148.575 9.59677 147.485 10.4194C142.577 12.8871 137.943 15.0806 128.402 15.9032C127.038 16.7258 125.675 17.2742 124.312 18.0968C124.04 18.371 122.677 17.8226 120.223 17.2742C120.768 17 121.314 16.7258 121.859 16.1774C121.041 16.1774 119.95 16.1774 119.133 16.1774C119.405 16.1774 119.405 16.4516 119.678 16.4516C118.587 17 116.679 17.8226 116.406 17.8226C115.043 17 113.953 16.1774 112.59 15.0806C110.682 14.5323 109.046 14.2581 107.41 13.7097C101.958 12.0645 96.5056 10.4194 86.1462 11.2419C83.6927 11.5161 81.7844 11.7903 79.8761 12.0645C80.6939 12.6129 81.2392 13.1613 81.5118 13.7097Z" fill="#D7D2D1"/>
<path d="M109.046 52.3709C108.773 52.6451 108.501 52.6451 108.501 52.9193C109.046 52.9193 109.318 53.1935 109.864 53.1935C115.316 54.8387 120.768 56.4838 131.128 55.6613C131.4 55.6613 131.673 55.6613 131.673 55.6613C133.581 54.5645 134.944 54.0161 136.035 53.4677C136.035 54.0161 136.58 54.5645 136.307 54.8387C136.307 54.8387 136.307 54.8387 136.307 55.1129C143.395 54.0161 147.485 52.0968 151.574 49.9032C152.392 49.3548 153.482 49.0806 154.3 48.5322C154.3 47.7097 154.3 47.1613 154.027 46.3387C152.664 46.8871 151.574 47.4355 150.211 47.9838C145.304 50.4516 140.669 52.6451 130.582 53.4677C120.496 54.2903 115.589 52.6451 110.409 51.2742C109.046 50.7258 107.683 50.4516 106.047 49.9032C107.683 51 109.318 52.3709 109.046 52.3709Z" fill="#D7D2D1"/>
<path d="M191.648 46.8871C196.01 48.258 200.372 49.3548 207.46 49.629C207.46 49.3548 207.46 49.0806 207.732 49.0806C209.641 48.5322 209.913 47.9838 209.641 47.7096C201.735 47.9838 197.373 46.6129 192.466 45.2419C190.558 44.6935 188.649 44.1451 186.196 43.5967C185.65 44.1451 185.378 44.6935 184.833 45.5161C187.559 45.5161 189.467 46.0645 191.648 46.8871Z" fill="#D7D2D1"/>
<path d="M158.116 47.1613C161.388 46.0645 165.477 44.9677 171.202 44.4193C176.927 43.8709 181.289 44.4193 184.56 44.9677C185.105 44.4193 185.378 43.5967 185.923 43.0484C184.015 42.7742 181.834 42.5 179.38 42.2258C179.38 42.5 179.38 42.5 179.38 42.7742C179.108 42.7742 178.29 43.3225 177.472 43.5967C175.564 43.5967 173.928 43.5967 172.292 43.3225C171.475 43.3225 170.929 43.0484 170.112 42.7742C166.022 43.0484 162.751 43.8709 160.025 44.6935C159.48 45.5161 158.934 46.3387 158.389 46.8871C158.389 46.8871 158.116 46.8871 158.116 47.1613Z" fill="#D7D2D1"/>
<path d="M16.3568 57.0323C21.8091 57.3065 25.3531 58.4032 29.1697 59.5C31.6232 60.3226 34.3494 60.871 37.3481 61.4194C37.6208 61.4194 37.8934 61.1452 37.8934 61.1452C38.4386 61.4194 38.7112 61.4194 38.9838 61.6936C41.9826 61.9677 45.7992 62.2419 50.4336 61.9678C51.2515 61.9678 52.0693 61.6936 52.6146 61.6936C52.8872 61.6936 53.1598 61.4194 53.4324 61.4194C53.705 61.4194 53.9776 61.4194 53.9776 61.4194C62.1561 60.3226 66.5179 58.129 70.8797 56.2097C75.7868 53.7419 80.4213 51.5484 90.508 50.7258C96.5055 50.1774 100.595 50.7258 104.139 51.2742L104.411 49.3548C103.321 49.0807 102.23 49.0807 100.867 48.8065C101.14 49.0807 101.14 49.0807 101.413 49.3548C100.595 49.629 99.5043 49.9032 97.8686 50.7258C96.2329 50.1774 94.3246 49.629 92.6889 48.8065C92.1437 48.8065 91.5984 48.8065 90.7806 48.8065C86.4188 49.0807 82.8748 49.9032 80.1486 50.7258C76.0594 51.8226 73.3333 53.1936 70.3345 54.5645C67.0631 56.2097 63.7918 57.5807 59.1573 58.6774C60.2478 58.9516 61.3382 59.2258 62.4287 59.5C61.8835 59.7742 61.0656 60.0484 60.5204 60.0484C59.7025 60.0484 58.6121 59.7742 57.7942 59.7742C58.0669 59.2258 58.3395 58.9516 58.6121 58.9516C56.4312 59.5 53.9776 59.7742 50.9789 60.0484C40.3469 60.871 35.4398 59.2258 29.9875 57.5807C26.7162 56.4839 23.1722 55.6613 18.5377 55.1129C17.9925 55.9355 17.1747 56.4839 16.3568 57.0323ZM77.9677 51.8226C78.2403 52.0968 78.5129 52.6452 78.5129 52.6452C77.9677 52.9194 77.1499 53.1936 76.6046 53.4678C76.332 53.1936 76.332 52.9194 76.0594 52.371C76.6046 52.0968 77.1499 52.0968 77.9677 51.8226Z" fill="#D7D2D1"/>
<path d="M80.9665 69.371C76.6047 70.4677 73.3333 71.8387 70.0619 73.4839C65.1549 75.9516 60.5204 78.1452 50.4337 78.9677C47.4349 79.2419 44.9814 79.2419 42.5279 78.9677C42.8005 79.2419 43.0731 79.2419 43.3457 79.7903C42.2552 80.0645 41.4374 80.3387 40.6195 80.6129C40.0743 80.6129 39.2565 80.3387 38.7112 80.3387C39.8017 79.7903 40.8922 79.5161 41.9826 78.9677C37.0756 78.6936 33.8042 77.5968 30.2602 76.5C27.2614 75.6774 23.9901 74.5807 19.9008 74.3065C16.9021 74.0323 13.3581 73.7581 8.99625 74.3065C8.45102 74.3065 7.90579 74.3065 7.63318 74.5807L7.90579 76.5C8.45102 76.5 8.99625 76.5 9.26887 76.2258C19.083 75.4032 24.2627 77.0484 29.4423 78.4194C34.0768 79.7903 38.9839 81.1613 46.8897 81.1613C47.1623 81.1613 47.4349 81.1613 47.4349 81.1613C47.7075 81.1613 47.9801 81.1613 48.2528 81.1613C49.0706 81.1613 49.6158 81.1613 50.4337 81.1613C55.0681 80.8871 58.6121 80.0645 61.6109 79.2419C61.8835 78.9677 62.4287 78.6936 62.7013 78.4194C62.9739 78.4194 63.2466 78.6936 63.5192 78.6936C66.5179 77.5968 68.9715 76.5 71.1524 75.4032C74.6964 73.7581 78.2404 72.1129 83.42 71.0161C82.6022 70.1936 81.7844 69.9194 80.9665 69.371ZM23.4448 76.5C22.627 76.5 21.8091 76.2258 21.5365 75.9516C21.2639 75.9516 21.8091 75.4032 21.8091 75.129C22.627 75.129 23.1722 75.4032 23.9901 75.4032C23.7174 75.9516 23.7174 76.2258 23.4448 76.5Z" fill="#D7D2D1"/>
</svg>
