<svg width="32" height="32" viewBox="0 0 32 32" fill="none" xmlns="http://www.w3.org/2000/svg">
<path d="M25 14.6667H22.6667V14.3334C22.6667 13.4167 23.375 12.6667 24.3333 12.6667H24.6667C25.75 12.6667 26.6667 11.7917 26.6667 10.6667V8.66675C26.6667 7.58341 25.75 6.66675 24.6667 6.66675H24.3333C20.0833 6.66675 16.6667 10.1251 16.6667 14.3334V22.3334C16.6667 24.0001 18 25.3334 19.6667 25.3334H25C26.625 25.3334 28 24.0001 28 22.3334V17.6667C28 16.0417 26.625 14.6667 25 14.6667ZM26 22.3334C26 22.9167 25.5417 23.3334 25 23.3334H19.6667C19.0833 23.3334 18.6667 22.9167 18.6667 22.3334V14.3334C18.6667 11.2084 21.2083 8.66675 24.3333 8.66675H24.6667V10.6667H24.3333C22.2917 10.6667 20.6667 12.3334 20.6667 14.3334V16.6667H25C25.5417 16.6667 26 17.1251 26 17.6667V22.3334ZM12.3333 14.6667H10V14.3334C10 13.4167 10.7083 12.6667 11.6667 12.6667H12C13.0833 12.6667 14 11.7917 14 10.6667V8.66675C14 7.58341 13.0833 6.66675 12 6.66675H11.6667C7.41667 6.66675 4 10.1251 4 14.3334V22.3334C4 24.0001 5.33333 25.3334 7 25.3334H12.3333C13.9583 25.3334 15.3333 24.0001 15.3333 22.3334V17.6667C15.3333 16.0417 13.9583 14.6667 12.3333 14.6667ZM13.3333 22.3334C13.3333 22.9167 12.875 23.3334 12.3333 23.3334H7C6.41667 23.3334 6 22.9167 6 22.3334V14.3334C6 11.2084 8.54167 8.66675 11.6667 8.66675H12V10.6667H11.6667C9.625 10.6667 8 12.3334 8 14.3334V16.6667H12.3333C12.875 16.6667 13.3333 17.1251 13.3333 17.6667V22.3334Z" fill="#1B3D6D"/>
</svg>
