<svg width="32" height="32" viewBox="0 0 32 32" fill="none" xmlns="http://www.w3.org/2000/svg">
<path d="M12.3333 6.66675H7C5.33333 6.66675 4 8.04175 4 9.66675V14.3334C4 16.0001 5.33333 17.3334 7 17.3334H9.33333V17.6667C9.33333 18.6251 8.58333 19.3334 7.66667 19.3334H7.33333C6.20833 19.3334 5.33333 20.2501 5.33333 21.3334V23.3334C5.33333 24.4584 6.20833 25.3334 7.33333 25.3334H7.66667C11.875 25.3334 15.3333 21.9167 15.3333 17.6667V9.66675C15.3333 8.04175 13.9583 6.66675 12.3333 6.66675ZM13.3333 17.6667C13.3333 20.7917 10.7917 23.3334 7.66667 23.3334H7.33333V21.3334H7.66667C9.66667 21.3334 11.3333 19.7084 11.3333 17.6667V15.3334H7C6.41667 15.3334 6 14.9167 6 14.3334V9.66675C6 9.12508 6.41667 8.66675 7 8.66675H12.3333C12.875 8.66675 13.3333 9.12508 13.3333 9.66675V17.6667ZM25 6.66675H19.6667C18 6.66675 16.6667 8.04175 16.6667 9.66675V14.3334C16.6667 16.0001 18 17.3334 19.6667 17.3334H22V17.6667C22 18.6251 21.25 19.3334 20.3333 19.3334H20C18.875 19.3334 18 20.2501 18 21.3334V23.3334C18 24.4584 18.875 25.3334 20 25.3334H20.3333C24.5417 25.3334 28 21.9167 28 17.6667V9.66675C28 8.04175 26.625 6.66675 25 6.66675ZM26 17.6667C26 20.7917 23.4583 23.3334 20.3333 23.3334H20V21.3334H20.3333C22.3333 21.3334 24 19.7084 24 17.6667V15.3334H19.6667C19.0833 15.3334 18.6667 14.9167 18.6667 14.3334V9.66675C18.6667 9.12508 19.0833 8.66675 19.6667 8.66675H25C25.5417 8.66675 26 9.12508 26 9.66675V17.6667Z" fill="#1B3D6D"/>
</svg>
