<svg preserveAspectRatio="none" width="100%" height="100%" overflow="visible" style="display: block;" viewBox="0 0 19.9977 13.997" fill="none" xmlns="http://www.w3.org/2000/svg">
<path id="box-open" d="M19.9498 3.47875L18.3248 0.26C18.1998 0.00999999 17.9498 -0.02125 17.8248 0.01L10.0123 0.97875L2.16856 0.01C2.04356 -0.02125 1.79356 0.00999999 1.66856 0.26L0.0435631 3.47875C-0.0814369 3.76 0.0748131 4.10375 0.356063 4.1975L2.01231 4.66625V11.26C2.01231 11.7288 2.32481 12.135 2.76231 12.2288L9.51231 13.9475C9.69981 13.9788 10.0436 14.0413 10.4811 13.9475L17.2311 12.2288C17.6998 12.135 18.0123 11.7288 18.0123 11.26V4.66625L19.6373 4.1975C19.9498 4.10375 20.0748 3.76 19.9498 3.47875ZM2.69981 1.5725L7.51231 2.1975L6.23106 4.3225L1.91856 3.10375L2.69981 1.5725ZM3.51231 5.10375L6.54356 5.97875C6.79356 6.04125 7.04356 5.91625 7.13731 5.72875L9.26231 2.22875V12.3225L3.51231 10.885V5.10375ZM16.5123 10.885L10.7623 12.3225V2.22875L12.8561 5.76C12.9811 5.91625 13.1998 6.04125 13.4498 5.97875L16.5123 5.10375V10.885ZM13.7623 4.3225L12.4811 2.1975L17.3248 1.5725L18.0748 3.10375L13.7623 4.3225Z" fill="var(--fill-0, white)"/>
</svg>
