<svg preserveAspectRatio="none" width="100%" height="100%" overflow="visible" style="display: block;" viewBox="0 0 15.5005 15.7502" fill="none" xmlns="http://www.w3.org/2000/svg">
<path id="power-off" d="M11.8755 1.46875C11.688 1.34375 11.438 1.40625 11.3442 1.59375L10.9692 2.25C10.8755 2.40625 10.938 2.625 11.0942 2.75C12.8442 3.84375 14.0005 5.8125 14.0005 8C14.0005 11.4688 11.188 14.25 7.75049 14.25C4.28174 14.25 1.50049 11.4688 1.50049 8C1.50049 5.8125 2.62549 3.84375 4.37549 2.75C4.53174 2.625 4.59424 2.40625 4.50049 2.25L4.12549 1.59375C4.03174 1.40625 3.78174 1.34375 3.59424 1.46875C1.43799 2.84375 -0.0307608 5.25 0.000489204 8.03125C0.000489204 12.2812 3.50049 15.7812 7.75049 15.75C12.0317 15.75 15.5005 12.2812 15.5005 8C15.5005 5.25 14.0317 2.84375 11.8755 1.46875ZM8.50049 8.625V0.375C8.50049 0.1875 8.31299 0 8.12549 0H7.37549C7.15674 0 7.00049 0.1875 7.00049 0.375V8.625C7.00049 8.84375 7.15674 9 7.37549 9H8.12549C8.31299 9 8.50049 8.84375 8.50049 8.625Z" fill="var(--fill-0, white)"/>
</svg>
