<svg preserveAspectRatio="none" width="100%" height="100%" overflow="visible" style="display: block;" viewBox="0 0 20 16" fill="none" xmlns="http://www.w3.org/2000/svg">
<path id="scroll-old" d="M19 10.5H17V8.46875L16.5312 8L17 7.5625V4.46875L16.5312 4L17 3.5625V2.75C17 1.25 15.75 0 14.25 0H2.5C1.09375 0 0 1.125 0 2.5V4.5C0 5.0625 0.4375 5.5 1 5.5H3.5V7.5625L3.9375 8L3.5 8.46875V12.625C3.5 14.3438 4.78125 15.9062 6.5625 16H16.3125C18.3438 16 20 14.375 20 12.3438V11.5C20 10.9688 19.5312 10.5 19 10.5ZM1.5 4V2.5C1.5 1.96875 1.9375 1.5 2.5 1.5C3.03125 1.5 3.5 1.96875 3.5 2.5V4H1.5ZM5 12.625V9.0625L6.03125 8L5 6.96875V2.5C5 2.15625 4.90625 1.8125 4.78125 1.5H14.25C14.9375 1.5 15.5 2.0625 15.5 2.75V2.96875L14.4375 4L15.5 5.0625V6.96875L14.4375 8L15.5 9.0625V10.5H13.4375L13 10.9688L12.5312 10.5H9.5C8.9375 10.5 8.5 10.9688 8.5 11.5V12.75C8.5 13.25 8.28125 13.7188 7.90625 14.0625C7.53125 14.4062 7.0625 14.5625 6.5625 14.5C5.6875 14.4062 5 13.5938 5 12.625ZM18.5 12.3438C18.5 13.5312 17.5 14.5 16.3125 14.5H9.46875C9.78125 14 10 13.4062 10 12.75V12H11.9375L13 13.0625L14.0312 12H18.5V12.3438Z" fill="var(--fill-0, white)"/>
</svg>
