<svg preserveAspectRatio="none" width="100%" height="100%" overflow="visible" style="display: block;" viewBox="0 0 20 16" fill="none" xmlns="http://www.w3.org/2000/svg">
<path id="user-plus" d="M7 9C9.46875 9 11.5 7 11.5 4.5C11.5 2.03125 9.46875 0 7 0C4.5 0 2.5 2.03125 2.5 4.5C2.5 7 4.5 9 7 9ZM7 1.5C8.625 1.5 10 2.875 10 4.5C10 6.15625 8.625 7.5 7 7.5C5.34375 7.5 4 6.15625 4 4.5C4 2.875 5.34375 1.5 7 1.5ZM9.78125 9.5C8.875 9.5 8.46875 10 7 10C5.5 10 5.09375 9.5 4.1875 9.5C1.875 9.5 0 11.4062 0 13.7188V14.5C0 15.3438 0.65625 16 1.5 16H12.5C13.3125 16 14 15.3438 14 14.5V13.7188C14 11.4062 12.0938 9.5 9.78125 9.5ZM12.5 14.5H1.5V13.7188C1.5 12.2188 2.6875 11 4.1875 11C4.65625 11 5.375 11.5 7 11.5C8.59375 11.5 9.3125 11 9.78125 11C11.2812 11 12.5 12.2188 12.5 13.7188V14.5ZM19.5 6.75H17.25V4.5C17.25 4.25 17 4 16.75 4H16.25C15.9688 4 15.75 4.25 15.75 4.5V6.75H13.5C13.2188 6.75 13 7 13 7.25V7.75C13 8.03125 13.2188 8.25 13.5 8.25H15.75V10.5C15.75 10.7812 15.9688 11 16.25 11H16.75C17 11 17.25 10.7812 17.25 10.5V8.25H19.5C19.75 8.25 20 8.03125 20 7.75V7.25C20 7 19.75 6.75 19.5 6.75Z" fill="var(--fill-0, white)"/>
</svg>
